<?xml version="1.0" encoding="UTF-8" standalone="no"?>
<!-- Created with Inkscape (http://www.inkscape.org/) -->

<svg
   width="210mm"
   height="297mm"
   viewBox="0 0 210 297"
   version="1.1"
   id="svg5"
   xml:space="preserve"
   inkscape:version="1.2.1 (9c6d41e410, 2022-07-14)"
   sodipodi:docname="rysunek11.svg"
   xmlns:inkscape="http://www.inkscape.org/namespaces/inkscape"
   xmlns:sodipodi="http://sodipodi.sourceforge.net/DTD/sodipodi-0.dtd"
   xmlns:xlink="http://www.w3.org/1999/xlink"
   xmlns="http://www.w3.org/2000/svg"
   xmlns:svg="http://www.w3.org/2000/svg"><sodipodi:namedview
     id="namedview7"
     pagecolor="#ffffff"
     bordercolor="#666666"
     borderopacity="1.0"
     inkscape:showpageshadow="2"
     inkscape:pageopacity="0.0"
     inkscape:pagecheckerboard="0"
     inkscape:deskcolor="#d1d1d1"
     inkscape:document-units="mm"
     showgrid="false"
     inkscape:zoom="3.39"
     inkscape:cx="441.74041"
     inkscape:cy="542.33038"
     inkscape:window-width="1920"
     inkscape:window-height="1017"
     inkscape:window-x="-9"
     inkscape:window-y="-9"
     inkscape:window-maximized="1"
     inkscape:current-layer="layer1" /><defs
     id="defs2"><inkscape:path-effect
       effect="spiro"
       id="path-effect6467"
       is_visible="true"
       lpeversion="1" /><inkscape:path-effect
       effect="spiro"
       id="path-effect5074"
       is_visible="true"
       lpeversion="1" /><linearGradient
       inkscape:collect="always"
       id="linearGradient5011"><stop
         style="stop-color:#ff5e5e;stop-opacity:1;"
         offset="0"
         id="stop5007" /><stop
         style="stop-color:#ffc7c7;stop-opacity:0;"
         offset="1"
         id="stop5009" /></linearGradient><inkscape:path-effect
       effect="spiro"
       id="path-effect579"
       is_visible="true"
       lpeversion="1" /><inkscape:path-effect
       effect="spiro"
       id="path-effect579-2"
       is_visible="true"
       lpeversion="1" /><inkscape:path-effect
       effect="spiro"
       id="path-effect579-2-6"
       is_visible="true"
       lpeversion="1" /><radialGradient
       inkscape:collect="always"
       xlink:href="#linearGradient5011"
       id="radialGradient5013"
       cx="96.935837"
       cy="176.85718"
       fx="96.935837"
       fy="176.85718"
       r="1.6390117"
       gradientUnits="userSpaceOnUse" /><radialGradient
       inkscape:collect="always"
       xlink:href="#linearGradient5011"
       id="radialGradient5013-0"
       cx="96.935837"
       cy="176.85718"
       fx="96.935837"
       fy="176.85718"
       r="1.6390117"
       gradientUnits="userSpaceOnUse"
       gradientTransform="translate(15.843785,-7.4145769)" /><radialGradient
       inkscape:collect="always"
       xlink:href="#linearGradient5011"
       id="radialGradient5013-2"
       cx="96.935837"
       cy="176.85718"
       fx="96.935837"
       fy="176.85718"
       r="1.6390117"
       gradientUnits="userSpaceOnUse"
       gradientTransform="matrix(3.1034484,0,0,2.3095238,-193.51911,-232.41819)" /></defs><g
     inkscape:label="Warstwa 1"
     inkscape:groupmode="layer"
     id="layer1"><path
       style="fill:none;fill-rule:evenodd;stroke:#000000;stroke-width:0.264583px;stroke-linecap:butt;stroke-linejoin:miter;stroke-opacity:1"
       d="m 84.401132,178.88673 -2.053769,3.83702"
       id="path365"
       sodipodi:nodetypes="cc"
       inkscape:export-filename="mikołaj.png"
       inkscape:export-xdpi="36.258709"
       inkscape:export-ydpi="36.258709" /><path
       style="fill:none;fill-rule:evenodd;stroke:#000000;stroke-width:0.264583px;stroke-linecap:butt;stroke-linejoin:miter;stroke-opacity:1"
       d="m 79.897517,187.98434 2.656678,-5.75068"
       id="path367"
       sodipodi:nodetypes="cc" /><path
       style="fill:none;fill-rule:evenodd;stroke:#000000;stroke-width:0.264583px;stroke-linecap:butt;stroke-linejoin:miter;stroke-opacity:1"
       d="m 132.31963,156.01866 c -0.44885,-0.44884 -1.79538,-1.88515 -1.88515,-2.24422 -0.0898,-0.35908 -0.17954,-1.70562 0.2693,-2.87261 0.44885,-1.167 -2.06469,-2.51354 -2.42376,-3.86007 -0.35908,-1.34654 -0.26931,-2.06469 0.17954,-2.87261 0.44884,-0.80793 1.07723,-0.62839 2.6033,-0.89769 1.52607,-0.26931 4.48845,1.52607 4.48845,1.52607 l 1.167,1.25677 0.89769,1.97492 c 0,0 0.17954,0.35907 0.35908,0.89769 0.17954,0.53861 -0.26931,0.62838 0.44884,0.89769 0.71816,0.26931 0.98747,0.35907 0.98747,0.35907"
       id="path375" /><path
       style="fill:none;fill-rule:evenodd;stroke:#000000;stroke-width:0.264583px;stroke-linecap:butt;stroke-linejoin:miter;stroke-opacity:1"
       d="m 137.79554,148.11898 c 0.53862,0 4.12938,-2.6033 4.9373,-2.87261 0.80792,-0.2693 3.05215,-0.98746 3.94984,-1.16699 0.89769,-0.17954 0.35908,-0.53862 2.15446,-0.53862 h 3.41122 c 0,0 1.52608,0.62839 1.88515,0.80793 0.35908,0.17953 1.70562,0.44884 2.06469,1.52607 0.35908,1.07723 0.80792,1.61584 0.98746,2.15446 0.17954,0.53861 0.71816,0.98746 0.71816,2.24422 0,1.25677 0.2693,1.167 0,2.06469 -0.26931,0.89769 -0.0898,1.25677 -0.71816,1.97492 -0.62838,0.71816 -0.44884,1.43631 -1.52607,2.24423 -1.07723,0.80792 -0.53862,0.62838 -2.15446,1.25677 -1.61584,0.62838 -1.79538,0.80792 -2.87261,1.34653 -1.07723,0.53862 -0.98746,0.26931 -1.97492,0.89769 -0.98746,0.62839 -1.61584,0.71816 -2.42376,1.34654 l -0.80793,0.62838 c 0,0 -0.80792,-2.24422 -1.4363,-2.69307 -0.62839,-0.44885 -2.24423,-1.167 -2.24423,-1.167 0,0 -0.89769,0 -1.52607,-0.2693 -0.62839,-0.26931 -0.62839,-0.26931 -1.34654,-0.71816 -0.71815,-0.44884 0.71815,-0.53861 -1.70561,-1.07722 -2.42377,-0.53862 -1.70561,-0.8977 -3.23169,-0.35908 -1.52607,0.53861 -1.88515,0.53861 -1.88515,0.53861 0,0 0,0.17954 -1.79538,0.62839 -1.79538,0.44884 -1.167,-0.0898 -1.88515,0.62838 -0.71815,0.71815 -0.44885,-0.17954 -0.89769,0.89769 -0.44885,1.07723 -0.35908,1.52607 -0.53862,1.88515 -0.17954,0.35908 -0.44884,1.61584 -0.44884,1.61584 l 0.17954,1.43631 c 0,0 -0.0898,0.17954 -0.53862,0.89769 -0.44885,0.71815 -0.62838,0.71815 -0.44885,1.34654 0.17954,0.62838 0.53862,0.89769 0.53862,0.89769 l -1.07723,1.16699 c 0,0 0,-0.17953 -1.4363,0.0898 -1.43631,0.26931 -1.61585,0.26931 -1.61585,0.26931 l 0.35908,-0.89769 c 0,0 0,-0.71815 -0.35908,-0.89769 -0.35907,-0.17954 -0.89769,-0.62838 -0.89769,-0.62838 l 1.07723,-1.34654 c 0,0 0.53861,-0.53861 -0.44885,-1.34654 -0.98746,-0.80792 -1.25676,0.44885 -1.16699,-0.98746 0.0898,-1.4363 0.35907,-2.33399 0.35907,-2.33399 0,0 0.71815,-0.98746 0,-1.34654 -0.71815,-0.35907 0.0898,-0.44884 -1.61584,-0.53861 -1.70561,-0.0898 -3.23169,-0.0898 -3.23169,-0.0898 l -0.35908,-1.167 c 0,0 -0.17953,0.26931 -1.97491,0.53861 -1.79538,0.26931 -0.8977,0.71816 -2.96238,0.26931 -2.06469,-0.44884 -1.52608,-0.71815 -3.501,-0.71815 -1.97492,0 -2.24423,-0.53862 -2.78284,0.26931 -0.53861,0.80792 -0.26931,0.17953 -0.89769,1.34653 -0.62838,1.167 -1.167,1.61585 -2.15446,1.70561 -0.98746,0.0898 -3.052148,-0.0898 -3.052148,-0.0898 0,0 -1.346536,0.0898 -1.615842,0.53861 -0.269308,0.44885 -0.179538,0.44885 -0.628385,1.25677 -0.448845,0.80792 1.256768,0.89769 -0.448845,1.61584 -1.705612,0.71815 -1.526074,0.62838 -2.603304,0.98746 -1.077227,0.35908 -2.693072,0.89769 -3.500993,1.70561 -0.807921,0.80792 -4.757761,2.06469 -4.667993,3.501 0.08977,1.4363 -1.436304,3.05215 -1.436304,3.94984 0,0.89769 0.448844,1.61584 0.718153,2.69307 0.269306,1.07723 0.538612,0.44885 0.538612,1.43631 0,0.98745 -0.71815,0.71815 -0.448844,1.34653 0.269306,0.62838 0.448844,-0.35908 1.07723,0.17954 0.628383,0.53861 0.897689,0 0.987459,0.80792 0.08977,0.80792 -1.166997,1.52608 0.179539,1.52608 1.346536,0 3.141916,0.53861 3.770301,-0.17954 0.628383,-0.71815 0.807922,-3.23169 1.705613,-4.21915 0.897689,-0.98746 2.064689,-2.6033 2.603302,-3.59076 0.538615,-0.98746 3.770301,-4.66799 4.398687,-4.84753 0.628383,-0.17954 4.129372,-3.05215 7.091752,-3.05215 h 7.45084 c 0,0 3.32146,-0.71815 5.02707,-0.26931 1.70561,0.44885 2.51353,0.44885 2.51353,0.44885"
       id="path431"
       sodipodi:nodetypes="cssscssssssssssscscsssscssssccssccsccsccsscssccsssssccsssssssssssssssssscsc" /><path
       style="fill:none;fill-rule:evenodd;stroke:#000000;stroke-width:0.264583px;stroke-linecap:butt;stroke-linejoin:miter;stroke-opacity:1"
       d="m 113.37835,157.09589 c -0.17954,-0.44884 -3.14192,-3.68053 -3.7703,-4.03961 -0.62838,-0.35907 -4.21915,-1.79538 -4.21915,-1.79538 0,0 -2.96238,-1.88515 -4.75776,-1.61584 -1.795381,0.26931 -7.091757,0.71815 -7.899678,1.07723 -0.807921,0.35908 -4.847532,2.24423 -5.296376,2.42376 -0.448845,0.17954 -4.398685,3.77031 -4.398685,3.77031 l -4.757761,6.46337 -2.423766,7.89968 -0.628383,4.39869 1.07723,7.72013 1.436304,4.668 c 0,0 -0.807921,0.53861 -0.807921,1.167 0,0.62838 0.359076,1.79538 0.359076,1.79538 0,0 -1.166997,-0.89769 -1.615844,-0.71815 -0.448845,0.17953 -1.256766,-0.26931 -1.346536,0.35907 -0.08977,0.62838 -0.08977,1.25677 -0.08977,1.70561 0,0.44885 -0.08977,0.71816 0.179538,1.07723 0.269306,0.35908 1.705613,-0.0898 1.974919,0.44885 0.269306,0.53861 0.08977,2.78284 0.08977,2.78284 0,0 0.628383,0.71815 1.077228,0.62838 0.448847,-0.0898 0.718153,-0.35908 1.077229,-0.53861 0.359077,-0.17954 0.807921,-0.53862 0.807921,-0.53862 l 0.448845,1.88516 c 0,0 -0.448845,0.2693 0.448847,0.35907 0.897692,0.0898 1.526074,0.0898 1.526074,0.0898 l 1.07723,-0.44884 0.179536,-1.43631 -0.538612,-1.167 c 0,0 -0.987462,-0.62838 -0.448848,-0.62838 0.538615,0 1.07723,-0.17954 1.705613,-0.17954 0.628385,0 0.987459,0.0898 0.987459,-0.26931 0,-0.35908 0.179539,-1.97492 0.08977,-2.33399 -0.08977,-0.35908 -0.359077,-0.53862 -1.166998,-0.8977 -0.807921,-0.35907 -1.256768,-0.44884 -1.256768,-0.44884 l 1.166998,-0.35908 c 0,0 0.179538,-0.89769 -0.179539,-1.16699 -0.359076,-0.26931 -1.077227,-0.8977 -1.436303,-0.98746 -0.359077,-0.0898 -0.897692,-0.0898 -1.07723,0.2693 -0.179539,0.35908 -0.179539,0.53862 -0.179539,0.53862 0,0 -0.269306,-0.62839 -0.718153,-0.89769 -0.448844,-0.26931 -0.08977,-0.44885 -1.077227,-0.44885 -0.987459,0 -1.526074,0.17954 -1.526074,0.17954"
       id="path433" /><path
       style="fill:none;fill-rule:evenodd;stroke:#000000;stroke-width:0.264583px;stroke-linecap:butt;stroke-linejoin:miter;stroke-opacity:1"
       d="m 92.060192,177.07152 1.299653,0.8508 c 0,0 0.359076,0 0.179538,0.53861 -0.179538,0.53862 -0.987459,1.07723 -0.179538,1.52608 0.807923,0.44885 1.885151,0.35908 1.885151,0.35908 0,0 1.526074,-0.17954 2.244227,-0.35908 0.718153,-0.17954 2.513537,-1.4363 2.513537,-1.4363 0,0 1.07723,-1.43631 0.89769,-0.98747 -0.17954,0.44885 -0.17954,1.88515 0.2693,1.97492 0.44885,0.0898 2.51354,0.0898 2.87262,0.0898 0.35907,0 1.52607,1.167 2.51353,0.62839 0.98746,-0.53862 0.26931,-0.35908 2.51353,-1.25677 2.24423,-0.89769 2.15446,-0.35908 2.96239,-1.25677 0.80792,-0.89769 1.07722,-1.88515 0.71815,-3.05215 -0.35908,-1.16699 -1.88515,-2.24422 -1.88515,-2.24422 l 1.34653,1.25676 2.69308,-1.61584 1.79538,-0.89769 0.89769,-0.35908 0.17954,-1.25676 -1.34654,-0.71816 -0.17954,-0.71815 v -2.15446 l 0.44885,-0.80792"
       id="path435"
       sodipodi:nodetypes="ccsscscssssssscccccccccc" /><path
       style="fill:none;fill-rule:evenodd;stroke:#000000;stroke-width:0.264583px;stroke-linecap:butt;stroke-linejoin:miter;stroke-opacity:1"
       d="m 95.358208,180.44757 -1.369978,1.6939 c 0,0 -2.15446,0.62838 -2.064689,1.61584 0.08977,0.98746 0.179538,2.69307 0.628383,2.78284 0.448844,0.0898 1.526074,-0.26931 1.526074,-0.26931 0,0 0.538615,0.26931 0.628383,0.80793 0.08977,0.53861 -1.436304,0.98746 0.448847,0.80792 1.885151,-0.17954 1.615842,-0.17954 2.154457,-0.17954 h 1.974919"
       id="path437"
       sodipodi:nodetypes="ccsscsssc" /><path
       style="fill:none;fill-rule:evenodd;stroke:#000000;stroke-width:0.264583px;stroke-linecap:butt;stroke-linejoin:miter;stroke-opacity:1"
       d="m 88.602083,181.24378 c 0.08977,1.52607 0.448847,2.06469 0.538615,2.42376 0.08977,0.35908 -0.807921,0.62839 -0.807921,1.167 0,0.53862 -0.08977,1.52608 0.448845,2.06469 0.538615,0.53861 0.718153,1.167 0.718153,1.167 0,0 -0.448845,0 -0.628383,1.88515 -0.179538,1.88515 0.08977,2.33399 0.179538,2.69307 0.08977,0.35908 0.98746,1.4363 0.98746,1.4363 h 0.897691 c 0,0 -0.269308,0.71816 -0.448847,1.25677 -0.179538,0.53862 -0.448844,1.34654 -0.448844,1.34654 l -0.269309,1.70561 47.846919,-0.0898 -0.17954,-2.06469 c 0,0 0.17954,-0.80792 0.0898,-1.25676 -0.0898,-0.44885 -0.35907,-1.25677 -0.35907,-1.25677 l -1.167,-3.41122 -0.44885,-1.79539 1.167,0.35908 0.26931,-1.79538 -0.62838,-2.06469 c 0,0 -0.80793,-1.43631 -1.25677,-1.97492 -0.44885,-0.53862 -0.35908,-0.44885 -1.25677,-1.167 -0.89769,-0.71815 -1.79538,-1.25677 -1.4363,-1.167 0.35907,0.0898 1.88515,0.26931 1.88515,0.26931 0,0 1.167,-0.62838 0.98746,-1.07723 -0.17954,-0.44885 0,-0.80792 -0.89769,-1.34653 -0.8977,-0.53862 -0.8977,-0.53862 -0.8977,-0.53862 0,0 0.17954,1.4363 -0.44884,-0.44885 -0.62838,-1.88514 -0.71815,-1.88514 -1.167,-2.15445 -0.44884,-0.26931 -1.61584,-0.8977 -1.61584,-0.8977 l -2.96238,-0.0898"
       id="path439" /><path
       style="fill:none;fill-rule:evenodd;stroke:#000000;stroke-width:0.264583px;stroke-linecap:butt;stroke-linejoin:miter;stroke-opacity:1"
       d="m 127.20279,174.42132 2.42376,-0.89768 c 0,0 0.26931,-1.70562 -0.17953,-1.97492 -0.44885,-0.26931 -0.53862,-0.8977 -1.70562,-0.98746 -1.16699,-0.0898 -1.16699,0.35907 -1.25676,-0.26931 -0.0898,-0.62838 0.0898,-0.89769 -0.44885,-1.34654 -0.53861,-0.44884 -0.98746,-1.07723 -1.4363,-1.07723 h -2.42377"
       id="path441"
       sodipodi:nodetypes="ccsssssc" /><path
       style="fill:none;fill-rule:evenodd;stroke:#000000;stroke-width:0.264583px;stroke-linecap:butt;stroke-linejoin:miter;stroke-opacity:1"
       d="m 125.22787,167.68864 c 0,0 1.70561,-1.97491 2.78284,-1.70561 1.07723,0.26931 2.42377,-1.167 3.05215,-1.07723 0.62838,0.0898 2.06469,-0.17953 2.69307,0 0.62839,0.17954 0,0.44885 1.43631,0.8977 1.4363,0.44884 0.89769,-0.44885 2.24422,0.53861 1.34654,0.98746 1.25677,0.80792 2.334,1.97492 1.07723,1.167 0.98746,0.71815 1.52608,1.4363 0.53861,0.71816 0.89769,1.34654 1.16699,2.15446 0.26931,0.80792 0.62839,1.07723 0.80793,2.69308 0.17953,1.61584 0.17953,1.52607 0.17953,2.6033 0,1.07723 -0.44884,4.39868 -0.44884,4.39868 0,0 -0.26931,1.79538 -0.71815,2.96238 -0.44885,1.167 -0.26931,0.53862 -0.71816,1.88515 -0.44884,1.34654 -0.44884,1.88515 -0.71815,3.05215 -0.26931,1.167 -0.35908,-0.0898 -0.44885,2.24423 -0.0898,2.33399 -1.34653,0.44884 -0.0898,3.14192 1.25677,2.69307 1.25677,2.69307 1.25677,2.69307 0,0 0,0.53862 0.26931,0.98746"
       id="path443" /><path
       style="fill:none;fill-rule:evenodd;stroke:#000000;stroke-width:0.264583px;stroke-linecap:butt;stroke-linejoin:miter;stroke-opacity:1"
       d="m 105.74798,166.97049 1.79538,-0.17953 c 0,0 -0.0898,-0.0898 0.26931,0.71815"
       id="path445" /><path
       style="fill:none;fill-rule:evenodd;stroke:#000000;stroke-width:0.264583px;stroke-linecap:butt;stroke-linejoin:miter;stroke-opacity:1"
       d="m 99.553912,170.02264 -1.07723,0.89769 0.448848,0.89769"
       id="path447" /><path
       style="fill:none;fill-rule:evenodd;stroke:#000000;stroke-width:0.264583px;stroke-linecap:butt;stroke-linejoin:miter;stroke-opacity:1"
       d="m 101.52883,171.90779 -1.25676,-0.26931 c 0,0 -0.538619,0.53862 -0.62839,0.98746 -0.08977,0.44885 -0.269306,1.79539 0.08977,2.06469 0.35908,0.26931 0.08977,0.62839 0.71815,0.35908 0.62839,-0.26931 0.89769,-0.53862 1.07723,-0.98746 0.17954,-0.44884 0.17954,-0.44884 0.17954,-0.98746 0,-0.53861 -0.17954,-1.167 -0.17954,-1.167 z"
       id="path449" /><path
       style="fill:none;fill-rule:evenodd;stroke:#000000;stroke-width:0.264583px;stroke-linecap:butt;stroke-linejoin:miter;stroke-opacity:1"
       d="m 107.63313,169.12495 c 0,0 -0.89769,-0.44884 -1.07723,0.0898 -0.17954,0.53861 -0.71815,0 -0.26931,1.07723 0.44885,1.07723 0.44885,1.07723 0.80793,1.34653 0.35907,0.26931 -0.35908,0.98746 0.62838,0.35908 0.98746,-0.62838 1.34653,-0.35908 1.167,-0.80792 -0.17954,-0.44884 -0.71816,-1.25677 -0.71816,-1.25677 l -0.80792,-0.71815"
       id="path451" /><path
       style="fill:none;fill-rule:evenodd;stroke:#000000;stroke-width:0.264583px;stroke-linecap:butt;stroke-linejoin:miter;stroke-opacity:1"
       d="m 117.50773,170.65102 c 0.80792,0.17954 2.42376,0.17954 3.14192,0.44885 0.71815,0.26931 2.51353,0.80792 2.96238,0.98746 0.44884,0.17954 1.167,-0.26931 0.62838,0.26931 -0.53861,0.53861 -1.43631,0.44884 -1.79538,0.80792 -0.35908,0.35908 -0.71815,1.70561 -0.80792,2.24423 -0.0898,0.53861 0,0.44884 -0.71816,1.4363 -0.71815,0.98746 -0.80792,0.98746 -0.80792,0.98746"
       id="path455" /><path
       style="fill:none;fill-rule:evenodd;stroke:#000000;stroke-width:0.264583px;stroke-linecap:butt;stroke-linejoin:miter;stroke-opacity:1"
       d="m 114.45558,187.16854 -0.62838,1.79538 -1.07723,0.0898"
       id="path457" /><path
       style="fill:none;fill-rule:evenodd;stroke:#000000;stroke-width:0.264583px;stroke-linecap:butt;stroke-linejoin:miter;stroke-opacity:1"
       d="m 104.94006,183.57777 c 0,0 0.44884,-0.2693 0.0898,0.62839 -0.35908,0.89769 0.71815,0.17953 -0.80793,1.167"
       id="path459" /><path
       style="fill:none;fill-rule:evenodd;stroke:#000000;stroke-width:0.264583px;stroke-linecap:butt;stroke-linejoin:miter;stroke-opacity:1"
       d="m 145.42591,162.0332 c 0.80792,1.97492 1.70561,2.69307 1.70561,3.50099 0,0.80792 0.53862,1.34653 0.0898,1.97492 -0.44885,0.62838 -0.98746,0 -0.98746,1.25676 0,1.25677 0.35907,0.8977 0,1.97493 -0.35908,1.07722 0.17953,1.25676 -1.07723,1.70561 -1.25677,0.44884 -2.06469,1.07723 -2.06469,1.07723"
       id="path469"
       sodipodi:nodetypes="csssssc" /><path
       style="fill:none;fill-rule:evenodd;stroke:#000000;stroke-width:0.264583px;stroke-linecap:butt;stroke-linejoin:miter;stroke-opacity:1"
       d="m 104.76052,184.92431 4.48845,-0.35908 3.68053,-1.4363 2.42377,-3.501 c 0,0 -1.4363,3.32146 -1.4363,3.94984 0,0.62839 -0.44885,1.79539 -0.80793,2.06469 -0.35907,0.26931 -0.35907,0.44885 -0.80792,0.80792 -0.44884,0.35908 0.44885,-0.0898 -1.07723,0.35908 -1.52607,0.44884 -1.52607,0.35908 -2.96238,0 -1.4363,-0.35908 -3.50099,-1.88515 -3.50099,-1.88515 z"
       id="path471" /><path
       style="fill:none;fill-rule:evenodd;stroke:#000000;stroke-width:0.264583px;stroke-linecap:butt;stroke-linejoin:miter;stroke-opacity:1"
       d="m 111.76251,185.37316 -2.06469,0.35907 c 0,0 -0.89769,0.80792 -0.44885,0.98746 0.44885,0.17954 1.52608,0.26931 1.97492,-0.0898 0.44885,-0.35908 0.89769,-0.71815 0.89769,-0.71815 z"
       id="path473" /><path
       style="fill:none;fill-rule:evenodd;stroke:#000000;stroke-width:0.264583px;stroke-linecap:butt;stroke-linejoin:miter;stroke-opacity:1"
       d="m 137.3467,198.21013 4.57822,0.17954"
       id="path571"
       sodipodi:nodetypes="cc" /><path
       style="fill:#000000;fill-opacity:1;fill-rule:evenodd;stroke:#000000;stroke-width:0.0224791px;stroke-linecap:butt;stroke-linejoin:miter;stroke-opacity:1"
       d="m 107.36954,170.22368 c -0.16514,0.004 -0.3277,0.0755 -0.44178,0.195 -0.11409,0.11946 -0.1783,0.28514 -0.1745,0.45028 0.004,0.16514 0.0756,0.3277 0.195,0.44178 0.11946,0.11409 0.28514,0.1783 0.45028,0.1745 0.16514,-0.004 0.3277,-0.0755 0.44178,-0.195 0.11409,-0.11946 0.1783,-0.28514 0.1745,-0.45028 -0.004,-0.16514 -0.0756,-0.3277 -0.195,-0.44178 -0.11946,-0.11409 -0.28514,-0.1783 -0.45028,-0.1745 z"
       id="path577-6"
       inkscape:path-effect="#path-effect579-2"
       inkscape:original-d="m 107.36954,170.22368 c 0.01,0.42061 0.0194,0.84114 0.029,1.26156 0.01,0.42043 -0.0194,-0.84095 -0.029,-1.26156 z" /><path
       style="fill:#000000;fill-opacity:1;fill-rule:evenodd;stroke:#000000;stroke-width:0.0210803px;stroke-linecap:butt;stroke-linejoin:miter;stroke-opacity:1"
       d="m 100.5472,172.84668 c -0.14491,0.004 -0.28736,0.0673 -0.38713,0.17241 -0.0998,0.10516 -0.15564,0.25074 -0.15183,0.39565 0.004,0.14491 0.0673,0.28736 0.17241,0.38713 0.10516,0.0998 0.25074,0.15564 0.39565,0.15183 0.14491,-0.004 0.28736,-0.0673 0.38713,-0.17241 0.0998,-0.10516 0.15564,-0.25074 0.15183,-0.39565 -0.004,-0.14491 -0.0673,-0.28736 -0.17241,-0.38713 -0.10516,-0.0998 -0.25074,-0.15564 -0.39565,-0.15183 z"
       id="path577-6-0"
       inkscape:path-effect="#path-effect579-2-6"
       inkscape:original-d="m 100.5472,172.84668 c 0.01,0.36909 0.0194,0.73811 0.0291,1.10702 0.01,0.36893 -0.0194,-0.73793 -0.0291,-1.10702 z" /><path
       style="fill:#d3d3d3;fill-opacity:1;stroke:none;stroke-width:0.294985"
       d="m 340.0958,748.69704 c 0.0736,-0.25682 0.28722,-1.51903 0.47476,-2.80491 0.18754,-1.28588 1.12483,-4.62953 2.08285,-7.43032 0.95803,-2.80079 1.74187,-5.16685 1.74187,-5.2579 0,-0.0911 -0.83555,-0.16556 -1.85679,-0.16556 h -1.85679 l -1.04393,-1.40118 c -2.81301,-3.77568 -3.20709,-4.96672 -3.20709,-9.69296 0,-5.74921 0.9955,-10.43979 2.21568,-10.43979 0.35771,0 0.42966,-0.168 0.28427,-0.66371 -0.40741,-1.38898 -1.34758,-3.07451 -2.47221,-4.43216 -1.51186,-1.82513 -1.9066,-3.06259 -1.92781,-6.04353 l -0.0173,-2.43733 1.54868,-1.42522 c 0.85177,-0.78387 1.54867,-1.62426 1.54867,-1.86752 0,-0.24326 -0.27427,-1.22635 -0.60949,-2.18464 -0.33521,-0.95829 -0.78439,-2.63836 -0.99818,-3.7335 l -0.38869,-1.99115 1.6619,-0.0129 c 1.85869,-0.0145 3.61078,-0.54229 4.51517,-1.36018 0.97918,-0.88553 1.70331,-2.59271 3.09808,-7.30391 1.36009,-4.59409 2.63925,-7.84213 3.08842,-7.84213 0.14143,0 1.315,0.6969 2.60794,1.54867 1.63973,1.08024 2.35052,1.72713 2.34989,2.13865 -5e-4,0.32448 -0.46211,1.3139 -1.02581,2.19872 -1.65339,2.59528 -1.30092,3.86635 1.39362,5.02551 0.85718,0.36875 2.53352,0.82121 3.7252,1.00546 l 2.16669,0.33501 -2.11199,2.6498 c -1.16159,1.45739 -2.4009,2.76855 -2.75402,2.91368 -4.4314,1.82132 -6.32368,3.08973 -7.12331,4.77484 -0.45011,0.94852 -0.46852,1.43108 -0.17193,4.50619 0.38723,4.01495 0.91539,6.50209 1.60389,7.55288 0.42239,0.64465 0.70513,0.74833 2.03252,0.74532 0.84803,-0.002 2.26846,-0.19686 3.15651,-0.43318 1.90043,-0.50573 2.61553,-0.21643 3.24976,1.31474 0.36093,0.87137 0.33003,0.97804 -0.54472,1.88056 -1.1568,1.19351 -1.22218,2.17089 -0.16301,2.43672 0.42038,0.10552 3.04206,-0.0259 5.82596,-0.29195 2.78389,-0.26608 6.88684,-0.48263 9.11766,-0.4812 3.86026,0.002 4.05605,-0.0259 4.05605,-0.58738 0,-0.56619 -0.19666,-0.58997 -4.87888,-0.58997 -4.31945,0 -6.87063,0.15902 -12.04816,0.75098 l -1.44032,0.16468 0.7766,-0.92294 c 0.42713,-0.50762 0.7766,-1.19137 0.7766,-1.51945 0,-0.98429 -0.90852,-2.59102 -1.88716,-3.33746 l -0.91919,-0.7011 -2.05652,0.57026 c -2.94494,0.8166 -3.84023,0.76556 -4.2261,-0.24096 -0.57969,-1.51206 -0.71092,-2.2155 -1.08082,-5.79351 -0.40348,-3.9027 -0.3018,-4.51241 0.9485,-5.68762 0.81752,-0.76843 5.19589,-3.04689 5.855,-3.04689 0.27475,0 4.62929,-5.11544 5.66407,-6.65379 0.11528,-0.17138 1.80252,-0.54534 3.74942,-0.83103 1.9469,-0.28568 4.29978,-0.82559 5.2286,-1.19979 2.90758,-1.17141 8.27626,-4.71396 9.47426,-6.25165 l 1.07885,-1.38475 0.0166,1.89206 c 0.0207,2.35282 0.5111,3.83734 1.41625,4.28728 0.4034,0.20052 3.0048,0.43067 6.19469,0.54805 l 5.49925,0.20235 2.26807,1.16135 c 3.98344,2.03968 5.89413,1.99169 9.29912,-0.23358 2.84771,-1.86105 9.9222,-4.61953 15.407,-6.00747 1.74396,-0.44131 4.3315,-3.07009 5.64182,-5.73171 1.67653,-3.40552 1.48394,-8.11112 -0.4538,-11.08806 l -0.68656,-1.05475 5.50111,-3.27273 c 5.61718,-3.34177 9.43008,-5.33309 12.58078,-6.57041 0.97345,-0.38229 1.83628,-0.78367 1.9174,-0.89194 0.14584,-0.19467 2.6471,0.0142 7.22714,0.60358 1.46922,0.18905 5.02044,1.17838 9.40925,2.6213 l 7.04936,2.31765 -1.67695,0.62742 c -0.92232,0.34509 -1.82917,0.62743 -2.01523,0.62743 -0.18605,0 -0.90969,0.27662 -1.60809,0.6147 -1.05223,0.50938 -1.41764,0.92637 -2.13261,2.43363 -0.47455,1.00041 -1.26811,3.47072 -1.76346,5.48958 -0.9464,3.8571 -1.48993,4.90736 -4.40404,8.5098 -0.92915,1.14862 -1.24632,1.78559 -1.17782,2.36535 l 0.0937,0.79343 0.98947,-1.0251 c 1.64526,-1.70452 4.74705,-6.23369 5.03957,-7.3587 0.15099,-0.58065 0.49698,-2.0513 0.76888,-3.26812 0.62249,-2.78579 1.45642,-5.04139 2.22528,-6.01883 0.4207,-0.53483 1.34261,-0.9857 3.13072,-1.53111 1.89808,-0.57895 2.8315,-1.05016 3.71762,-1.87672 1.59172,-1.48474 1.37565,-2.07776 -0.75703,-2.07776 -1.14577,0 -3.10894,-0.51741 -7.31015,-1.92664 -6.9299,-2.32454 -7.24135,-2.39882 -12.28603,-2.93039 -2.19801,-0.23161 -4.0533,-0.47803 -4.12287,-0.5476 -0.0696,-0.0696 0.009,-0.96493 0.17355,-1.98967 0.16504,-1.02474 0.27016,-1.88459 0.23361,-1.91077 -0.0365,-0.0262 -1.21282,-0.667 -2.61395,-1.42403 -2.4273,-1.31148 -2.56301,-1.438 -2.8761,-2.68143 -0.18074,-0.71775 -0.32551,-3.00507 -0.32172,-5.08293 0.006,-3.54979 0.0555,-3.867 0.81133,-5.25286 l 0.80444,-1.47492 2.34674,-0.0872 c 1.77362,-0.0659 3.32247,0.12958 6.34206,0.80058 2.19743,0.4883 4.79179,0.98002 5.76524,1.0927 1.30222,0.15074 2.09855,0.44585 3.01359,1.11682 0.68402,0.50158 1.57438,1.14619 1.97859,1.43248 1.1505,0.81488 1.26001,2.22148 0.34991,4.49485 -0.4234,1.05764 -0.76982,2.00077 -0.76982,2.09585 0,0.0951 0.6969,0.095 1.54867,-7e-5 0.85177,-0.0951 3.24441,-0.25645 5.31697,-0.35856 3.74909,-0.18469 3.77415,-0.18158 4.91639,0.60999 0.63145,0.4376 1.943,1.62345 2.91455,2.63522 1.65674,1.72531 1.77786,1.94833 1.94999,3.5905 0.35261,3.36394 0.19851,3.22406 3.56759,3.2382 1.6182,0.007 3.42364,0.17763 4.01208,0.37963 0.62734,0.21536 1.81706,1.14536 2.87611,2.24826 l 1.8062,1.88097 v 2.67002 c 0,3.10978 0.41031,2.69569 -4.43332,4.4742 -1.86108,0.68336 -3.67194,1.35082 -4.02412,1.48325 -0.44533,0.16745 -0.59485,0.41471 -0.49098,0.81192 0.13876,0.53059 0.55764,0.58646 5.8993,0.78675 l 5.74993,0.21559 3.14781,1.75756 c 1.7313,0.96666 3.39437,1.98053 3.69573,2.25305 0.77903,0.70446 1.42001,2.07857 2.77678,5.95271 1.64915,4.70903 1.80906,5.01475 2.62298,5.01475 0.50389,0 0.69011,-0.16677 0.69011,-0.618 0,-0.60125 0.038,-0.59621 1.40118,0.18594 2.15506,1.23649 3.28398,2.45737 3.76262,4.06916 0.51429,1.73179 0.32037,2.21384 -1.38858,3.4518 -1.40821,1.0201 -2.11952,1.07009 -6.08208,0.42744 -4.47554,-0.72585 -4.45024,-0.14404 0.14381,3.30658 4.44039,3.3352 6.32308,5.07159 7.90511,7.29086 2.63301,3.69357 3.88418,6.17517 5.02917,9.97497 l 1.12737,3.74132 -0.3923,2.96402 c -0.21576,1.63021 -0.46097,2.96402 -0.54489,2.96402 -0.0839,0 -1.055,-0.29064 -2.15794,-0.64586 -1.10294,-0.35523 -2.09132,-0.5599 -2.1964,-0.45482 -0.37102,0.37102 1.47442,6.9575 4.3996,15.70245 3.07082,9.18035 3.09158,9.28021 2.8507,13.71682 -0.0572,1.05457 -0.009,3.04572 0.10615,4.42477 0.11563,1.37906 0.10742,2.6562 -0.0182,2.8381 -0.16758,0.24257 -24.07331,0.36704 -89.68699,0.46695 -81.50278,0.12411 -89.44662,0.0947 -89.32474,-0.33072 z m 89.57297,-33.83385 c 1.05367,-0.17432 1.05699,-0.17972 2.29341,-3.73591 1.20282,-3.45952 1.2426,-4.02152 0.28615,-4.04312 -0.21528,-0.005 -1.03078,2.06689 -1.87786,4.77067 l -0.52565,1.67783 -1.86932,0.20019 c -1.56325,0.16741 -1.86931,0.29115 -1.86931,0.75579 0,0.45751 0.22136,0.55504 1.25369,0.55236 0.68953,-0.002 1.72853,-0.0818 2.30889,-0.17781 z m -8.44435,-8.36046 3.23033,-0.88296 2.16489,-2.14617 c 2.40956,-2.38872 3.37323,-4.08363 4.07147,-7.16092 0.25768,-1.13569 0.65813,-2.90541 0.88987,-3.9327 0.23174,-1.0273 1.41773,-4.37482 2.63552,-7.43894 1.2178,-3.06412 2.21418,-5.69392 2.21418,-5.84399 0,-0.25184 -0.8993,-0.74691 -1.02482,-0.56417 -0.0305,0.0444 -2.07365,3.00794 -4.54036,6.58569 l -4.48494,6.505 -6.8481,2.66975 -6.84809,2.66977 -6.63717,0.49775 c -3.65044,0.27376 -6.99064,0.5532 -7.42265,0.62098 -1.21503,0.19062 -1.5026,-0.40946 -0.95973,-2.00268 0.63806,-1.87261 0.48028,-2.69215 -0.54093,-2.80965 -0.84578,-0.0973 -0.98187,0.10451 -0.54051,0.80161 0.16172,0.25542 0.10366,0.86113 -0.15201,1.58576 -0.22752,0.64486 -0.41367,1.47841 -0.41367,1.85234 0,0.47838 -0.1967,0.70987 -0.66372,0.78112 -0.37067,0.0566 -0.62567,0.27743 -0.57754,0.50027 0.0474,0.21945 -0.18491,0.58887 -0.51623,0.82093 -0.66774,0.4677 -0.71409,0.6403 -0.33339,1.24149 0.21424,0.33834 0.41602,0.29942 1.14721,-0.22123 0.48799,-0.34748 0.96175,-0.63178 1.0528,-0.63178 0.091,0 1.28842,0.73192 2.66081,1.62649 5.08567,3.31501 10.85481,5.64788 15.07667,6.09657 1.38703,0.14741 3.85064,-0.26107 7.36011,-1.22033 z"
       id="path2799"
       transform="scale(0.26458333)" /><path
       style="fill:#ff8080;fill-opacity:1;stroke:none;stroke-width:0.294985"
       d="m 409.76633,705.57333 c -1.1182,-0.31871 -2.9766,-1.01659 -4.1298,-1.55087 -2.28288,-1.05766 -7.66803,-4.30168 -7.46985,-4.49985 0.0675,-0.0675 3.45876,-0.39751 7.53611,-0.73331 l 7.41335,-0.61055 7.01125,-2.72438 7.01125,-2.72439 2.62894,-3.74097 c 1.44591,-2.05753 2.67675,-3.69315 2.7352,-3.6347 0.0585,0.0584 -0.34234,1.28693 -0.89064,2.72996 -0.96931,2.55106 -1.27096,3.66448 -1.9895,7.34346 -0.55984,2.8664 -1.50262,4.59942 -3.82797,7.03656 -1.56302,1.63818 -2.35433,2.25547 -2.89127,2.25547 -0.68828,0 -0.65516,-0.0646 0.48013,-0.93718 1.1958,-0.91907 1.21049,-0.95224 0.75954,-1.71565 -0.25292,-0.42816 -0.69207,-1.08632 -0.97588,-1.46258 l -0.51603,-0.68411 -3.80346,0.64803 c -2.0919,0.35641 -4.0978,0.76777 -4.45757,0.91414 -1.11316,0.45286 -2.50541,2.65072 -2.37771,3.75358 0.061,0.52728 0.0381,0.94927 -0.051,0.93775 -0.0891,-0.0115 -1.0769,-0.28171 -2.19509,-0.60041 z"
       id="path2872"
       transform="scale(0.26458333)" /><path
       style="fill:#ff5555;fill-opacity:1;stroke:none;stroke-width:0.294985"
       d="m 413.79056,705.31501 c -0.84469,-0.35794 -0.82758,-0.52605 0.17681,-1.73695 0.76961,-0.92785 1.03984,-1.03105 4.04811,-1.54606 3.99825,-0.68448 4.16689,-0.68461 4.53142,-0.003 0.25231,0.47143 0.0248,0.76696 -1.53308,1.99115 -1.81242,1.42424 -1.85127,1.4382 -4.19445,1.50707 -1.3008,0.0382 -2.66377,-0.0571 -3.02881,-0.21173 z"
       id="path2943"
       transform="scale(0.26458333)" /><path
       style="fill:#ffccaa;fill-opacity:1;stroke:none;stroke-width:0.294985"
       d="m 356.56623,680.80902 c -1.89422,-0.33377 -4.09622,-1.33548 -4.34165,-1.97507 -0.10539,-0.27465 0.19012,-1.07245 0.70265,-1.89693 1.2225,-1.9666 1.66092,-3.5142 1.22584,-4.32715 -0.18646,-0.34841 -0.47309,-0.63347 -0.63695,-0.63347 -0.16386,0 -1.28607,-0.66679 -2.4938,-1.48176 l -2.19587,-1.48176 2.28294,-2.87042 c 2.9953,-3.7661 4.64485,-6.10209 6.68321,-9.46431 3.63749,-5.99998 14.12188,-17.7616 17.24237,-19.34287 0.75235,-0.38124 3.09319,-1.77451 5.20186,-3.09616 4.58502,-2.87373 9.24357,-5.29654 12.47526,-6.4881 4.70212,-1.73373 5.41153,-1.79232 21.70044,-1.79232 13.26935,0 15.24224,-0.0609 18.22777,-0.56239 1.84135,-0.30932 4.31024,-0.65465 5.48644,-0.7674 l 2.13854,-0.20499 -0.73381,1.28362 c -0.69242,1.21122 -0.73368,1.53314 -0.73167,5.70839 10e-4,2.58768 0.15589,5.01761 0.37246,5.85265 0.35893,1.38399 0.44263,1.4656 2.72292,2.65487 l 2.35261,1.22699 -0.0698,1.47493 c -0.095,2.00578 -0.31234,2.80236 -0.76468,2.80236 -0.72888,0 -10.99204,5.27699 -15.04674,7.73656 l -4.08185,2.47603 -1.74582,-1.70828 c -0.96021,-0.93957 -2.08487,-1.93045 -2.49927,-2.20197 -0.67254,-0.44067 -0.80135,-0.44576 -1.19967,-0.0474 -0.39832,0.39832 -0.17472,0.69339 2.08248,2.74815 1.3908,1.26605 2.93875,2.94089 3.4399,3.72186 1.22066,1.90223 1.84632,4.38292 1.653,6.55406 -0.31854,3.5776 -3.47635,8.0673 -6.13657,8.72485 -5.28485,1.30629 -13.05231,4.41442 -16.19141,6.47895 -1.7574,1.15581 -2.0452,1.25088 -3.44874,1.13917 -1.08397,-0.0863 -2.30644,-0.52455 -4.1845,-1.50023 l -2.65317,-1.37835 -4.96004,-0.004 c -2.72803,-0.002 -5.2566,-0.0835 -5.61906,-0.18067 -1.09824,-0.29437 -1.66886,-3.8452 -0.99532,-6.19367 0.14468,-0.50449 0.16125,-1.08198 0.0368,-1.28331 -0.39942,-0.64628 -1.29154,-0.0388 -2.80726,1.91158 -1.53199,1.97129 -3.96958,3.76892 -8.21815,6.06057 -1.74624,0.94191 -2.78087,1.25893 -5.66136,1.73472 -4.7088,0.77777 -6.75915,0.91892 -8.61031,0.59274 z m 24.0483,-18.97881 c 2.63016,-1.33584 3.97744,-3.23771 4.38141,-6.18497 0.21457,-1.56546 -0.40031,-5.95657 -0.88635,-6.32982 -0.18358,-0.14097 -1.45777,-0.49339 -2.83153,-0.78316 l -2.49776,-0.52684 -0.94551,1.09379 c -1.40527,1.62566 -1.82923,2.74084 -2.14725,5.64801 -0.35082,3.20699 -0.11052,4.56618 1.12945,6.38847 1.12014,1.64619 1.711,1.75425 3.79754,0.69452 z m 26.82891,-11.16649 c 0.92525,-0.52729 2.35023,-1.23154 3.16662,-1.56501 1.19098,-0.48648 1.50241,-0.75953 1.57579,-1.38159 0.15816,-1.34093 -2.32828,-5.57098 -4.12191,-7.01238 -0.79606,-0.63973 -1.1378,-1.12187 -1.04546,-1.47497 0.28647,-1.09548 -3.47782,-1.70771 -4.27824,-0.69582 -0.2092,0.26447 -0.81177,0.90443 -1.33906,1.42213 -0.52729,0.5177 -0.9587,1.23349 -0.9587,1.59066 0,1.22341 2.17917,6.02803 3.17109,6.99159 0.65912,0.64028 0.9587,1.2062 0.9587,1.81104 0,1.59291 0.52646,1.65055 2.87117,0.31435 z m -33.69736,-2.87656 c -0.40547,-0.80017 -0.73723,-1.50491 -0.73723,-1.56608 0,-0.0612 0.79646,-0.75004 1.76991,-1.53081 1.72338,-1.38228 2.0917,-1.9787 1.46218,-2.36777 -0.3249,-0.2008 -1.36465,0.51747 -3.48543,2.40778 l -1.28579,1.14606 0.9712,1.96948 c 0.838,1.69939 1.04465,1.93018 1.5068,1.68285 0.50751,-0.27161 0.49694,-0.36295 -0.20164,-1.74151 z m 34.0251,-14.71418 c 0.3273,-0.20744 0.3131,-0.4127 -0.0813,-1.17543 -0.26283,-0.50825 -0.38306,-0.9241 -0.26718,-0.9241 0.11588,0 -0.0866,-0.27698 -0.44999,-0.61551 -0.63057,-0.58747 -0.79489,-0.60091 -3.60701,-0.29499 -1.62049,0.17629 -3.14025,0.32053 -3.37725,0.32053 -0.24295,0 -0.43091,0.27393 -0.43091,0.62802 0,0.60998 0.0784,0.62222 2.72862,0.42621 1.50073,-0.111 2.92772,-0.25804 3.17109,-0.32676 0.29264,-0.0826 0.60986,0.27248 0.93679,1.04872 0.51097,1.21319 0.70302,1.34056 1.37716,0.91331 z"
       id="path3014"
       transform="scale(0.26458333)" /><ellipse
       style="fill:url(#radialGradient5013-2);fill-opacity:1;stroke:none;stroke-width:0.708343"
       id="path3287-3"
       cx="107.31624"
       cy="176.03769"
       rx="7.0243368"
       ry="3.7853367" /><circle
       style="fill:url(#radialGradient5013-0);fill-opacity:1;stroke:none;stroke-width:0.264583"
       id="path3287-0"
       cx="112.77962"
       cy="169.4426"
       r="1.6390117" /><path
       style="fill:#ff0000;fill-opacity:1;stroke:none;stroke-width:0.294985"
       d="m 301.03245,709.08149 c -0.40695,-0.15963 -2.1579,-0.22626 -3.90686,-0.14866 l -3.16939,0.14062 -0.87597,-2.84056 c -4.43552,-14.38333 -3.89378,-11.91594 -6.09396,-27.7552 l -2.01195,-14.48411 1.12298,-8.02924 1.12297,-8.02924 4.59614,-15.04424 4.59613,-15.04425 8.55206,-11.65192 c 4.70363,-6.40855 8.89576,-12.03139 9.31585,-12.49518 1.01754,-1.12341 9.7832,-8.92499 13.29243,-11.83049 1.53677,-1.27238 3.52792,-2.63789 4.42478,-3.03448 0.89687,-0.39659 5.65446,-2.56834 10.57245,-4.8261 10.20489,-4.6849 9.54172,-4.50985 22.76912,-6.01017 3.65045,-0.41405 8.89381,-1.02945 11.65192,-1.36755 5.6213,-0.68909 7.25716,-0.56544 11.20944,0.84725 2.03431,0.72714 7.12164,3.14345 8.84956,4.20324 0.48672,0.29852 3.14159,1.46809 5.8997,2.59903 11.51706,4.72249 10.99307,4.42619 15.07869,8.52666 3.48947,3.50215 9.2576,9.97493 9.2576,10.38853 0,0.38631 -2.8214,1.20266 -4.1298,1.19493 -1.72987,-0.0102 -5.62985,-0.88568 -9.14454,-2.05273 -2.48047,-0.82365 -3.38889,-0.96148 -7.90862,-1.19992 -2.80845,-0.14817 -5.22063,-0.34008 -5.36042,-0.42647 -0.13978,-0.0864 -1.1364,-0.17031 -2.21469,-0.18649 -1.67715,-0.0252 -2.06792,0.0712 -2.70342,0.66687 -1.09805,1.02916 -3.40539,4.25677 -4.63773,6.48745 -1.36648,2.4735 -3.10827,4.46148 -4.47875,5.11182 -1.81613,0.86181 -4.54246,1.06997 -9.96581,0.76092 -4.11682,-0.2346 -5.43824,-0.20924 -7.08344,0.13594 -3.13592,0.65796 -3.67516,1.09405 -5.29868,4.2852 -1.62605,3.19612 -1.77618,4.2127 -0.82037,5.55501 0.37098,0.52099 0.60731,1.12236 0.52519,1.33638 -0.224,0.58372 -5.67892,2.87761 -12.07103,5.07607 -6.82122,2.34606 -10.33997,4.00521 -12.90848,6.0866 -1.05458,0.85456 -4.21313,2.77853 -7.019,4.27547 -6.19746,3.30637 -7.84709,4.38124 -9.59995,6.25519 -1.428,1.52665 -1.44674,1.5757 -1.92201,5.02958 -0.25251,1.83506 -0.71642,3.0454 -2.7545,7.18642 -2.35759,4.7902 -2.44967,5.05421 -2.41956,6.93782 0.0238,1.48859 0.35978,2.93777 1.40118,6.04358 0.75343,2.247 1.36988,4.25136 1.36988,4.45413 0,0.20278 0.39582,0.95282 0.87959,1.66676 1.25471,1.85167 1.25681,3.9575 0.005,5.38281 -0.62842,0.71573 -0.88496,1.31199 -0.88496,2.05689 0,1.04002 -0.83921,2.74617 -5.75736,11.70499 -1.02426,1.86578 -3.81449,7.64012 -6.2005,12.83186 -2.38601,5.19174 -4.35522,9.45724 -4.37601,9.47889 -0.0208,0.0217 -0.36967,-0.0908 -0.77527,-0.24991 z"
       id="path3085"
       transform="scale(0.26458333)" /><path
       style="fill:#ff0000;fill-opacity:1;stroke:none;stroke-width:0.294985"
       d="m 524.13191,748.7475 c -3.10729,-0.0884 -3.31453,-0.13246 -3.51917,-0.74815 -0.1196,-0.35982 -0.23254,-3.24271 -0.25098,-6.40643 l -0.0335,-5.75221 -2.97906,-8.84956 c -2.83994,-8.43632 -4.16191,-12.99059 -3.85877,-13.29373 0.0764,-0.0764 0.9551,0.11505 1.9526,0.42551 0.99751,0.31046 1.81365,0.53049 1.81365,0.48895 0,-0.0415 0.25772,-1.75443 0.57272,-3.80644 l 0.57272,-3.73093 -1.20939,-4.05348 c -1.00261,-3.36041 -1.54185,-4.59563 -3.15384,-7.22435 -2.78885,-4.54786 -4.00583,-5.93769 -7.81091,-8.92031 -1.86056,-1.45841 -3.33931,-2.69519 -3.2861,-2.7484 0.0532,-0.0532 1.12478,0.0462 2.38127,0.221 2.18718,0.30421 2.33752,0.28668 3.52874,-0.41141 1.59025,-0.93195 3.09505,-2.64213 3.09505,-3.51746 0,-1.05234 -0.74965,-3.29573 -1.40974,-4.2188 -0.32747,-0.45791 -2.00159,-1.6954 -3.72027,-2.74997 -2.85135,-1.74957 -3.16789,-2.0336 -3.61624,-3.24484 -1.83493,-4.95721 -2.29956,-5.98438 -3.03467,-6.70888 -0.45384,-0.44729 -2.33613,-1.63606 -4.18288,-2.64173 l -3.35773,-1.82848 -4.10311,-0.23642 -4.10311,-0.23641 2.87445,-1.03245 c 1.61123,-0.57872 2.99794,-1.25987 3.15547,-1.54996 0.43072,-0.79316 0.35694,-6.2725 -0.0953,-7.07634 -0.53981,-0.95954 -3.42873,-3.58171 -4.66057,-4.23025 -0.78098,-0.41116 -1.75094,-0.5543 -3.98231,-0.58769 l -2.94985,-0.0441 -0.16788,-1.88413 c -0.0923,-1.03627 -0.31491,-2.1559 -0.4946,-2.48805 -0.17969,-0.33215 -1.36568,-1.59654 -2.63553,-2.80974 l -2.30882,-2.20583 2.28118,-2.13108 c 1.25465,-1.17209 3.04716,-2.62354 3.98336,-3.22544 1.60109,-1.02938 1.87969,-1.10445 4.69145,-1.26416 3.18886,-0.18113 2.92025,-0.084 8.81013,-3.18602 l 1.76992,-0.93216 5.37859,-0.0804 5.37859,-0.0804 1.17562,1.20923 c 1.73319,1.78273 3.94282,2.57797 7.29617,2.62586 2.62115,0.0374 2.7659,0.0758 4.42477,1.17302 3.68528,2.4375 5.96148,4.30413 8.79463,7.21215 1.62242,1.66529 3.51599,3.42109 4.20793,3.90179 1.23985,0.86133 3.69275,4.03294 4.83701,6.25427 1.01364,1.96777 3.77743,9.00886 4.10423,10.45604 1.31017,5.80183 1.4486,13.55613 0.40649,22.76907 -0.89695,7.92959 -1.87101,13.02029 -3.21786,16.81745 -0.5467,1.5413 -1.66826,4.70125 -2.49236,7.02211 -0.83862,2.36177 -1.90414,6.19334 -2.41996,8.70207 -0.50688,2.46527 -1.22342,5.2124 -1.5923,6.10473 -0.49501,1.19743 -0.72396,2.51104 -0.874,5.01475 -0.25528,4.25973 -0.5153,5.27257 -1.62704,6.33768 -0.49281,0.47214 -0.88966,1.15997 -0.88966,1.54199 0,1.09424 0.89583,3.34103 3.91517,9.81944 1.5501,3.32596 2.91101,6.54499 3.02425,7.1534 l 0.20588,1.10619 -3.64639,-0.063 c -2.00552,-0.0347 -5.13218,-0.10533 -6.94812,-0.157 z"
       id="path3156"
       transform="scale(0.26458333)" /><path
       style="fill:#ff0000;fill-opacity:1;stroke:none;stroke-width:0.294985"
       d="m 549.70501,610.82808 c 0,-0.83774 -3.5473,-7.50423 -4.53114,-8.51543 -0.64786,-0.66587 -2.62054,-1.86483 -5.14699,-3.12825 -3.56126,-1.7809 -4.36253,-2.0689 -6.13249,-2.20418 -2.37963,-0.18187 -4.5872,-0.96203 -7.22365,-2.55282 -1.60495,-0.9684 -1.90604,-1.28175 -1.98469,-2.06546 -0.12122,-1.208 -1.20509,-1.75174 -5.6595,-2.83915 -1.86578,-0.45547 -4.51236,-1.20478 -5.8813,-1.66514 -1.36893,-0.46035 -2.79309,-0.837 -3.16481,-0.837 -0.37171,0 -2.5399,0.59734 -4.8182,1.32743 -4.48651,1.43772 -4.71976,1.48742 -4.71976,1.00556 0,-0.17704 -1.18919,-1.58896 -2.64264,-3.1376 -4.29,-4.57096 -4.29196,-4.5749 -4.27609,-8.61158 0.01,-2.46691 0.1702,-3.94826 0.57786,-5.33307 0.88503,-3.00648 0.78149,-4.33624 -0.48443,-6.22177 -0.5891,-0.87744 -2.33397,-2.95158 -3.87749,-4.60921 -3.88684,-4.1742 -4.33339,-5.01646 -4.94449,-9.32591 -0.46662,-3.29062 0.89107,-7.38863 2.81542,-8.49798 1.02336,-0.58995 6.82452,-1.48141 9.48565,-1.45767 2.43984,0.0218 5.87126,1.12694 10.5857,3.40937 3.58717,1.73667 4.00582,2.03016 6.19469,4.34258 2.18151,2.30464 2.48784,2.79304 4.33162,6.90599 2.41062,5.37742 2.88317,6.68251 2.88317,7.96276 0,1.17276 0.45478,1.52973 3.32531,2.61011 2.39278,0.90056 2.46536,0.90575 2.65258,0.18982 0.12403,-0.47432 -0.22769,-0.6958 -2.25173,-1.4179 -2.32821,-0.83061 -2.40128,-0.88563 -2.48555,-1.87151 -0.0477,-0.55865 -0.29357,-1.65486 -0.54628,-2.43602 -0.2527,-0.78116 -0.41275,-1.44488 -0.35566,-1.47493 0.0571,-0.03 0.9292,-0.4802 1.93802,-1.00033 1.00882,-0.52012 4.52652,-2.65985 7.81711,-4.75494 3.29059,-2.09509 6.51387,-4.07701 7.16283,-4.40427 1.56007,-0.78669 8.73932,-3.08949 13.71682,-4.39976 2.19026,-0.57657 4.57964,-1.39844 5.30973,-1.82639 l 1.32743,-0.77809 8.12861,-0.1007 8.12861,-0.1007 4.70325,1.97784 c 2.58679,1.08781 5.25047,2.2133 5.9193,2.50109 1.86952,0.80443 3.54612,2.48979 4.20428,4.22622 0.31806,0.83916 1.76882,3.99398 3.2239,7.01071 1.45509,3.01673 2.725,5.87071 2.82204,6.34218 0.097,0.47147 0.32151,2.62687 0.49884,4.78977 0.29975,3.65609 0.27743,4.12267 -0.31748,6.63716 -0.8897,3.76052 -1.36448,4.99999 -2.41291,6.29921 -0.49939,0.61885 -1.35216,2.08977 -1.89504,3.26871 -1.35315,2.93856 -1.93187,3.64931 -4.90418,6.02296 -2.1734,1.73567 -3.21101,2.31331 -6.59436,3.67109 -2.20832,0.88622 -5.88005,2.54556 -8.1594,3.68741 -2.27936,1.14185 -5.13623,2.45806 -6.34861,2.92491 -1.21239,0.46684 -3.08354,1.36901 -4.15811,2.00482 -1.07458,0.63581 -3.28121,1.82036 -4.90363,2.63234 -1.62242,0.81199 -3.76453,2.08895 -4.76025,2.83771 -1.94842,1.46516 -2.17191,1.566 -2.17191,0.98001 z"
       id="path3158"
       transform="scale(0.26458333)" /><path
       style="fill:#f9f9f9;fill-opacity:1;stroke:none;stroke-width:0.294985"
       d="m 335.54572,685.27762 c 0,-0.14746 -0.6969,-0.25015 -1.54867,-0.22821 -2.48342,0.064 -8.18584,-0.44834 -8.18584,-0.73542 0,-0.14454 0.33186,-0.9177 0.73746,-1.71812 0.76989,-1.5193 0.94391,-3.2534 0.45543,-4.53821 -0.19919,-0.52391 -0.63422,-0.83664 -1.48098,-1.06465 -0.65943,-0.17757 -1.67935,-0.64886 -2.26651,-1.04731 -1.22713,-0.83276 -2.06181,-0.91152 -2.96388,-0.27969 -0.5838,0.40891 -0.65038,0.3963 -0.82581,-0.15643 -0.13563,-0.42733 0.0717,-0.90016 0.71686,-1.63497 1.30661,-1.48816 1.38239,-4.53362 0.15742,-6.32673 -0.38934,-0.56989 -1.37538,-3.13176 -2.19121,-5.69303 -2.10065,-6.59493 -2.08724,-6.79317 0.85653,-12.65918 2.29813,-4.57947 2.96988,-6.55942 2.96988,-8.75359 0,-2.50995 2.4987,-4.64691 10.22487,-8.74459 3.04515,-1.61504 6.40401,-3.63895 7.46414,-4.49758 2.56108,-2.07431 6.14486,-3.78542 12.39949,-5.92029 9.55126,-3.26009 13.56932,-5.22899 13.56932,-6.64916 0,-0.18382 -0.33186,-0.82259 -0.73746,-1.41949 -0.40561,-0.5969 -0.73747,-1.29408 -0.73747,-1.5493 0,-0.25521 0.59217,-1.6431 1.31594,-3.0842 1.20799,-2.40527 1.42039,-2.66008 2.58946,-3.10655 1.97177,-0.75303 3.89936,-0.92404 7.4405,-0.66012 1.79073,0.13346 4.71605,0.1861 6.50071,0.11696 5.39291,-0.2089 7.24293,-1.43448 10.57342,-7.0045 0.9177,-1.53478 2.24137,-3.52061 2.94149,-4.41294 1.48364,-1.89093 0.71938,-1.79287 9.78892,-1.25599 4.6552,0.27557 5.64696,0.42701 8.04532,1.22849 2.743,0.91665 6.69266,1.86548 9.25275,2.22279 1.05846,0.14773 1.84849,0.0235 3.48408,-0.54796 1.16336,-0.40646 3.6062,-1.00595 5.42851,-1.33222 1.82232,-0.32626 3.8699,-0.78958 4.55019,-1.0296 l 1.23689,-0.4364 0.60877,2.00421 0.60875,2.00421 7.13869,0.20949 c 7.86496,0.2308 9.25639,0.40002 10.15945,1.23554 0.33569,0.31059 0.95485,0.8032 1.37591,1.0947 0.95101,0.65838 0.96228,1.35714 0.0529,3.27949 -1.1584,2.44864 -2.32842,10.39312 -1.82566,12.39626 0.16868,0.67207 0.33794,0.7559 1.52618,0.7559 1.62011,0 2.69592,0.52045 3.89221,1.88296 1.71482,1.95307 1.66632,2.14988 -1.48389,6.02147 l -1.7512,2.15221 -1.37114,-0.18781 c -0.75413,-0.1033 -3.16318,-0.5978 -5.35344,-1.0989 -3.50235,-0.80129 -4.49782,-0.909 -8.25959,-0.89373 -3.02415,0.0123 -5.48721,0.2182 -8.40708,0.70289 -3.85965,0.64068 -5.21036,0.69688 -20.64897,0.85909 -15.80431,0.16605 -16.60853,0.20103 -18.58407,0.80826 -4.62029,1.42016 -9.13592,3.63601 -15.7284,7.71803 -2.05734,1.27389 -4.33797,2.61442 -5.06806,2.97893 -2.4037,1.20013 -12.78978,12.43777 -15.81318,17.1097 -4.39316,6.78859 -6.00174,9.09777 -8.28073,11.88735 -3.61867,4.42942 -4.39024,5.76303 -5.58108,9.64657 -0.57211,1.86579 -1.3837,4.50093 -1.80353,5.85589 -0.96929,3.12829 -1.70899,4.03019 -3.64614,4.44563 -1.80975,0.38812 -3.51841,0.41233 -3.51841,0.0498 z"
       id="path3160"
       transform="scale(0.26458333)" /><path
       style="fill:#f9f9f9;fill-opacity:1;stroke:none;stroke-width:0.294985"
       d="m 304.36913,749.58325 c -0.84181,-0.1024 -1.5781,-0.24964 -1.63619,-0.3272 -0.0581,-0.0775 -0.52962,-1.98713 -1.04783,-4.2435 -0.51822,-2.25637 -1.00369,-4.16397 -1.07882,-4.2391 -0.0751,-0.0751 -0.64052,0.25836 -1.2564,0.74111 -1.74406,1.36702 -5.7589,3.61818 -6.45286,3.61818 -0.34409,0 -1.17651,-0.39906 -1.84982,-0.8868 l -1.2242,-0.88681 -0.0167,-4.64417 c -0.0184,-5.1437 -0.30263,-6.50199 -1.47811,-7.06459 -0.41651,-0.19934 -2.04866,-0.45322 -3.627,-0.56417 -2.31957,-0.16305 -2.92367,-0.30257 -3.15126,-0.72781 -0.32251,-0.60262 -0.35149,-7.2029 -0.0394,-8.97196 l 0.20817,-1.17994 2.65093,-0.16637 c 3.07898,-0.19323 3.77243,0.0153 6.59424,1.98281 1.03313,0.72035 1.93359,1.25455 2.00103,1.18711 0.0674,-0.0674 -0.14075,-1.10268 -0.46264,-2.30055 -0.32189,-1.19786 -0.73051,-3.00816 -0.90805,-4.02289 -0.3926,-2.24399 0.0326,-3.3854 1.83653,-4.92946 0.64431,-0.5515 1.09505,-1.12637 1.00166,-1.27748 -0.18971,-0.30695 2.1134,-0.64368 4.42931,-0.6476 1.37597,-0.002 1.66805,0.12473 3.14878,1.36969 0.89766,0.75474 1.87146,1.81669 2.16399,2.35989 0.68142,1.26531 1.716,1.35688 2.01187,0.17806 0.69021,-2.75001 3.05432,-2.67299 6.89996,0.22478 2.32411,1.75127 2.68365,2.28469 2.69129,3.9928 0.004,0.85668 -0.0976,0.93337 -2.07841,1.57133 -1.74458,0.56188 -2.06763,0.76647 -1.99115,1.26101 0.0685,0.44292 0.71735,0.82595 2.59866,1.53402 3.15626,1.18793 4.95272,2.18984 5.67242,3.16358 0.52563,0.71116 0.54346,1.03375 0.27235,4.92876 -0.15955,2.29228 -0.37554,4.30604 -0.47997,4.47502 -0.10593,0.17139 -1.32341,0.31864 -2.75359,0.33303 -1.41004,0.0142 -3.69203,0.18194 -5.07109,0.37279 -2.17842,0.30147 -2.51893,0.42734 -2.59544,0.95939 -0.059,0.41047 0.31436,0.97596 1.13242,1.71503 0.70839,0.63998 1.59155,1.89557 2.10483,2.99242 0.82465,1.76224 0.87038,2.03872 0.67754,4.09656 -0.11373,1.21373 -0.35756,2.38957 -0.54183,2.61298 -0.18427,0.22341 -1.02336,0.69265 -1.86465,1.04275 -1.57197,0.65419 -3.31941,0.75307 -6.49064,0.3673 z"
       id="path3231"
       transform="scale(0.26458333)" /><path
       style="fill:#f9f9f9;fill-opacity:1;stroke:none;stroke-width:0.294985"
       d="m 540.90775,654.05568 c -3.06546,-8.28126 -5.51481,-12.48092 -8.92432,-15.30168 -1.23419,-1.02107 -2.99904,-2.71651 -3.92189,-3.76765 -1.92141,-2.18852 -4.10412,-3.98451 -8.27924,-6.81237 l -2.93157,-1.98559 -1.94204,0.19136 c -2.80764,0.27666 -5.58861,-0.61739 -7.29066,-2.34387 -0.70165,-0.71171 -1.66391,-1.36037 -2.18923,-1.47575 -0.51553,-0.11323 -3.31879,-0.10927 -6.22948,0.009 l -5.29217,0.21468 -1.82083,1.00924 c -4.74942,2.63249 -5.48345,2.89392 -8.1731,2.91084 -2.32574,0.0146 -2.66601,0.0975 -4.46807,1.08802 l -1.95062,1.07218 -0.61045,-0.64979 c -0.61121,-0.6506 -1.51535,-2.82955 -1.51535,-3.65194 0,-0.24057 0.90712,-1.8709 2.01583,-3.62297 l 2.01583,-3.18558 -0.3655,-2.85263 c -0.34815,-2.71717 -0.33155,-2.97408 0.34951,-5.41073 0.39325,-1.40696 1.05459,-3.87641 1.46965,-5.48766 1.0712,-4.15842 2.09467,-6.59049 2.87483,-6.83146 0.3503,-0.1082 1.26175,-0.77703 2.02544,-1.48629 1.14952,-1.06759 1.58772,-1.28958 2.54558,-1.28958 1.49656,0 7.97873,-1.63183 9.95635,-2.50643 0.84234,-0.37252 1.9775,-0.77056 2.52259,-0.88452 0.54509,-0.11396 2.8146,-0.7982 5.04335,-1.52053 l 4.05228,-1.31333 2.87987,0.92301 c 1.58393,0.50765 4.27368,1.25872 5.97722,1.66905 3.87543,0.93346 4.65219,1.32014 4.77366,2.37637 0.19632,1.70708 5.79632,4.56796 10.04146,5.12989 2.07688,0.27491 3.0021,0.60723 6.19499,2.22512 2.70066,1.36846 4.03763,2.23391 4.76656,3.0855 1.09634,1.28084 2.55855,4.10649 3.99092,7.71227 1.06912,2.69136 2.93925,6.38534 5.15745,10.18728 1.14685,1.96568 1.65684,3.18271 1.79237,4.27729 0.10419,0.84144 0.40527,2.40611 0.66907,3.47705 0.65896,2.67512 0.27452,3.61955 -1.85715,4.56228 -1.19015,0.52634 -1.60896,0.89167 -1.86536,1.62718 -0.42285,1.213 -0.42212,3.5513 0.002,5.66198 0.28788,1.43346 0.24838,1.98453 -0.29498,4.11481 -0.34506,1.35282 -0.62738,2.76278 -0.62738,3.13323 0,1.22288 -0.55321,1.74439 -2.87051,2.70602 -2.77733,1.15255 -5.55535,2.52831 -6.61404,3.27548 l -0.78248,0.55224 -0.30015,-0.81084 z"
       id="path3233"
       transform="scale(0.26458333)" /><circle
       style="fill:url(#radialGradient5013);fill-opacity:1;stroke:none;stroke-width:0.264583"
       id="path3287"
       cx="96.935837"
       cy="176.85718"
       r="1.6390117" /><path
       style="fill:#ff0000;fill-rule:evenodd;stroke:#b40000;stroke-width:0.264583px;stroke-linecap:butt;stroke-linejoin:miter;stroke-opacity:1;fill-opacity:1"
       d="m 125.50147,167.3353 c 0.37356,-0.45916 0.92315,-0.77133 1.50883,-0.85704 0.58569,-0.0857 1.20169,0.0559 1.69115,0.38875 0.17581,0.11956 0.335,0.26209 0.5099,0.38296 0.1749,0.12088 0.3711,0.22147 0.58277,0.24142 0.15619,0.0147 0.31426,-0.0154 0.46156,-0.0694 0.1473,-0.054 0.28487,-0.13136 0.41852,-0.21352 0.2673,-0.16432 0.53037,-0.35286 0.83698,-0.4195 0.0925,-0.0201 0.18805,-0.0286 0.28205,-0.0176 0.094,0.0109 0.18648,0.0418 0.26429,0.0956 0.07,0.0485 0.1265,0.1141 0.1754,0.18379 0.0489,0.0697 0.0909,0.14395 0.13725,0.21535 0.0464,0.0714 0.0977,0.14056 0.16212,0.19623 0.0644,0.0557 0.14307,0.0975 0.22766,0.10706 0.0738,0.008 0.14884,-0.008 0.21698,-0.0375 0.0681,-0.0295 0.13002,-0.0716 0.18916,-0.11652 0.11828,-0.0898 0.23204,-0.19386 0.37434,-0.23623 0.11234,-0.0334 0.23437,-0.0248 0.34649,0.009 0.11212,0.0342 0.21533,0.0928 0.3122,0.15881 0.19374,0.13198 0.37012,0.29715 0.59009,0.37819 0.21038,0.0775 0.44266,0.0706 0.66437,0.0373 0.22171,-0.0333 0.43946,-0.092 0.66245,-0.11529 0.16459,-0.0172 0.33227,-0.0148 0.49387,0.0208 0.16161,0.0356 0.3172,0.10549 0.4427,0.21336 0.0837,0.072 0.15283,0.15945 0.23415,0.23415 0.14677,0.13483 0.32864,0.22408 0.50767,0.31167 0.17902,0.0876 0.36075,0.17726 0.50695,0.31271 0.20339,0.18845 0.32662,0.45525 0.54634,0.62439 0.16753,0.12896 0.3764,0.18961 0.5807,0.24402 0.20429,0.0544 0.41397,0.10721 0.59002,0.22427 0.14413,0.0958 0.25914,0.23122 0.34675,0.38049 0.0876,0.14927 0.14896,0.31253 0.19959,0.47804 0.11361,0.37135 0.17906,0.76678 0.39024,1.09267 0.2418,0.37314 0.65701,0.61361 1.09268,0.70244 0.21113,0.043 0.43392,0.0553 0.62438,0.15609 0.12522,0.0662 0.23059,0.16946 0.29938,0.2933 0.0688,0.12383 0.10077,0.26783 0.0909,0.40914"
       id="path5072"
       inkscape:path-effect="#path-effect5074"
       inkscape:original-d="m 125.50147,167.3353 c 1.04091,-0.15583 2.13358,-0.31193 3.19998,-0.46829 1.06639,-0.15636 0.72871,0.41652 1.09267,0.62438 0.36396,0.20787 1.14497,-0.46802 1.71706,-0.70243 0.57209,-0.23441 0.36449,0.0523 0.54634,0.078 0.18185,0.0257 0.46856,0.46855 0.70243,0.70243 0.23388,0.23388 0.52059,-0.25989 0.78048,-0.39024 0.2599,-0.13034 0.83278,0.36449 1.24878,0.54634 0.41599,0.18185 0.88481,-0.0518 1.32682,-0.078 0.442,-0.0263 0.62465,0.15636 0.93657,0.23414 0.31193,0.0778 0.15636,0.15636 0.23415,0.23415 0.0778,0.0778 0.67668,0.41652 1.01462,0.62438 0.33795,0.20787 0.36449,0.41653 0.54634,0.62439 0.18185,0.20786 0.78075,0.31246 1.17072,0.46829 0.38998,0.15583 0.36449,0.57262 0.54634,0.85853 0.18185,0.28591 0.26043,0.72871 0.39024,1.09267 0.12982,0.36396 0.72872,0.46856 1.09268,0.70244 0.36396,0.23388 0.41652,0.10433 0.62438,0.15609 0.20787,0.0518 0.26043,0.46856 0.39024,0.70244" /><path
       style="fill:#b40000;fill-opacity:1;stroke:none;stroke-width:0.294985;stroke-opacity:1"
       d=""
       id="path6459"
       transform="scale(0.26458333)" /><path
       style="fill:#b40000;fill-opacity:1;stroke:none;stroke-width:0.294985;stroke-opacity:1"
       d="m 536.72376,651.3468 c -2.54414,-0.77389 -3.58668,-1.90721 -4.4708,-4.8601 -1.2284,-4.10271 -1.9786,-4.98352 -5.07103,-5.95387 -1.34942,-0.42342 -2.05829,-0.88808 -3.24484,-2.12698 -0.83501,-0.87186 -2.04918,-1.85784 -2.69815,-2.19107 -0.64897,-0.33323 -1.70491,-1.05432 -2.34654,-1.60242 -1.73073,-1.47845 -2.95539,-1.75343 -5.77198,-1.29603 -2.76054,0.4483 -3.39131,0.32744 -5.36047,-1.0271 -1.79558,-1.23515 -2.9739,-1.31158 -4.36762,-0.28333 -1.37106,1.01154 -1.92963,0.92922 -2.81955,-0.41554 -1.4358,-2.16964 -3.30926,-2.30138 -6.36138,-0.44731 -1.01996,0.61959 -2.32562,1.14955 -3.0269,1.2286 -1.08864,0.1227 -1.45898,-0.0156 -3.15845,-1.17905 -2.64122,-1.80825 -3.00747,-1.98214 -5.08605,-2.41474 l -1.81906,-0.3786 2.91858,-0.22609 c 2.82433,-0.2188 3.05102,-0.29154 7.02012,-2.25273 l 4.10155,-2.02663 h 5.1023 c 4.82217,0 5.13315,0.0343 5.66424,0.6243 0.80663,0.89615 2.75246,2.17259 3.95428,2.59397 0.56784,0.19909 2.36818,0.4613 4.00076,0.58268 l 2.96831,0.2207 2.77096,1.89773 c 1.52403,1.04375 4.11238,3.15879 5.7519,4.70008 1.63951,1.5413 4.10979,3.86431 5.4895,5.16225 1.37971,1.29793 3.08276,3.20983 3.78455,4.24866 1.15034,1.70279 3.5526,6.71883 3.5526,7.41801 0,0.32255 -0.42723,0.32389 -1.47683,0.005 z"
       id="path6463"
       transform="scale(0.26458333)" /><path
       style="fill:none;fill-rule:evenodd;stroke:#b40000;stroke-width:0.264583px;stroke-linecap:butt;stroke-linejoin:miter;stroke-opacity:1"
       d="m 111.21866,154.92564 c -0.40585,0.51513 -0.99697,0.88106 -1.63902,1.01462 -0.47567,0.099 -0.96908,0.0733 -1.45028,0.006 -0.4812,-0.0671 -0.95605,-0.17502 -1.4375,-0.2403 -0.38785,-0.0526 -0.77933,-0.0774 -1.17072,-0.078 -0.41665,-6.5e-4 -0.84136,0.0278 -1.22948,0.17934 -0.19406,0.0758 -0.37723,0.18231 -0.53095,0.32292 -0.15372,0.14061 -0.27739,0.31597 -0.34687,0.51237 -0.0539,0.15223 -0.0746,0.31376 -0.10066,0.47312 -0.0261,0.15936 -0.0587,0.32036 -0.13349,0.46345 -0.0839,0.16055 -0.21795,0.29115 -0.36899,0.3912 -0.15105,0.10005 -0.31927,0.17129 -0.48954,0.23319 -1.08938,0.39605 -2.28044,0.42463 -3.434117,0.31219 -0.528806,-0.0515 -1.0587,-0.13178 -1.588892,-0.0973 -0.530192,0.0345 -1.072589,0.19673 -1.454985,0.5656 -0.238281,0.22985 -0.404372,0.53368 -0.468289,0.85853 -0.09075,0.4612 0.02113,0.94541 -0.07805,1.40487 -0.05843,0.2707 -0.189713,0.52374 -0.367688,0.73591 -0.177975,0.21217 -0.401803,0.38402 -0.646938,0.51286 -0.36502,0.19185 -0.7713,0.28774 -1.170723,0.39024 -1.22908,0.31542 -2.440743,0.71133 -3.590216,1.24877 -1.232528,0.57627 -2.389112,1.31405 -3.43412,2.18535 -0.33987,0.28338 -0.670228,0.58321 -0.936577,0.93658 -0.225902,0.29971 -0.402622,0.6338 -0.624385,0.93658 -0.481365,0.65723 -1.168642,1.15918 -1.560965,1.87315 -0.363369,0.66128 -0.437905,1.44506 -0.396956,2.19848 0.04095,0.75342 0.189182,1.49751 0.24086,2.25027 0.08557,1.24649 -0.0945,2.50047 0,3.74631 0.01044,0.13757 0.02432,0.27552 0.05846,0.4092 0.03414,0.13367 0.08937,0.26366 0.175683,0.37129 0.140023,0.17461 0.361541,0.28092 0.585361,0.28092 0.223821,0 0.445339,-0.10631 0.585362,-0.28092"
       id="path6465"
       inkscape:path-effect="#path-effect6467"
       inkscape:original-d="m 111.21866,154.92564 c -0.54608,0.33847 -1.09241,0.67668 -1.63902,1.01462 -0.5466,0.33795 -1.92492,-0.15583 -2.88778,-0.23414 -0.96286,-0.0783 -0.78021,-0.0518 -1.17072,-0.078 -0.39051,-0.0263 -1.4046,0.67668 -2.1073,1.01463 -0.7027,0.33794 -0.15583,0.62465 -0.23415,0.93657 -0.0783,0.31193 -0.57208,0.41653 -0.85853,0.62439 -0.28644,0.20786 -2.28915,0.20839 -3.434117,0.31219 -1.144971,0.1038 -2.028986,0.31246 -3.043877,0.46829 -1.014892,0.15584 -0.311928,0.57262 -0.468289,0.85853 -0.156361,0.28592 -0.05177,0.93685 -0.07805,1.40487 -0.02627,0.46802 -0.676153,0.83278 -1.014626,1.24877 -0.338474,0.41599 -0.780217,0.26043 -1.170723,0.39024 -0.390504,0.12982 -2.393212,0.83278 -3.590216,1.24877 -1.197002,0.416 -2.289149,1.45717 -3.43412,2.18535 -1.144971,0.72819 -0.62412,0.62465 -0.936577,0.93658 -0.312457,0.31193 -0.415994,0.62465 -0.624385,0.93658 -0.208394,0.31193 -1.040379,1.24903 -1.560965,1.87315 -0.520586,0.62412 -0.103799,2.9661 -0.156096,4.44875 -0.0523,1.48265 2.64e-4,2.49781 0,3.74631 -2.65e-4,1.24851 0.15636,0.52059 0.234145,0.78049 0.07778,0.25989 0.780746,2.6e-4 1.170723,0" /><path
       style="fill:#b40000;fill-opacity:1;stroke:none;stroke-width:0.294985;stroke-opacity:1"
       d="m 314.79615,676.68035 c -1.23523,-0.97164 -1.41562,-2.33929 -1.33339,-10.10934 0.0581,-5.48696 -0.054,-8.26786 -0.48584,-12.0594 -0.91451,-8.0289 -0.25341,-10.51821 4.03509,-15.19358 1.30782,-1.4258 3.14174,-3.72068 4.07538,-5.09974 1.88763,-2.78817 3.78374,-4.69459 7.0837,-7.12222 6.67007,-4.90687 12.82462,-7.80912 22.15355,-10.4468 5.30516,-1.49999 6.7157,-2.1 8.18204,-3.48048 1.6879,-1.58907 2.19292,-2.92934 2.40556,-6.38413 0.21706,-3.5265 0.438,-4.19701 1.81839,-5.51843 1.94556,-1.86244 4.40493,-2.20024 11.75315,-1.61434 5.36577,0.42783 10.692,-0.24889 13.58826,-1.72645 1.4552,-0.74239 2.57195,-2.12613 2.79652,-3.4651 0.77452,-4.61805 2.92523,-5.89198 9.41852,-5.57883 1.95125,0.0941 4.74242,0.39726 6.2026,0.67368 5.81045,1.09998 9.51676,0.47524 12.73587,-2.14676 1.58586,-1.29171 1.63278,-1.30821 2.21782,-0.77996 1.07744,0.97286 5.54778,6.21434 5.54778,6.50478 0,0.43889 -2.3405,1.04057 -3.99846,1.02791 -1.63557,-0.0125 -5.47749,-0.85588 -9.08588,-1.99457 -1.79857,-0.56756 -3.6477,-0.82956 -8.25959,-1.17029 -3.26821,-0.24145 -6.29614,-0.51277 -6.72873,-0.60292 -0.43259,-0.0902 -1.31583,-0.0214 -1.96276,0.1528 -0.96117,0.25882 -1.4721,0.70709 -2.79436,2.45165 -0.88998,1.1742 -2.35249,3.3296 -3.25004,4.78978 -1.84909,3.0082 -3.07074,4.30605 -4.77564,5.07355 -1.03511,0.46597 -2.1213,0.53338 -8.84955,0.54915 -10.50906,0.0246 -10.97631,0.19923 -13.26443,4.95642 -1.22363,2.54403 -1.34317,3.55427 -0.61236,5.17492 0.53902,1.19533 0.53874,1.22905 -0.0136,1.64487 -0.70285,0.52912 -6.50434,2.85955 -12.44951,5.0009 -5.97331,2.15149 -8.77863,3.49842 -12.15568,5.83635 -1.5413,1.06704 -5.11102,3.22451 -7.93272,4.79437 -8.53807,4.75017 -9.50095,5.6956 -10.35257,10.1649 -0.45673,2.39691 -0.97375,3.79547 -2.86174,7.74111 -2.27147,4.74708 -2.30381,4.84719 -2.27045,7.02806 0.0269,1.75808 0.31468,3.09072 1.40143,6.48968 0.75217,2.35251 1.78321,5.10231 2.29121,6.11068 1.04649,2.07726 1.01705,3.03649 -0.14727,4.79895 -0.37688,0.5705 -0.77753,1.53124 -0.89032,2.13499 -0.20836,1.11532 -1.08279,1.99963 -1.97729,1.99963 -0.2665,0 -0.83111,-0.27261 -1.25469,-0.60579 z"
       id="path6542"
       transform="scale(0.26458333)" /><path
       style="fill:#ffffff;fill-opacity:1;stroke:none;stroke-width:0.294985;stroke-opacity:1"
       d="m 405.67795,649.18879 c -0.0939,-0.64239 -0.002,-0.81121 0.44303,-0.81121 0.89701,0 2.2861,-1.58938 2.2861,-2.61573 0,-2.16879 -2.68082,-3.30885 -4.27001,-1.81588 -0.40961,0.3848 -0.75161,0.97518 -0.76001,1.31194 -0.008,0.33676 -0.39951,-0.33596 -0.86915,-1.49495 l -0.85388,-2.10724 1.15232,-1.21134 c 1.14723,-1.20599 2.65088,-1.67438 2.65088,-0.82575 0,0.21208 0.76327,1.12623 1.69616,2.03145 0.96638,0.93771 2.17372,2.5351 2.80609,3.71264 l 1.10992,2.06679 -2.63645,1.28524 L 405.79649,650 Z"
       id="path6915"
       transform="scale(0.26458333)" /><path
       style="fill:#ffffff;fill-opacity:1;stroke:none;stroke-width:0.294985;stroke-opacity:1"
       d="m 377.61655,659.9954 c -0.81986,-1.2932 -0.84451,-1.43961 -0.70586,-4.19277 0.14517,-2.88273 0.55058,-4.26582 1.65166,-5.63478 0.57158,-0.71065 0.5954,-0.7136 2.64199,-0.32744 2.04908,0.38664 2.06658,0.39799 2.24134,1.45458 0.35779,2.16308 0.183,5.16536 -0.37183,6.38683 -0.6112,1.34554 -1.96907,2.60411 -3.49947,3.24355 -0.56807,0.23736 -1.04983,0.42672 -1.07058,0.42079 -0.0208,-0.006 -0.42001,-0.61377 -0.88725,-1.35076 z m 4.01375,-2.9895 c 0.74646,-0.85006 0.88149,-1.75032 0.40171,-2.67812 -0.69099,-1.33623 -2.24162,-1.66341 -3.38487,-0.71421 -1.63724,1.35934 -0.71302,3.90855 1.41705,3.90855 0.69047,0 1.28485,-0.19591 1.56611,-0.51622 z"
       id="path6986"
       transform="scale(0.26458333)" /></g></svg>
