<?xml version="1.0" encoding="UTF-8" standalone="no"?>
<!-- Created with Inkscape (http://www.inkscape.org/) -->

<svg
   width="210mm"
   height="297mm"
   viewBox="0 0 210 297"
   version="1.1"
   id="svg5"
   inkscape:version="1.2.1 (9c6d41e410, 2022-07-14)"
   sodipodi:docname="motylek.svg"
   xmlns:inkscape="http://www.inkscape.org/namespaces/inkscape"
   xmlns:sodipodi="http://sodipodi.sourceforge.net/DTD/sodipodi-0.dtd"
   xmlns="http://www.w3.org/2000/svg"
   xmlns:svg="http://www.w3.org/2000/svg">
  <sodipodi:namedview
     id="namedview7"
     pagecolor="#ffffff"
     bordercolor="#000000"
     borderopacity="0.25"
     inkscape:showpageshadow="2"
     inkscape:pageopacity="0.0"
     inkscape:pagecheckerboard="0"
     inkscape:deskcolor="#d1d1d1"
     inkscape:document-units="mm"
     showgrid="false"
     inkscape:zoom="0.74564394"
     inkscape:cx="396.97231"
     inkscape:cy="755.05207"
     inkscape:window-width="1920"
     inkscape:window-height="1017"
     inkscape:window-x="-8"
     inkscape:window-y="-8"
     inkscape:window-maximized="1"
     inkscape:current-layer="layer1" />
  <defs
     id="defs2">
    <inkscape:path-effect
       effect="spiro"
       id="path-effect1362"
       is_visible="true"
       lpeversion="1" />
    <inkscape:path-effect
       effect="spiro"
       id="path-effect1362-2"
       is_visible="true"
       lpeversion="1" />
  </defs>
  <g
     inkscape:groupmode="layer"
     id="layer2"
     inkscape:label="Warstwa 2" />
  <g
     inkscape:label="Warstwa 1"
     inkscape:groupmode="layer"
     id="layer1">
    <g
       id="g2201">
      <path
         style="fill:#b466b9;fill-opacity:1;stroke:#000000;stroke-width:0.799999;stroke-opacity:1"
         d="m 78.064515,151.87097 c 0,0 2.838712,-5.67742 8.161292,-2.48387 5.322581,3.19355 8.16129,4.96774 8.16129,4.96774 1.87e-4,0.002 -0.09135,-37.81667 -19.161292,-50.03225 -15.381334,-9.852795 -39.032256,-6.387105 -41.516127,4.25806 -2.483871,10.64516 5.322581,8.16129 8.16129,14.90323 2.946855,6.99878 -7.806452,16.67741 -5.677419,21.29032 2.129032,4.6129 41.870966,7.09677 41.870966,7.09677 z"
         id="path1049"
         sodipodi:nodetypes="cscssssc" />
      <path
         style="fill:#b466b9;fill-opacity:1;stroke:#000000;stroke-width:0.799999;stroke-opacity:1"
         d="m 90.483871,153.64516 c -3.974059,0.39741 -55.116979,-1.58507 -51.806451,-2.12903 2.100862,-0.34519 -8.516129,0 -7.451613,9.58064 1.064516,9.58065 0,27.32258 6.387097,23.06451 6.387096,-4.25804 -1.419355,15.25807 8.16129,13.12905 9.580644,-2.12905 16.32258,-0.35484 24.129032,-6.03227 7.806452,-5.67741 11.354839,-2.83871 18.80645,-12.41935 7.451614,-9.58064 -3.143438,-10.28414 7.451614,-14.90322 5.16482,-2.25168 1.906108,-9.05799 -10e-7,-10.29033 -3.625147,-2.34373 -5.677418,0 -5.677418,0 z"
         id="path1105"
         sodipodi:nodetypes="cssssssssc" />
      <path
         style="fill:#b466b9;fill-opacity:1;stroke:#000000;stroke-width:0.799999;stroke-opacity:1"
         d="m 113.81099,153.10615 c 0,0 -2.83871,-5.67742 -8.16129,-2.48387 -5.32259,3.19355 -8.161286,4.96774 -8.161286,4.96774 -1.9e-4,0.002 0.0914,-37.81667 19.161286,-50.03225 15.38133,-9.85279 39.03225,-6.3871 41.51612,4.25806 2.48388,10.64516 -5.32258,8.16129 -8.16129,14.90323 -2.94685,6.99878 7.80646,16.67741 5.67742,21.29032 -2.12903,4.6129 -41.87096,7.09677 -41.87096,7.09677 z"
         id="path1049-6"
         sodipodi:nodetypes="cscssssc" />
      <path
         style="fill:#b466b9;fill-opacity:1;stroke:#000000;stroke-width:0.799999;stroke-opacity:1"
         d="m 101.74647,154.17066 c 3.97406,0.39741 55.11698,-1.58507 51.80645,-2.12903 -2.10086,-0.34519 8.51613,0 7.45161,9.58064 -1.06451,9.58065 0,27.32258 -6.38709,23.06451 -6.3871,-4.25804 1.41935,15.25807 -8.16129,13.12905 -9.58065,-2.12905 -16.32258,-0.35484 -24.12903,-6.03227 -7.80646,-5.67741 -11.35484,-2.83871 -18.80645,-12.41935 -7.451616,-9.58064 3.14343,-10.28414 -7.451616,-14.90322 -5.16482,-2.25168 -1.90611,-9.05799 0,-10.29033 3.62515,-2.34373 5.677416,0 5.677416,0 z"
         id="path1105-9"
         sodipodi:nodetypes="cssssssssc" />
      <path
         id="path788"
         style="stroke:#180000;stroke-width:0.799999"
         d="m 97.935482,147.61289 c 0,27.43608 -1.774194,50.03226 -1.774194,50.03226 -1.753302,4.6129 -3.193548,-23.6607 -3.193547,-51.09677 0,-27.43608 -9.787122,-41.76377 3.193547,-41.16129 10.269782,0.47666 1.774194,14.78973 1.774194,42.2258 z"
         sodipodi:nodetypes="scsss" />
      <ellipse
         style="fill:#ff0000;fill-opacity:1;stroke:#000000;stroke-width:0.604379;stroke-opacity:1"
         id="path1246-6-5"
         cx="91.903229"
         cy="106.09677"
         rx="2.5816808"
         ry="2.2268422" />
      <ellipse
         style="fill:#ff0000;fill-opacity:1;stroke:#000000;stroke-width:0.604379;stroke-opacity:1"
         id="path1246-6"
         cx="99.354836"
         cy="106.45161"
         rx="2.5816808"
         ry="2.2268422" />
      <path
         style="fill:none;fill-opacity:1;stroke:#000000;stroke-width:0.799999;stroke-opacity:1"
         d="m 96.870966,108.58064 c -0.217329,-5.82499 2.008886,-11.70277 6.030564,-15.922232 4.02167,-4.219461 9.78589,-6.725084 15.6146,-6.787443 3.03725,-0.03249 6.07985,0.576027 8.87096,1.774196"
         id="path1360"
         inkscape:path-effect="#path-effect1362"
         inkscape:original-d="m 96.870966,108.58064 c 12.301344,-6.97823 9.107794,-15.730915 21.645164,-22.709675 12.53737,-6.97876 8.04327,-0.236294 8.87096,1.774196"
         sodipodi:nodetypes="csc" />
      <path
         style="fill:none;fill-opacity:1;stroke:#000000;stroke-width:0.799999;stroke-opacity:1"
         d="m 95.678052,106.28994 c 0.217331,-5.82499 -2.008885,-11.702776 -6.030562,-15.922239 -4.021677,-4.219463 -9.785898,-6.725086 -15.614608,-6.787442 -3.037247,-0.03249 -6.079846,0.576028 -8.87096,1.774196"
         id="path1360-2"
         inkscape:path-effect="#path-effect1362-2"
         inkscape:original-d="m 95.678052,106.28994 c -12.30135,-6.978236 -9.1078,-15.730921 -21.64517,-22.709681 -12.53737,-6.97876 -8.04327,-0.236294 -8.87096,1.774196"
         sodipodi:nodetypes="csc" />
    </g>
  </g>
</svg>
