<?xml version="1.0" encoding="UTF-8" standalone="no"?>
<!-- Created with Inkscape (http://www.inkscape.org/) -->

<svg
   width="210mm"
   height="297mm"
   viewBox="0 0 210 297"
   version="1.1"
   id="svg2223"
   xml:space="preserve"
   sodipodi:docname="listek.svg"
   inkscape:version="1.2.1 (9c6d41e410, 2022-07-14)"
   xmlns:inkscape="http://www.inkscape.org/namespaces/inkscape"
   xmlns:sodipodi="http://sodipodi.sourceforge.net/DTD/sodipodi-0.dtd"
   xmlns="http://www.w3.org/2000/svg"
   xmlns:svg="http://www.w3.org/2000/svg"><sodipodi:namedview
     id="namedview2225"
     pagecolor="#ffffff"
     bordercolor="#000000"
     borderopacity="0.25"
     inkscape:showpageshadow="2"
     inkscape:pageopacity="0.0"
     inkscape:pagecheckerboard="0"
     inkscape:deskcolor="#d1d1d1"
     inkscape:document-units="mm"
     showgrid="false"
     inkscape:zoom="0.74564394"
     inkscape:cx="363.44425"
     inkscape:cy="454.64059"
     inkscape:window-width="1920"
     inkscape:window-height="1017"
     inkscape:window-x="-8"
     inkscape:window-y="-8"
     inkscape:window-maximized="1"
     inkscape:current-layer="svg2223" /><defs
     id="defs2220" /><g
     inkscape:label="Warstwa 1"
     inkscape:groupmode="layer"
     id="layer1"><path
       style="fill:none;fill-opacity:1;stroke:#000000;stroke-width:4.29999986;stroke-dasharray:none"
       d="M 72.387097,92.258064 53.580646,80.548386 c 0,0 -13.838711,-6.741935 -17.387099,-4.612904 -3.548385,2.129033 -6.741935,8.161292 -6.741935,8.161292"
       id="path4851" /></g><g
     id="g4595"
     transform="translate(0.35483871,-25.903226)"
     style="fill:#008000;fill-opacity:1"><path
       style="fill:#008000;stroke:#000000;stroke-width:0.799999;fill-opacity:1"
       d="m 72.387095,116.03226 c 0,0 2e-6,-3.54839 -3.193548,-5.32258 -3.193548,-1.7742 -8.516128,-5.67742 -8.516128,-5.67742 l -4.967743,-7.096777 -1.419354,-2.483872 2.129033,0.354838 -1.064517,-4.96774 L 53.935484,88 54.290322,85.161288 c 0,0 -0.354838,2.129034 1.064516,2.129034 1.419355,0 2.483872,-4.612905 2.483872,-4.612905 v -3.548385 c 0,0 3.193547,-1.064517 4.612902,0.354838 1.419354,1.419354 2.129033,3.193547 3.903225,4.258064 1.774193,1.064516 2.483872,1.064516 2.483872,1.064516 0,0 1.419354,-1.774192 0.709678,-3.193547 -0.709678,-1.419355 -2.129033,-3.548388 -0.709678,-3.19355 1.419354,0.354841 2.129033,0.709679 2.129033,0.709679 l 1.419355,-7.806452 2.838709,-1.774193 4.258064,4.258064 2.483871,0.709676 4.612902,-4.258064 h 5.32258 l 2.129034,4.258064 3.548388,-4.96774 1.064516,4.612902 c 0,0 0.709676,1.064517 2.483869,2.129033 1.7742,1.064514 6.03226,3.903226 6.03226,3.903226 l 1.77419,3.193548 c 0,0 -0.35484,5.32258 1.41936,2.129033 1.77419,-3.19355 1.77419,-6.032259 3.90322,-6.387097 2.12904,-0.354838 4.61291,1.064516 4.61291,1.064516 l 6.38709,-3.903226 3.54839,1.774193 c 0,0 -0.35484,1.064517 2.83871,1.064517 3.19355,0 5.32258,0.709676 5.32258,0.709676 0,0 3.19355,0.709678 2.83871,2.483871 -0.35484,1.774195 -1.06452,6.387097 -1.06452,6.387097 v 2.483871 l 5.67742,-3.548387 c 0,0 2.48387,-1.419355 2.83871,0.35484 0.35484,1.774193 4.61291,0 4.61291,0 0,0 1.06451,-2.838712 1.06451,0 0,2.838709 5.67742,0.709676 5.67742,0.709676 0,0 2.83871,3.903226 1.41936,7.451614 -1.41936,3.548385 3.19354,0.354838 3.19354,0.354838 l 2.48387,1.774193 -0.35483,3.193549 c 0,0 8.51612,-2.129033 8.16129,1.77419 -0.35484,3.90323 -1.41936,6.74194 -1.41936,6.74194 0,0 7.09677,-0.35484 7.09677,2.83871 0,3.19355 4.25807,4.6129 6.03226,7.45161 1.7742,2.83871 -7.45161,6.3871 -7.80645,8.51613 -0.35484,2.12903 1.06452,4.96774 1.06452,4.96774 l -11.35484,1.77419 c 0,0 7.80645,0 2.12903,2.48388 -5.67742,2.48387 -14.90322,1.41935 -14.90322,1.41935 0,0 1.77419,2.12903 0.35484,3.19355 -1.41936,1.06452 -18.09678,-3.19355 -18.09678,-3.19355 0,0 -6.74193,-3.54839 -8.87096,-3.54839 H 121 l -3.54839,-1.06451 c 0,0 -1.77419,1.41935 -1.77419,3.19355 0,1.77419 -0.70968,4.6129 4.6129,5.32258 5.32258,0.70967 6.3871,0.70967 8.16129,0.70967 h 4.96774 l 1.41936,3.54839 10.29032,5.32258 -1.06452,2.12903 2.83871,4.25807 3.54839,3.19355 2.83871,5.32258 v 3.19355 l -8.51613,-0.70968 c 0,0 -3.90323,-0.70968 0,4.96774 3.90323,5.67742 4.61291,10.29032 4.61291,10.29032 l -0.70968,0.35484 c 0,0 -0.70968,-0.70968 -3.19355,-1.41935 -2.48387,-0.70968 -0.35484,2.83871 -1.06452,5.67742 -0.70967,2.83871 -2.48387,0 -3.90322,2.83871 -1.41936,2.83871 -3.19355,-1.41936 -1.06452,3.90322 2.12903,5.32258 4.96774,6.3871 1.06452,8.16129 -3.90323,1.77419 -3.54839,-4.96774 -2.48387,2.12903 1.06451,7.09678 1.41935,7.80646 0,7.80646 -1.41936,0 -3.54839,-3.19355 -1.06452,1.06451 2.48387,4.25807 9.93548,9.22581 1.77419,5.32258 -8.16129,-3.90322 -4.6129,-1.06451 -9.2258,-3.19355 -4.61291,-2.12903 -4.61291,-2.12903 -4.61291,-4.6129 0,-2.48387 4.61291,-2.48387 -0.35483,-0.70968 -4.96775,1.7742 -3.19355,10.29033 -4.96775,0.35484 -1.77419,-9.93548 2.83871,-15.25806 -2.48387,-10.64516 -5.32258,4.6129 -1.06451,6.3871 -6.03226,2.83871 -4.96774,-3.54839 -2.12903,-3.19355 -4.6129,-3.19355 -2.48387,0 0.35484,8.87097 -3.54838,-1.77419 -3.903231,-10.64516 0.35483,-15.6129 -4.258069,-10.29032 -4.612904,5.32258 -1.419357,14.19354 -4.967742,4.6129 -3.548388,-9.58065 -3.903226,-20.93549 -3.903226,-9.93548 0,11 1.064516,10.29032 0,11.70967 C 88.709676,198 87.64516,196.2258 87.64516,198 c 0,1.77419 1.419354,4.6129 1.419354,4.6129 l 0.354841,2.83871"
       id="path4589"
       sodipodi:nodetypes="cscccccccsccsscssccccccccccsccsscccscscccscscscccscsssccscscsccssscccccccccsccsssssssssssssssssssssscc" /><path
       style="fill:#008000;stroke:#000000;stroke-width:0.799999;fill-opacity:1"
       d="m 89.064514,205.45161 -3.193547,1.77419 0.709676,9.22581 -4.258064,0.35484 -1.419355,-2.12903 -2.483871,-2.12903 -1.774193,1.06451 -0.709678,-4.6129 -2.483869,2.83871 -2.483871,-8.87097 -2.483871,2.48387 h -2.129034 l 1.419355,-4.96774 -3.548385,-4.25807 -2.483871,1.06452 -3.548388,2.12903 c 0,0 -2.483872,-1.06451 -2.483872,-2.48387 0,-1.41935 1.064517,-1.77419 -0.354838,-2.83871 -1.419354,-1.06451 -3.193549,-2.12903 -3.193549,-2.12903 l 2.129033,-1.77419 -1.774193,-2.83871 3.193547,-3.19355 -1.064516,-3.19355 -7.096773,2.12903 -2.83871,1.06452 -0.354838,-6.03226 3.193548,-1.77419 -1.774193,-5.67742 0.709676,0.35484 -0.709676,-1.7742 1.064514,-2.48387 2.129033,-0.70967 0.354838,-5.32259 -9.580644,3.90323 c 0,0 -2.838709,-1.41936 -3.548388,-2.83871 -0.709676,-1.41936 2.838712,-1.06452 -1.419355,-2.83871 -4.258064,-1.77419 -4.258064,-3.19355 -3.193547,-4.6129 1.064517,-1.41936 2.483871,-1.7742 5.322581,-3.19355 2.838709,-1.41936 0.354838,0 -2.483872,-1.41936 -2.838709,-1.41935 -2.129033,0.35484 -0.709678,-2.12903 1.419357,-2.48387 6.387097,-6.74194 6.387097,-6.74194 l -2.838709,-3.54838 c 0,0 0.354838,-6.03226 2.838709,-8.16129 2.483871,-2.12903 5.32258,-7.09678 6.387097,-9.22581 1.064517,-2.12903 -0.354838,-3.54838 4.612905,-3.19355 4.967739,0.35484 0.709676,-2.48387 8.516127,1.41936 7.806452,3.90322 8.870969,5.32258 11.709678,2.48387 2.838709,-2.83871 1.419355,-5.32258 1.419355,-5.32258"
       id="path4591" /></g><path
     style="fill:none;fill-opacity:1;stroke:#15bd13;stroke-width:2.7;stroke-dasharray:none;stroke-opacity:1"
     d="m 68.483871,96.516128 c 0,12.774192 0,25.548382 0,38.322582 0,2.48387 0,4.96774 0,7.45161 0,0.97935 -0.191614,2.23549 0,3.19355 0.301307,1.50654 1.117203,3.10215 1.419354,4.6129 0.115983,0.57991 -0.16247,1.20555 0,1.7742 0.09191,0.32167 0.560065,0.41045 0.709676,0.70967 0.875443,1.75089 0.885714,4.16452 1.419355,6.03226 0.308266,1.07892 0.812202,2.10019 1.064517,3.19355 0.106386,0.461 -0.05225,0.94913 0,1.41935 0.133204,1.19885 0.378303,2.38858 0.709678,3.54839 0.334537,1.17088 0.469178,2.34589 0.709676,3.54839 0.162454,0.81227 0.709679,1.63996 0.709679,2.48387"
     id="path5043" /><path
     style="fill:none;fill-opacity:1;stroke:#15bd13;stroke-width:2.7;stroke-dasharray:none;stroke-opacity:1"
     d="m 72.420267,94.081888 c 7.14771,10.587272 14.29542,21.174532 21.44313,31.761812 1.38983,2.05863 2.77967,4.11727 4.1695,6.1759 0.54799,0.81169 1.09204,1.96 1.78693,2.64682 1.092693,1.08003 2.661723,1.94594 3.757473,3.02899 0.42061,0.41573 0.5399,1.09007 0.99274,1.47046 0.25616,0.21518 0.69385,0.0268 0.98528,0.19108 1.70526,0.96129 3.0643,2.95597 4.55166,4.20536 0.8592,0.72172 1.8483,1.28618 2.66921,2.05117 0.34612,0.32255 0.48781,0.81585 0.79419,1.17636 0.7812,0.91908 1.65004,1.76798 2.57366,2.54381 0.93241,0.78325 1.70148,1.68175 2.57365,2.54382 0.58914,0.58231 1.50581,0.96211 1.97801,1.66154"
     id="path5043-8" /><path
     style="fill:none;fill-opacity:1;stroke:#15bd13;stroke-width:2.20023;stroke-dasharray:none;stroke-opacity:1"
     d="m 73.67069,92.60608 c 12.047562,-2.043022 24.095112,-4.086048 36.14269,-6.129071 2.34257,-0.397255 4.68515,-0.794511 7.02774,-1.191765 0.92364,-0.156631 2.19338,-0.237037 3.01189,-0.510757 1.28708,-0.430418 2.4297,-1.198668 3.72038,-1.630287 0.49542,-0.165678 1.2091,-0.09064 1.67327,-0.283752 0.26258,-0.109246 0.13844,-0.417832 0.35425,-0.559768 1.26263,-0.830525 3.53441,-1.223001 5.05901,-1.857279 0.88067,-0.366408 1.62014,-0.846624 2.53928,-1.180159 0.38753,-0.140628 0.91831,-0.118972 1.33862,-0.227004 1.07152,-0.27549 2.08474,-0.619895 3.03147,-1.013773 0.95577,-0.397619 2.00414,-0.670219 3.03149,-1.013763 0.69395,-0.232062 1.23162,-0.708547 2.02752,-0.843516"
     id="path5043-8-6"
     inkscape:transform-center-x="-3.2762722"
     inkscape:transform-center-y="-3.1647701" /><path
     style="fill:none;fill-opacity:1;stroke:#15bd13;stroke-width:2.7;stroke-dasharray:none;stroke-opacity:1"
     d="m 87.71981,90.366064 c 12.251262,3.61755 24.50252,7.235088 36.75379,10.852646 2.38218,0.70341 4.76438,1.40682 7.14656,2.11023 0.93927,0.27734 2.08972,0.81685 3.06282,0.90438 1.53021,0.13767 3.29155,-0.19297 4.82602,-0.0549 0.58901,0.053 1.11019,0.49722 1.70157,0.50245 0.33453,0.003 0.55226,-0.42091 0.8816,-0.47966 1.92712,-0.34377 4.24486,0.32991 6.18726,0.34704 1.12205,0.01 2.24423,-0.18419 3.36428,-0.11656 0.47225,0.0285 0.89549,0.31885 1.36125,0.40194 1.1875,0.21177 2.39792,0.31362 3.60411,0.32425 1.21768,0.0108 2.38272,0.21437 3.6041,0.32426 0.82502,0.0742 1.7738,-0.2162 2.58316,0.0228"
     id="path5043-8-67" /><path
     style="fill:none;fill-opacity:1;stroke:#15bd13;stroke-width:1.24039;stroke-dasharray:none;stroke-opacity:1"
     d="m 100.15622,135.92377 c 3.12511,5.11064 6.25022,10.22127 9.37534,15.3319 0.60766,0.99374 1.21532,1.98747 1.82298,2.9812 0.23959,0.39182 0.47746,0.94612 0.78128,1.27766 0.47775,0.52135 1.16376,0.93934 1.64284,1.46214 0.1839,0.20068 0.23605,0.52619 0.43404,0.70981 0.112,0.10388 0.30337,0.0129 0.43079,0.0922 0.74557,0.46403 1.33977,1.42689 1.99007,2.02999 0.37566,0.34839 0.80811,0.62086 1.16703,0.99013 0.15133,0.1557 0.21328,0.39382 0.34723,0.56785 0.34156,0.44365 0.72143,0.85343 1.12525,1.22793 0.40767,0.37809 0.74392,0.81181 1.12525,1.22794 0.25758,0.28109 0.65837,0.46443 0.86482,0.80205"
     id="path5043-8-3" /><path
     style="fill:none;fill-opacity:1;stroke:#15bd13;stroke-width:1.24039;stroke-dasharray:none;stroke-opacity:1"
     d="m 123.74791,130.0526 c -5.51891,-2.32952 -11.03779,-4.65904 -16.5567,-6.98855 -1.07312,-0.45297 -2.14623,-0.90593 -3.21935,-1.35889 -0.42312,-0.1786 -0.93958,-0.4902 -1.37973,-0.58238 -0.69212,-0.14495 -1.49317,-0.0845 -2.18722,-0.22986 -0.26642,-0.0558 -0.498594,-0.28983 -0.766514,-0.32354 -0.15156,-0.0191 -0.25398,0.16642 -0.40373,0.17629 -0.87628,0.0578 -1.92046,-0.37795 -2.80043,-0.4887 -0.50834,-0.064 -1.01854,-0.0332 -1.52545,-0.12385 -0.21373,-0.0383 -0.4029,-0.19557 -0.6132,-0.25884 -0.53618,-0.16125 -1.08373,-0.27264 -1.63017,-0.34141 -0.55166,-0.0694 -1.07773,-0.22571 -1.63017,-0.34141 -0.37317,-0.0782 -0.80567,0.007 -1.17026,-0.14729"
     id="path5043-8-3-2" /><path
     style="fill:none;fill-opacity:1;stroke:#15bd13;stroke-width:1.24039;stroke-dasharray:none;stroke-opacity:1"
     d="m 101.68997,157.22228 c -5.065785,-3.19732 -10.131545,-6.39462 -15.197336,-9.59193 -0.985012,-0.6217 -1.970016,-1.2434 -2.95503,-1.8651 -0.38838,-0.24513 -0.847191,-0.63668 -1.266449,-0.79932 -0.659269,-0.25575 -1.459468,-0.32658 -2.120575,-0.58304 -0.253774,-0.0985 -0.444729,-0.36717 -0.703581,-0.44407 -0.146425,-0.0435 -0.277694,0.12283 -0.427052,0.10818 -0.873993,-0.0857 -1.833256,-0.6857 -2.683437,-0.9383 -0.491128,-0.14594 -0.999531,-0.19865 -1.484908,-0.37065 -0.204638,-0.0726 -0.365666,-0.25858 -0.562852,-0.35526 -0.502757,-0.24643 -1.024852,-0.44552 -1.552794,-0.60237 -0.53299,-0.15833 -1.026576,-0.39823 -1.552794,-0.60237 -0.35545,-0.13793 -0.796052,-0.12431 -1.130643,-0.33593"
     id="path5043-8-3-2-0" /><path
     style="fill:none;fill-opacity:1;stroke:#15bd13;stroke-width:1.24039;stroke-dasharray:none;stroke-opacity:1"
     d="m 169.16754,89.600882 c -5.51891,-2.32952 -11.03779,-4.65904 -16.5567,-6.98855 -1.07312,-0.45297 -2.14623,-0.90593 -3.21935,-1.35889 -0.42312,-0.1786 -0.93958,-0.4902 -1.37973,-0.58238 -0.69212,-0.14495 -1.49317,-0.0845 -2.18722,-0.22986 -0.26642,-0.0558 -0.4986,-0.28983 -0.76652,-0.32354 -0.15156,-0.0191 -0.25398,0.16642 -0.40373,0.17629 -0.87628,0.0578 -1.92046,-0.37795 -2.80043,-0.4887 -0.50834,-0.064 -1.01854,-0.0332 -1.52545,-0.12385 -0.21373,-0.0383 -0.4029,-0.19557 -0.6132,-0.25884 -0.53618,-0.16125 -1.08373,-0.27264 -1.63017,-0.34141 -0.55166,-0.0694 -1.07773,-0.22571 -1.63017,-0.34141 -0.37317,-0.0782 -0.80567,0.007 -1.17026,-0.14729"
     id="path5043-8-3-2-8" /><path
     style="fill:none;fill-opacity:1;stroke:#15bd13;stroke-width:1.62949;stroke-dasharray:none;stroke-opacity:1"
     d="M 103.7708,87.235019 C 97.824184,83.503936 91.877603,79.772853 85.93099,76.041787 c -1.156285,-0.725501 -2.312559,-1.450985 -3.468843,-2.17647 -0.455911,-0.286056 -1.012395,-0.785131 -1.486656,-0.932771 -0.745758,-0.23216 -1.608887,-0.13534 -2.356725,-0.368156 -0.287067,-0.08937 -0.537229,-0.464207 -0.825912,-0.518199 -0.163306,-0.03059 -0.273663,0.266547 -0.435019,0.282356 -0.944189,0.09257 -2.069291,-0.605345 -3.017457,-0.782728 -0.547735,-0.102506 -1.097474,-0.05317 -1.643669,-0.198365 -0.230293,-0.06134 -0.434123,-0.313235 -0.660721,-0.414572 -0.577733,-0.258267 -1.167717,-0.436675 -1.756505,-0.54682 -0.594412,-0.111155 -1.161251,-0.36151 -1.756504,-0.546821 -0.40209,-0.125249 -0.868108,0.01121 -1.260953,-0.235907"
     id="path5043-8-3-2-5" /><path
     style="fill:none;fill-opacity:1;stroke:#15bd13;stroke-width:1.21194;stroke-dasharray:none;stroke-opacity:1"
     d="m 69.414223,122.13607 c -3.308454,-3.70968 -6.61689,-7.41937 -9.925345,-11.12903 -0.643309,-0.72134 -1.286613,-1.44267 -1.929923,-2.16399 -0.25365,-0.28441 -0.563256,-0.78063 -0.827115,-0.92742 -0.414909,-0.23083 -0.89512,-0.13456 -1.311186,-0.36605 -0.159712,-0.0889 -0.298895,-0.46154 -0.459507,-0.51522 -0.09086,-0.0304 -0.152255,0.26502 -0.242026,0.28073 -0.525309,0.0921 -1.15127,-0.60187 -1.678791,-0.77823 -0.304737,-0.10192 -0.61059,-0.0529 -0.91447,-0.19723 -0.128126,-0.061 -0.241529,-0.31144 -0.367599,-0.4122 -0.321427,-0.25678 -0.64967,-0.43417 -0.977248,-0.54368 -0.330707,-0.11052 -0.646073,-0.35944 -0.977248,-0.54368 -0.223706,-0.12453 -0.48298,0.0111 -0.701543,-0.23456"
     id="path5043-8-3-2-2" /><path
     style="fill:none;fill-opacity:1;stroke:#15bd13;stroke-width:1.103;stroke-dasharray:none;stroke-opacity:1"
     d="m 144.30295,104.41939 c -2.67848,-3.79546 -5.35695,-7.590923 -8.03544,-11.386363 -0.52081,-0.73802 -1.04162,-1.47602 -1.56244,-2.21403 -0.20535,-0.29099 -0.456,-0.79867 -0.66962,-0.94886 -0.3359,-0.23617 -0.72468,-0.13768 -1.06152,-0.37451 -0.1293,-0.0909 -0.24198,-0.47222 -0.37201,-0.52714 -0.0736,-0.0311 -0.12327,0.27115 -0.19594,0.28723 -0.42529,0.0942 -0.93206,-0.61579 -1.35913,-0.79624 -0.24671,-0.10427 -0.49433,-0.0541 -0.74035,-0.20178 -0.10373,-0.0624 -0.19554,-0.31864 -0.2976,-0.42173 -0.26022,-0.26272 -0.52597,-0.44421 -0.79117,-0.55625 -0.26773,-0.11308 -0.52305,-0.36775 -0.79117,-0.55626 -0.18111,-0.12741 -0.39101,0.0114 -0.56796,-0.23998"
     id="path5043-8-3-2-07" /><path
     style="fill:none;fill-opacity:1;stroke:#15bd13;stroke-width:0.989395;stroke-dasharray:none;stroke-opacity:1"
     d="m 106.35574,110.47824 c -2.10721,-3.88181 -4.21442,-7.76362 -6.32163,-11.645414 -0.409738,-0.75481 -0.81947,-1.5096 -1.229205,-2.2644 -0.161555,-0.29761 -0.358748,-0.81684 -0.526805,-0.97045 -0.264265,-0.24154 -0.57012,-0.14081 -0.83512,-0.38303 -0.101724,-0.093 -0.190371,-0.48296 -0.292667,-0.53913 -0.05787,-0.0318 -0.09697,0.27731 -0.154151,0.29376 -0.334579,0.0963 -0.733269,-0.6298 -1.069253,-0.81435 -0.194097,-0.10664 -0.3889,-0.0553 -0.582447,-0.20637 -0.08161,-0.0638 -0.15383,-0.32589 -0.23413,-0.43132 -0.204723,-0.2687 -0.413787,-0.45432 -0.622428,-0.56892 -0.210633,-0.11564 -0.411496,-0.37611 -0.622427,-0.56891 -0.142483,-0.1303 -0.307619,0.0117 -0.446825,-0.24543"
     id="path5043-8-3-2-55" /></svg>
