<?xml version="1.0" encoding="UTF-8" standalone="no"?>
<!-- Created with Inkscape (http://www.inkscape.org/) -->

<svg
   width="210mm"
   height="297mm"
   viewBox="0 0 210 297"
   version="1.1"
   id="svg5"
   inkscape:version="1.2.1 (9c6d41e410, 2022-07-14)"
   sodipodi:docname="zad 4.svg"
   xmlns:inkscape="http://www.inkscape.org/namespaces/inkscape"
   xmlns:sodipodi="http://sodipodi.sourceforge.net/DTD/sodipodi-0.dtd"
   xmlns="http://www.w3.org/2000/svg"
   xmlns:svg="http://www.w3.org/2000/svg">
  <sodipodi:namedview
     id="namedview7"
     pagecolor="#ffffff"
     bordercolor="#000000"
     borderopacity="0.25"
     inkscape:showpageshadow="2"
     inkscape:pageopacity="0.0"
     inkscape:pagecheckerboard="0"
     inkscape:deskcolor="#d1d1d1"
     inkscape:document-units="mm"
     showgrid="false"
     inkscape:zoom="0.74564394"
     inkscape:cx="307.11709"
     inkscape:cy="454.64059"
     inkscape:window-width="1920"
     inkscape:window-height="1017"
     inkscape:window-x="-8"
     inkscape:window-y="-8"
     inkscape:window-maximized="1"
     inkscape:current-layer="layer1" />
  <defs
     id="defs2">
    <inkscape:path-effect
       effect="skeletal"
       id="path-effect2333"
       is_visible="true"
       lpeversion="1"
       pattern="#path2327"
       copytype="repeated_stretched"
       prop_scale="1"
       scale_y_rel="false"
       spacing="0"
       normal_offset="0"
       tang_offset="0"
       prop_units="false"
       vertical_pattern="false"
       hide_knot="false"
       fuse_tolerance="0" />
    <inkscape:path-effect
       effect="spiro"
       id="path-effect2331"
       is_visible="true"
       lpeversion="1" />
    <inkscape:path-effect
       effect="skeletal"
       id="path-effect2305"
       is_visible="true"
       lpeversion="1"
       pattern="#path1317"
       copytype="repeated"
       prop_scale="1"
       scale_y_rel="false"
       spacing="0"
       normal_offset="0"
       tang_offset="0"
       prop_units="false"
       vertical_pattern="false"
       hide_knot="false"
       fuse_tolerance="0" />
    <inkscape:path-effect
       effect="spiro"
       id="path-effect2303"
       is_visible="true"
       lpeversion="1" />
    <inkscape:path-effect
       effect="skeletal"
       id="path-effect2091"
       is_visible="true"
       lpeversion="1"
       pattern="M 0,0 H 1"
       copytype="repeated"
       prop_scale="1"
       scale_y_rel="false"
       spacing="0"
       normal_offset="0"
       tang_offset="0"
       prop_units="false"
       vertical_pattern="false"
       hide_knot="false"
       fuse_tolerance="0" />
    <inkscape:path-effect
       effect="spiro"
       id="path-effect2089"
       is_visible="true"
       lpeversion="1" />
    <inkscape:path-effect
       effect="skeletal"
       id="path-effect1489"
       is_visible="true"
       lpeversion="1"
       pattern="M 14.107581,6.521532 A 7.0537906,6.5215336 0 0 1 7.053789,13.043067 7.0537906,6.5215336 0 0 1 0,6.521532 7.0537906,6.5215336 0 0 1 7.053789,0 7.0537906,6.5215336 0 0 1 14.107581,6.521532 Z"
       copytype="single_stretched"
       prop_scale="1"
       scale_y_rel="false"
       spacing="0"
       normal_offset="0"
       tang_offset="0"
       prop_units="false"
       vertical_pattern="false"
       hide_knot="false"
       fuse_tolerance="0" />
    <inkscape:path-effect
       effect="spiro"
       id="path-effect1219"
       is_visible="true"
       lpeversion="1" />
  </defs>
  <g
     inkscape:label="Warstwa 1"
     inkscape:groupmode="layer"
     id="layer1">
    <ellipse
       style="fill:#0ce808;fill-opacity:1;stroke:#000000;stroke-width:0.676288;stroke-opacity:1"
       id="path1317"
       cx="148.32257"
       cy="46.661285"
       rx="7.0537906"
       ry="6.5215335"
       class="UnoptimicedTransforms"
       transform="matrix(0.99931647,0,0,1.0266271,-86.834101,-38.323101)" />
    <circle
       style="fill:#0ce808;fill-opacity:1;stroke:#000000;stroke-width:1.3;stroke-opacity:1"
       id="path2327"
       cx="24.306452"
       cy="37.080647"
       r="11.532258"
       class="UnoptimicedTransforms"
       transform="matrix(0.78113532,0,0,0.79651994,2.6585334,5.0613012)" />
    <g
       id="g2366">
      <path
         style="fill:#0ce808;fill-opacity:1;stroke:#000000;stroke-width:1.3;stroke-opacity:1"
         d="m 73.075961,126.63251 c -0.781803,3.61382 -4.479902,5.87614 -8.226319,5.11865 -3.7464,-0.75748 -6.275108,-4.27878 -5.591579,-7.91245 0.683531,-3.63368 4.359848,-5.99791 8.245259,-5.21233 3.885394,0.78559 6.354441,4.39233 5.572639,8.00613 z m 13.737102,3.1673 c -0.879438,3.5913 -4.637484,5.75259 -8.362035,4.89384 -3.724545,-0.85875 -6.156869,-4.44733 -5.375067,-8.06114 0.781803,-3.6138 4.52085,-5.87749 8.383493,-4.9869 3.862638,0.89059 6.233047,4.5629 5.353609,8.1542 z m 13.646237,3.53835 c -0.976435,3.56615 -4.79166,5.62481 -8.491562,4.66546 -3.69991,-0.95935 -6.034113,-4.61251 -5.154675,-8.20381 0.879438,-3.5913 4.678444,-5.75284 8.515537,-4.75792 3.837101,0.99493 6.10714,4.73013 5.1307,8.29627 z m 13.55209,3.89671 c -0.66653,2.28153 -2.54711,3.98333 -4.93385,4.53762 0,0 0,0 0,0 -1.21017,0.28619 -2.48299,0.2537 -3.68784,-0.0938 -3.67249,-1.05928 -5.906837,-4.77435 -4.9304,-8.3405 0.97643,-3.56614 4.83263,-5.62395 8.64139,-4.52536 1.23709,0.35682 2.3581,1.02481 3.24113,1.93083 0,0 0,0 0,0 1.712,1.74385 2.32734,4.23967 1.66957,6.49124 z m 13.7866,2.80407 c -0.10361,1.74855 -0.9325,3.38483 -2.51154,4.45843 -1.62469,1.12383 -3.80825,1.50567 -5.88043,1.05971 -4.26853,-0.91866 -6.42164,-4.80673 -5.39463,-8.32221 1.04876,-3.58995 4.90681,-5.48482 8.2461,-4.74354 1.64936,0.36614 3.06503,1.33913 4.081,2.74482 0.96024,1.32837 1.56187,3.07524 1.4595,4.80279 z m 13.65984,-2.63025 c 0.42204,0.77492 0.67816,1.63026 0.6873,2.54003 0.0267,2.81146 -2.44309,5.60934 -6.13055,6.30294 -2.35164,0.44233 -4.59519,-0.12688 -6.1331,-1.39298 -1.53795,-1.26614 -2.18862,-3.04557 -2.08349,-4.81974 0.21809,-3.68047 3.32984,-6.53548 5.87427,-6.94477 2.0103,-0.32337 4.22728,0.54282 6.14393,2.27697 0.64129,0.58243 1.22093,1.26504 1.64164,2.03755 z m 8.28257,-10.82689 c 1.7107,0.30722 3.26641,1.35141 3.92596,3.42227 0.6543,2.05439 0.22326,4.68762 -1.40486,6.85548 -0.0534,0.071 -0.10783,0.14128 -0.16316,0.21066 -1.70421,2.13689 -4.06473,3.21559 -6.17279,3.13922 -2.11506,-0.0766 -3.62308,-1.24986 -4.46772,-2.80074 -0.83546,-1.53404 -1.03779,-3.42218 -0.95342,-4.97202 0.086,-1.58009 0.45351,-2.83026 1.07512,-3.64642 0.0214,-0.0282 0.0433,-0.0559 0.0654,-0.0833 0.6308,-0.77612 1.72038,-1.2771 3.17419,-1.68361 1.37278,-0.38385 3.28266,-0.73579 4.92127,-0.44151 z m -5.28645,-12.12186 c 0.73957,-1.29825 1.96845,-2.33134 3.81463,-2.42554 1.82451,-0.0931 3.98356,0.80523 5.59358,2.8116 0,0 0,0 0,0 0.54076,0.67955 0.98973,1.43774 1.3271,2.24397 1.64334,3.92719 0.24425,7.58317 -2.04623,8.94346 -1.08867,0.64229 -2.27108,0.75158 -3.40263,0.54837 -1.12731,-0.20246 -2.19715,-0.71011 -3.14378,-1.25356 -1.95142,-1.11355 -3.35155,-2.1404 -3.74374,-3.08961 -0.0871,-0.21084 -0.13172,-0.42762 -0.14557,-0.66765 0,0 0,0 0,0 -0.0131,-0.59053 0.20003,-1.76252 0.44691,-2.99704 0.24514,-1.22579 0.59283,-2.8731 1.29973,-4.114 z m -13.37082,1.29601 c -0.45611,-0.78381 -0.74206,-1.66231 -0.7857,-2.59497 -0.11164,-2.4099 1.4958,-5.09118 5.09251,-6.21323 0.42002,-0.1325 0.85523,-0.23251 1.30134,-0.29805 2.64999,-0.38928 5.3209,0.49038 6.96145,2.09119 1.91473,1.92749 1.71829,4.1092 0.80122,5.71905 -0.85519,1.50121 -2.63158,2.97169 -3.52604,3.89593 -0.88209,0.85412 -1.49611,1.46449 -2.33735,1.57478 -0.14597,0.0191 -0.29758,0.0236 -0.45695,0.0134 -1.33178,-0.062 -3.4746,-0.71507 -5.26899,-2.15943 -0.70534,-0.56679 -1.32372,-1.24198 -1.78149,-2.02865 z m -11.8812,7.55176 c -0.8937,-2.06507 -0.75748,-4.79516 0.0836,-6.5688 0,0 0,0 0,0 0.45151,-0.96586 1.13718,-1.81795 2.09775,-2.50029 1.43443,-1.01895 3.41937,-1.59046 5.34415,-1.33896 1.95096,0.25493 3.4506,1.30093 4.35568,2.85629 0.87338,1.5009 1.14477,3.3879 0.85609,5.0376 -0.2956,1.68927 -1.19452,3.24438 -2.81939,4.38823 -1.07695,0.75814 -2.41239,1.28146 -3.80306,1.43392 0,0 0,0 0,0 -2.94053,0.34173 -5.15968,-1.10091 -6.11484,-3.30799 z m -12.98218,-1.8401 c 0.84745,-0.67666 1.93391,-1.17556 2.81161,-1.6324 1.80329,-0.91124 2.93919,-1.92456 3.71178,-1.93475 0.0737,-5.1e-4 0.1486,0.004 0.22596,0.0131 0.65309,0.0789 1.67388,0.60473 2.92035,1.55977 1.25152,0.94353 2.60298,2.19497 3.31248,3.83441 0.69991,1.61727 0.70971,3.54382 -0.58903,5.26641 -1.30555,1.72976 -3.80323,2.92056 -6.89552,2.64909 -0.33142,-0.0291 -0.66377,-0.075 -0.99505,-0.13754 -4.11862,-0.77081 -6.41841,-4.16751 -6.17649,-6.71935 0.11264,-1.26875 0.80796,-2.20729 1.67391,-2.89871 z m -1.4082,-13.4422 c 0.94393,-0.58265 2.07548,-0.92624 3.32014,-0.5524 1.22161,0.36693 2.51635,1.45647 3.23223,3.47189 0.54574,1.87277 0.57247,3.71905 0.31015,4.86077 -0.0302,0.26227 -0.0714,0.48789 -0.11995,0.67623 -0.15177,0.58895 -0.36785,0.7825 -0.55578,0.76167 0,0 0,0 0,0 -0.55274,-0.10729 -1.25415,0.38315 -2.07921,1.28726 -0.72976,0.79969 -1.70467,2.14254 -2.69938,2.93678 -1.06909,0.85362 -2.49634,1.38368 -4.1406,0.76032 -1.61025,-0.61047 -3.248206,-2.35809 -3.722648,-5.27796 0,0 0,0 0,0 -0.155272,-1.52634 -0.05162,-2.85609 0.189954,-3.80186 0.07691,-0.30112 0.167065,-0.56191 0.266389,-0.78358 0.315789,-1.016 0.817783,-1.16081 1.307095,-1.18041 1.32992,0.0452 2.79335,-1.98698 4.69161,-3.15871 z m -12.661289,-1.90715 c -0.415692,-0.79696 -0.660385,-1.68044 -0.630825,-2.61722 0.07887,-2.41822 2.492939,-5.234979 6.539275,-5.591836 0.506883,-0.0448 1.021157,-0.04371 1.536455,0.0044 3.061434,0.285889 5.636344,2.173576 6.751274,4.430686 1.37065,2.74044 -0.0205,4.74635 -1.53489,5.68111 -1.60507,0.99075 -3.62551,1.43839 -4.66649,2.16204 -0.959691,0.59397 -1.377304,1.15613 -1.872832,1.09015 -0.08464,-0.0113 -0.169886,-0.0403 -0.259222,-0.0872 -0.535764,-0.24907 -2.691385,-1.48047 -4.224742,-2.95922 -0.640935,-0.61506 -1.220907,-1.31331 -1.638003,-2.11296 z m -10.531804,9.24248 c -1.38457,-1.11444 -2.244039,-2.77169 -2.212193,-4.7158 0.03176,-1.93898 0.961763,-3.92229 2.587008,-5.37964 0.591151,-0.53009 1.253836,-0.97097 1.959261,-1.30434 0,0 10e-7,0 10e-7,0 1.562525,-0.75646 3.345996,-0.96953 4.886646,-0.54827 1.553112,0.42468 2.640031,1.41905 3.311081,2.70557 0.649991,1.24616 0.905184,2.75921 0.893148,4.08574 -0.01226,1.35149 -0.296878,2.63576 -0.995944,3.706 0,0 0,0 0,0 -0.314073,0.49572 -0.688613,0.93962 -1.118862,1.32497 -2.267869,2.03119 -6.453281,2.42527 -9.310146,0.12577 z m -6.953271,12.19686 c -1.664998,-0.62219 -3.000777,-1.92459 -3.582445,-3.78145 -0.579974,-1.85146 -0.322285,-4.02474 0.753868,-5.91235 1.076174,-1.88764 2.813952,-3.21462 4.701745,-3.658 1.893011,-0.44461 3.695285,0.0403 5.080103,1.15494 2.854612,2.29768 3.373167,6.47337 1.85199,9.13871 -1.519309,2.66206 -5.375511,4.33982 -8.805261,3.05815 z m -2.692183,13.77225 c -1.7766,-0.0537 -3.461749,-0.85714 -4.609135,-2.42677 -1.144359,-1.56548 -1.599098,-3.70788 -1.182338,-5.85 0.179135,-0.92075 0.51267,-1.80061 0.979453,-2.58792 0,0 0,0 0,0 1.767391,-2.97071 4.861603,-3.89507 7.504203,-2.90756 2.617819,0.97826 4.387763,3.55634 4.715746,6.00558 0,0 0,0 0,0 0.09125,0.6915 0.07201,1.3791 -0.05854,2.04874 -0.582867,2.98972 -3.683636,5.82878 -7.349391,5.71793 z m 1.81106,13.92218 c -1.70323,0.5083 -3.554217,0.27546 -5.138306,-0.8548 -1.579455,-1.12696 -2.684882,-3.01605 -2.965124,-5.17084 -0.280248,-2.15483 0.305442,-4.26134 1.543734,-5.75358 1.241704,-1.49635 2.971744,-2.1967 4.748636,-2.14296 3.663022,0.11076 6.595028,3.1289 6.9892,6.17222 0.39361,3.03899 -1.669822,6.70298 -5.17814,7.74996 z"
         id="path2301"
         inkscape:path-effect="#path-effect2303;#path-effect2305"
         inkscape:original-d="m 59.258063,123.83871 c 8.871233,-17.032 42.580907,29.45188 51.451617,12.41935 8.8707,-17.03252 8.27983,-30.8707 31.58064,-22.70968 23.30081,8.16103 -21.76318,2.48414 -37.6129,3.54839 -15.849727,1.06426 -1.77393,-0.35457 1.06451,-6.03226 2.83845,-5.67768 -11.23629,-1.65565 -17.741931,-2.12903 -6.505641,-0.47338 -7.687907,48.61317 -12.774193,50.3871"
         class="UnoptimicedTransforms"
         transform="translate(-5.3225807,-42.935484)"
         sodipodi:nodetypes="csssssc" />
      <path
         style="fill:#0ce808;fill-opacity:1;stroke:#000000;stroke-width:1.3;stroke-opacity:1"
         d="m 78.560675,43.309025 c -1.550042,-1.865174 -2.49031,-4.203621 -1.973872,-6.738999 0.513738,-2.522131 2.453205,-4.887143 5.452228,-6.166172 2.99925,-1.279125 6.452955,-1.194522 9.182151,0.150386 2.736499,1.348508 4.221921,3.663302 4.463893,6.109257 0.03749,0.378965 0.04572,0.758427 0.02741,1.13643 -0.03606,0.74434 -0.174698,1.477746 -0.391238,2.187935 0,0 0,0 0,0 -1.059556,3.474929 -3.911911,6.401708 -6.188331,7.354834 -1.624157,0.680027 -3.30077,0.617334 -5.172004,-0.11619 -1.790941,-0.702048 -3.889085,-2.099099 -5.400241,-3.917481 z M 95.470721,40.98211 c -0.10127,-2.423034 0.569444,-4.852517 2.517518,-6.555274 1.937906,-1.693868 4.913981,-2.398405 8.074141,-1.59688 3.1604,0.801586 5.85549,2.96323 7.21023,5.687796 1.35838,2.731885 1.13581,5.473332 -0.15523,7.564927 -0.11832,0.191689 -0.24494,0.377377 -0.37915,0.557062 -0.63323,0.847689 -1.42783,1.551658 -2.30697,2.12642 -2.91049,1.902714 -6.69413,2.435504 -8.99966,1.834631 -1.7037,-0.444024 -2.999059,-1.510516 -4.042387,-3.228646 -0.998609,-1.644488 -1.819757,-4.027686 -1.918492,-6.390036 z m 14.857059,8.40429 c 1.38896,-1.987962 3.39571,-3.51276 5.97721,-3.685346 2.56803,-0.171687 5.36156,1.07258 7.38826,3.626116 2.02686,2.553727 2.85915,5.907009 2.28423,8.895212 -0.57648,2.996259 -2.41592,5.041216 -4.71099,5.92129 -0.0988,0.03787 -0.19817,0.07358 -0.29818,0.107174 -1.23371,0.414344 -2.53859,0.500719 -3.81799,0.365895 -3.33842,-0.351945 -6.4875,-2.143616 -7.91539,-3.966917 -1.08543,-1.386001 -1.46892,-3.019609 -1.25674,-5.018708 0.2031,-1.913509 0.99536,-4.306458 2.34959,-6.244716 z m 6.71705,15.692211 c 2.30998,-0.738273 4.83028,-0.733479 6.98753,0.694703 2.14601,1.420743 3.61279,4.10387 3.67589,7.363185 0.0631,3.259558 -1.30853,6.430818 -3.57786,8.458469 -2.27547,2.033138 -4.97824,2.54376 -7.33687,1.851584 0,0 -0.0139,-0.0041 -0.0139,-0.0041 -1.44783,-0.429353 -2.70712,-1.27507 -3.76028,-2.324172 -2.30681,-2.295853 -3.6446,-5.48722 -3.67375,-7.745829 -0.0227,-1.760123 0.66286,-3.291819 2.04391,-4.752987 1.32199,-1.398679 3.40306,-2.821 5.65538,-3.540846 z m -4.17529,16.55442 c 2.31622,0.815288 4.24619,2.34512 5.16119,4.750514 0.91149,2.396174 0.61713,5.168673 -0.30179,7.317819 -0.26684,0.624092 -0.5796,1.179928 -0.92193,1.660896 -0.89142,1.447039 -2.16826,2.09261 -3.76323,2.516247 -1.31341,0.348852 -3.72539,0.742434 -5.49397,0.801388 -2.41773,0.08059 -4.87977,-0.38432 -6.49043,-2.605907 -1.589581,-2.192508 -1.897793,-5.64291 -0.69247,-8.746255 0.37821,-0.97377 0.88599,-1.855139 1.49525,-2.612461 1.48235,-2.015684 3.29894,-3.110591 5.20118,-3.52812 1.84276,-0.404475 3.95011,-0.207451 5.8062,0.445879 z m -9.63592,16.931101 c 0.37627,-0.05864 0.75377,-0.08186 1.13048,-0.07545 0.75008,0.01312 1.48825,0.142188 2.20836,0.337784 0,0 0,0 0,0 1.61522,0.438373 3.56698,1.37617 4.79706,1.95334 1.34228,0.62983 2.54355,1.18217 3.15017,1.66798 0.28526,0.22845 0.48392,0.46538 0.61013,0.74447 0.31195,0.70844 0.36442,1.83579 0.28052,3.4128 -0.0782,1.46903 -0.29824,3.63251 -0.84738,5.46072 -0.69198,2.30375 -2.02175,4.47725 -4.55532,5.3588 -2.50298,0.8709 -5.8764,0.24765 -8.69518,-2.44916 -0.79422,-0.75985 -1.503756,-1.65183 -2.0957,-2.64872 -1.793334,-3.04414 -2.05151,-6.51635 -1.052011,-9.25104 1.002648,-2.7433 3.001841,-4.189408 5.068871,-4.511528 z m 9.7777,17.538658 c 0.015,-0.0725 0.0311,-0.14474 0.0483,-0.2166 0.31911,-1.33183 1.02026,-2.51681 1.87079,-3.5588 1.99443,-2.44063 5.06719,-4.49792 6.80547,-4.92324 0.52439,-0.12831 1.035,-0.16615 1.55487,-0.10817 2.4407,0.26694 5.76064,2.4347 7.78466,5.83284 1.23894,2.08006 1.79256,4.55206 0.9043,6.96978 -0.8841,2.40642 -3.15087,4.4638 -6.45284,5.22977 -0.86651,0.201 -1.77553,0.30406 -2.70237,0.30244 -3.05975,-0.004 -5.92171,-1.22969 -7.79383,-3.17894 -1.87896,-1.95637 -2.44872,-4.26772 -2.0194,-6.34908 z m 19.91925,0.93353 c -0.91968,-1.37768 -1.3511,-2.9982 -1.43875,-4.62168 0,0 0,0 0,0 -0.17191,-3.12861 0.8686,-6.22375 2.27642,-7.90127 1.57763,-1.87985 3.97492,-2.49084 7.15445,-2.20957 1.24552,0.11749 2.61892,0.38339 3.90296,0.86269 2.71943,1.01509 5.0855,3.06025 5.35343,6.40157 0.17905,2.16659 -0.58746,4.56565 -2.24375,6.61443 -2.02929,2.51017 -5.02437,4.04071 -7.97939,4.18666 -2.95656,0.14602 -5.35411,-1.08408 -6.78887,-2.99857 -0.082,-0.10944 -0.16083,-0.2209 -0.2365,-0.33426 z m 15.80696,-12.01004 c -2.34663,-0.7026 -4.1643,-2.53619 -5.44674,-4.42996 -1.2714,-1.877472 -2.06638,-3.854558 -2.19892,-5.32823 -0.1353,-1.50444 0.35266,-2.687534 1.42852,-4.004093 0,0 0,0 0,0 1.14716,-1.304222 3.06197,-3.127074 5.15396,-4.254346 1.74693,-0.941327 3.73048,-1.468506 5.74185,-0.997793 2.00048,0.468162 3.88257,1.922863 5.04808,4.397195 0,0 0,10e-7 0,10e-7 0.44632,1.014547 0.74082,2.141177 0.85931,3.324509 0.35574,3.552514 -0.91038,7.039207 -3.18714,9.256707 -2.2781,2.2188 -5.04661,2.74031 -7.39892,2.03601 z m 2.88209,-19.733652 c -2.04972,1.301612 -4.62236,1.4626 -6.87135,1.209287 -2.23068,-0.25125 -4.2725,-0.906637 -5.55787,-1.850677 -1.40723,-1.033545 -2.12589,-2.523013 -2.36638,-4.631523 -0.24018,-1.888114 -0.12811,-4.260394 0.63696,-6.407224 1.28683,-3.610904 4.58601,-6.488817 9.42482,-5.269436 0,0 0,0 0,0 1.21234,0.313215 2.41193,0.884807 3.51065,1.70004 2.70049,2.003719 4.3856,5.170508 4.53139,8.332308 0.14611,3.168866 -1.2408,5.604372 -3.30822,6.917225 z M 139.28318,69.707345 c -0.69356,2.31104 -2.47298,4.17344 -4.42616,5.407028 -1.94796,1.230289 -4.08025,1.878859 -5.95702,1.783643 -2.14868,-0.109012 -4.09244,-1.189116 -5.67455,-3.155672 -1.22937,-1.508714 -2.17831,-3.475563 -2.48142,-5.564519 -0.52955,-3.649454 1.00743,-7.39164 4.94553,-8.999756 1.25581,-0.513057 2.6721,-0.755457 4.14865,-0.682014 3.02898,0.150661 5.94535,1.61342 7.80827,3.898251 1.87051,2.294137 2.34221,4.962151 1.6367,7.313039 z m -18.70891,-5.842486 c 0.422,2.400955 -0.25745,4.850846 -1.5502,6.82655 -1.29275,1.975693 -3.14849,3.422389 -5.22714,4.04492 -2.48832,0.745218 -5.26741,0.293551 -7.63807,-1.328136 -1.608,-1.090218 -2.90274,-2.64566 -3.63767,-4.481447 -1.31586,-3.286927 -0.65585,-7.064943 2.03345,-9.615461 1.03104,-0.981885 2.31281,-1.728964 3.76039,-2.16497 2.60138,-0.783527 5.5161,-0.489952 7.90958,0.827584 2.40544,1.324122 3.92451,3.472068 4.34966,5.89096 z m -19.18646,0.889474 c 1.91459,4.668972 -0.42822,10.052042 -5.077689,11.951803 -2.971951,1.21433 -6.517961,0.86144 -9.219247,-1.031557 -1.459526,-1.021519 -2.550147,-2.422208 -3.17415,-4.02963 -1.190243,-3.066048 -0.557888,-6.516266 1.428792,-9.04645 0.982234,-1.248891 2.264115,-2.224447 3.748611,-2.830276 4.674781,-1.907799 10.345365,0.234905 12.293683,4.98611 z"
         id="path2329"
         inkscape:path-effect="#path-effect2331;#path-effect2333"
         inkscape:original-d="m 77.354836,41.516127 c 17.150803,11.473384 20.344356,29.21532 37.612904,40.806453 17.26855,11.591132 -1.65565,8.871232 -9.58064,16.322581 -7.924999,7.451349 17.97875,10.881989 26.96774,16.322579 8.98898,5.4406 12.06478,-16.085756 18.09677,-24.129031 6.03199,-8.043275 -41.04274,-15.49436 -64.225805,-21.64516 -23.183058,-6.150803 -3.666403,1.301338 -2.838709,0.354838"
         class="UnoptimicedTransforms"
         transform="rotate(-166.23119,116.13708,88.0318)"
         sodipodi:nodetypes="csssssc" />
    </g>
  </g>
</svg>
