<?xml version="1.0" encoding="UTF-8" standalone="no"?>
<!-- Created with Inkscape (http://www.inkscape.org/) -->

<svg
   width="210mm"
   height="297mm"
   viewBox="0 0 210 297"
   version="1.1"
   id="svg7381"
   sodipodi:docname="5 227.svg"
   inkscape:version="1.2.1 (9c6d41e410, 2022-07-14)"
   xmlns:inkscape="http://www.inkscape.org/namespaces/inkscape"
   xmlns:sodipodi="http://sodipodi.sourceforge.net/DTD/sodipodi-0.dtd"
   xmlns="http://www.w3.org/2000/svg"
   xmlns:svg="http://www.w3.org/2000/svg">
  <sodipodi:namedview
     id="namedview7383"
     pagecolor="#ffffff"
     bordercolor="#000000"
     borderopacity="0.25"
     inkscape:showpageshadow="2"
     inkscape:pageopacity="0.0"
     inkscape:pagecheckerboard="0"
     inkscape:deskcolor="#d1d1d1"
     inkscape:document-units="mm"
     showgrid="false"
     inkscape:zoom="0.74564394"
     inkscape:cx="332.59843"
     inkscape:cy="375.51435"
     inkscape:window-width="1920"
     inkscape:window-height="1017"
     inkscape:window-x="-8"
     inkscape:window-y="-8"
     inkscape:window-maximized="1"
     inkscape:current-layer="layer1" />
  <defs
     id="defs7378">
    <inkscape:path-effect
       effect="powerstroke"
       id="path-effect9208"
       is_visible="true"
       lpeversion="1"
       offset_points="0,6.49"
       not_jump="false"
       sort_points="true"
       interpolator_type="CubicBezierJohan"
       interpolator_beta="0.2"
       start_linecap_type="zerowidth"
       linejoin_type="extrp_arc"
       miter_limit="4"
       scale_width="1"
       end_linecap_type="zerowidth" />
    <inkscape:path-effect
       effect="fill_between_many"
       method="bsplinespiro"
       linkedpaths="#path9206,0,1"
       id="path-effect9210" />
  </defs>
  <g
     inkscape:label="Warstwa 1"
     inkscape:groupmode="layer"
     id="layer1">
    <path
       id="path7917"
       style="fill:#008000;stroke-width:1.3"
       d="M 12.791984 163.26549 C 12.08142 163.27168 11.707185 163.57875 11.70988 164.29023 C 11.729171 169.38546 33.241989 191.61311 54.112976 191.61311 C 69.666548 191.61311 88.965969 190.80043 95.708887 190.11088 C 98.077861 190.83698 121.39459 191.94797 139.57649 191.94797 C 160.44748 191.94797 181.96082 169.72031 181.98011 164.62509 C 181.99931 159.5657 162.94666 174.96322 139.57649 173.49639 C 121.22299 172.34444 102.36748 186.63659 97.198718 189.36932 C 93.332279 187.86824 73.443031 171.94829 54.112976 173.16152 C 34.029243 174.42207 17.134321 163.22766 12.791984 163.26549 z " />
    <path
       id="path7917-6"
       style="fill:#008000;stroke-width:0.645529"
       d="m 62.209765,25.755548 c -0.290018,0.0036 -0.442763,0.189247 -0.441663,0.619067 0.0079,3.078134 8.788364,16.506316 17.306889,16.506316 6.348215,0 14.225303,-0.490956 16.977435,-0.907528 0.966903,0.438652 10.483664,1.109824 17.904634,1.109824 8.51852,0 17.29923,-13.428189 17.3071,-16.506316 0.008,-3.056483 -7.76853,6.245478 -17.3071,5.359335 -7.49101,-0.695916 -15.186916,7.938267 -17.296557,9.589166 -1.578093,-0.906834 -9.69592,-10.524405 -17.585512,-9.791468 -8.197206,0.761525 -15.092895,-6.00125 -16.865226,-5.978396 z" />
    <g
       id="g9088">
      <path
         d="M 12.792 163.265 C 12.0814 163.272 11.7072 163.579 11.7099 164.29 C 11.7102 164.37 11.7157 164.454 11.7264 164.541 C 12.4013 170.075 33.5681 191.613 54.113 191.613 C 55.6347 191.613 57.1923 191.605 58.7705 191.591 C 73.3228 191.455 89.6257 190.733 95.7089 190.111 C 95.9744 190.192 96.5029 190.278 97.2577 190.367 C 103.036 191.048 122.076 191.889 137.917 191.945 C 138.474 191.947 139.028 191.948 139.576 191.948 C 160.447 191.948 181.961 169.72 181.98 164.625 C 181.984 163.626 181.245 163.425 179.876 163.733 C 174.31 164.987 158.334 174.674 139.576 173.496 C 139.11 173.467 138.644 173.448 138.178 173.438 C 120.274 173.063 102.236 186.706 97.1987 189.369 C 96.8693 189.241 96.4235 189.009 95.8717 188.691 C 89.947 185.28 71.796 172.052 54.113 173.162 C 53.5785 173.195 53.0463 173.22 52.5166 173.236 C 33.1389 173.834 17.0188 163.229 12.792 163.265 Z"
         style="fill:#008000;stroke-width:1.3"
         id="path9074" />
      <path
         d="M 21.0283 140.347 C 20.3922 140.353 20.0552 140.634 20.0535 141.286 C 20.0533 141.358 20.0578 141.434 20.0667 141.514 C 20.6303 146.597 39.509 166.479 57.934 166.784 C 59.315 166.81 60.7264 166.818 62.1546 166.806 C 75.2618 166.693 90.0465 166.021 95.6516 165.437 C 95.9153 165.499 96.3941 165.566 97.0569 165.635 C 102.033 166.275 119.486 167.088 133.923 167.135 C 134.428 167.136 134.93 167.135 135.428 167.132 C 154.062 167.023 173.231 146.77 173.486 141.814 C 173.516 140.902 172.914 140.667 171.774 140.874 C 167.137 141.42 152.583 150.966 135.409 149.91 C 134.987 149.884 134.564 149.866 134.141 149.854 C 118.057 149.434 101.832 162.047 97.1927 164.658 C 96.8862 164.58 96.4867 164.41 96.0032 164.163 C 90.8107 161.174 74.4036 148.637 58.3906 149.584 C 57.9061 149.612 57.4235 149.635 56.943 149.652 C 39.4287 150.278 24.846 140.313 21.0283 140.347 Z"
         style="fill:#008000;stroke-width:1.3"
         id="path9076" />
      <path
         d="M 29.2646 117.429 C 28.7029 117.434 28.4033 117.69 28.3971 118.282 C 28.3965 118.346 28.3998 118.414 28.407 118.486 C 28.8593 123.119 45.4499 141.345 61.755 141.955 C 62.9953 142.007 64.2604 142.031 65.5387 142.021 C 77.2008 141.93 90.4674 141.308 95.5944 140.763 C 95.8563 140.807 96.2853 140.854 96.856 140.903 C 101.03 141.503 116.896 142.287 129.93 142.324 C 130.383 142.326 130.833 142.323 131.28 142.316 C 147.676 142.098 164.502 123.82 164.992 119.003 C 165.049 118.178 164.584 117.909 163.672 118.014 C 159.964 117.854 146.832 127.258 131.242 126.324 C 130.863 126.301 130.484 126.284 130.104 126.271 C 115.84 125.804 101.427 137.388 97.1866 139.946 C 96.9031 139.918 96.55 139.811 96.1346 139.636 C 91.6744 137.068 77.0111 125.223 62.6683 126.006 C 62.2338 126.03 61.8007 126.051 61.3694 126.069 C 45.7186 126.721 32.6732 117.397 29.2646 117.429 Z"
         style="fill:#008000;stroke-width:1.3"
         id="path9078" />
      <path
         d="M 37.5009 94.5105 C 37.0136 94.5153 36.7514 94.7458 36.7407 95.2774 C 36.7397 95.3346 36.7419 95.3948 36.7473 95.458 C 37.0883 99.6411 51.3907 116.21 65.576 117.125 C 66.6755 117.204 67.7944 117.243 68.9228 117.236 C 79.1398 117.168 90.8883 116.596 95.5371 116.089 C 95.7973 116.114 96.1765 116.141 96.6551 116.17 C 100.028 116.73 114.306 117.486 125.937 117.514 C 126.337 117.515 126.736 117.51 127.132 117.499 C 141.291 117.173 155.772 100.87 156.499 96.1919 C 156.581 95.4533 156.254 95.1518 155.57 95.1551 C 152.791 94.2868 141.081 103.55 127.075 102.738 C 126.739 102.718 126.404 102.702 126.067 102.687 C 113.623 102.175 101.022 112.729 97.1805 115.235 C 96.92 115.256 96.6132 115.211 96.2661 115.108 C 92.5382 112.963 79.6187 101.808 66.946 102.429 C 66.5614 102.447 66.1779 102.466 65.7958 102.485 C 52.0084 103.165 40.5004 94.4807 37.5009 94.5105 Z"
         style="fill:#008000;stroke-width:1.3"
         id="path9080" />
      <path
         d="M 45.7372 71.5922 C 45.3243 71.5964 45.0994 71.8015 45.0843 72.2732 C 45.0828 72.3228 45.0839 72.3752 45.0875 72.4302 C 45.3173 76.1633 57.3316 91.076 69.397 92.296 C 70.3558 92.4015 71.3284 92.4557 72.3068 92.4508 C 81.0787 92.4057 91.3091 91.884 95.4798 91.4144 C 95.7383 91.4208 96.0677 91.4288 96.4542 91.4381 C 99.0248 91.9574 111.716 92.685 121.944 92.7038 C 122.292 92.7045 122.638 92.6975 122.984 92.6833 C 134.905 92.2479 147.043 77.9203 148.005 73.3808 C 148.113 72.7289 147.924 72.3941 147.468 72.2957 C 145.618 70.72 135.33 79.842 122.907 79.1519 C 122.616 79.1356 122.323 79.1195 122.031 79.1035 C 111.406 78.5458 100.618 88.0695 97.1745 90.5235 C 96.9369 90.5943 96.6764 90.6123 96.3976 90.5806 C 93.4019 88.8569 82.2263 78.3939 71.2236 78.8509 C 70.889 78.8647 70.5551 78.8814 70.2222 78.9013 C 58.2982 79.6084 48.3277 71.5647 45.7372 71.5922 Z"
         style="fill:#008000;stroke-width:1.3"
         id="path9082" />
      <path
         d="M 53.9735 48.6739 C 53.6351 48.6776 53.4475 48.8572 53.4279 49.2689 C 53.426 49.3111 53.426 49.3556 53.4278 49.4024 C 53.5464 52.6854 63.2725 65.9417 73.218 67.4667 C 74.036 67.5986 74.8625 67.6683 75.6909 67.6659 C 83.0177 67.6433 91.73 67.1717 95.4226 66.7403 C 95.6793 66.7279 95.959 66.7164 96.2533 66.7057 C 98.0221 67.1847 109.126 67.8841 117.95 67.8935 C 118.246 67.8938 118.541 67.8849 118.836 67.8671 C 128.52 67.3229 138.313 54.9703 139.511 50.5698 C 139.646 50.0046 139.594 49.6364 139.366 49.4363 C 138.445 47.1533 129.579 56.1341 118.74 55.5658 C 118.492 55.5527 118.243 55.5375 117.994 55.5199 C 109.189 54.9165 100.213 63.4104 97.1684 65.8121 C 96.9539 65.9325 96.7397 66.0131 96.529 66.053 C 94.2656 64.7512 84.8338 54.9795 75.5013 55.2732 C 75.2166 55.2821 74.9323 55.2968 74.6486 55.3176 C 64.588 56.0519 56.1549 48.6487 53.9735 48.6739 Z"
         style="fill:#008000;stroke-width:1.3"
         id="path9084" />
      <path
         d="M 62.2098 25.7555 C 61.9458 25.7588 61.7956 25.9129 61.7715 26.2646 C 61.7691 26.2994 61.768 26.336 61.7681 26.3746 C 61.7754 29.2076 69.2134 40.8075 77.039 42.6374 C 77.7163 42.7957 78.3965 42.8809 79.075 42.8809 C 84.9567 42.8809 92.1508 42.4595 95.3653 42.0662 C 95.6203 42.035 95.8502 42.004 96.0524 41.9734 C 97.0193 42.4121 106.536 43.0832 113.957 43.0832 C 114.2 43.0832 114.444 43.0723 114.687 43.0509 C 122.134 42.3979 129.583 32.0203 131.017 27.7587 C 131.178 27.2802 131.263 26.8788 131.264 26.5769 C 131.272 23.5865 123.828 32.4262 114.573 31.9796 C 114.368 31.9698 114.163 31.9554 113.957 31.9362 C 106.972 31.2873 99.8082 38.7513 97.1623 41.1006 C 96.9708 41.2707 96.8029 41.414 96.6605 41.5254 C 95.1293 40.6455 87.4414 31.5651 79.779 31.6955 C 79.5442 31.6995 79.3095 31.7122 79.075 31.7339 C 70.8778 32.4955 63.9821 25.7327 62.2098 25.7555 Z"
         style="fill:#008000;stroke-width:1.3"
         id="path9086" />
    </g>
    <g
       id="g9140">
      <path
         d="M 12.792 163.265 C 12.0814 163.272 11.7072 163.579 11.7099 164.29 C 11.7102 164.37 11.7157 164.454 11.7264 164.541 C 12.4013 170.075 33.5681 191.613 54.113 191.613 C 55.6347 191.613 57.1923 191.605 58.7705 191.591 C 73.3228 191.455 89.6257 190.733 95.7089 190.111 C 95.9744 190.192 96.5029 190.278 97.2577 190.367 C 103.036 191.048 122.076 191.889 137.917 191.945 C 138.474 191.947 139.028 191.948 139.576 191.948 C 160.447 191.948 181.961 169.72 181.98 164.625 C 181.984 163.626 181.245 163.425 179.876 163.733 C 174.31 164.987 158.334 174.674 139.576 173.496 C 139.11 173.467 138.644 173.448 138.178 173.438 C 120.274 173.063 102.236 186.706 97.1987 189.369 C 96.8693 189.241 96.4235 189.009 95.8717 188.691 C 89.947 185.28 71.796 172.052 54.113 173.162 C 53.5785 173.195 53.0463 173.22 52.5166 173.236 C 33.1389 173.834 17.0188 163.229 12.792 163.265 Z"
         style="fill:#008000;stroke-width:1.3"
         id="path9126" />
      <path
         d="M 21.0283 140.347 C 20.3922 140.353 20.0552 140.634 20.0535 141.286 C 20.0533 141.358 20.0578 141.434 20.0667 141.514 C 20.6303 146.597 39.509 166.479 57.934 166.784 C 59.315 166.81 60.7264 166.818 62.1546 166.806 C 75.2618 166.693 90.0465 166.021 95.6516 165.437 C 95.9153 165.499 96.3941 165.566 97.0569 165.635 C 102.033 166.275 119.486 167.088 133.923 167.135 C 134.428 167.136 134.93 167.135 135.428 167.132 C 154.062 167.023 173.231 146.77 173.486 141.814 C 173.516 140.902 172.914 140.667 171.774 140.874 C 167.137 141.42 152.583 150.966 135.409 149.91 C 134.987 149.884 134.564 149.866 134.141 149.854 C 118.057 149.434 101.832 162.047 97.1927 164.658 C 96.8862 164.58 96.4867 164.41 96.0032 164.163 C 90.8107 161.174 74.4036 148.637 58.3906 149.584 C 57.9061 149.612 57.4235 149.635 56.943 149.652 C 39.4287 150.278 24.846 140.313 21.0283 140.347 Z"
         style="fill:#008000;stroke-width:1.3"
         id="path9128" />
      <path
         d="M 29.2646 117.429 C 28.7029 117.434 28.4033 117.69 28.3971 118.282 C 28.3965 118.346 28.3998 118.414 28.407 118.486 C 28.8593 123.119 45.4499 141.345 61.755 141.955 C 62.9953 142.007 64.2604 142.031 65.5387 142.021 C 77.2008 141.93 90.4674 141.308 95.5944 140.763 C 95.8563 140.807 96.2853 140.854 96.856 140.903 C 101.03 141.503 116.896 142.287 129.93 142.324 C 130.383 142.326 130.833 142.323 131.28 142.316 C 147.676 142.098 164.502 123.82 164.992 119.003 C 165.049 118.178 164.584 117.909 163.672 118.014 C 159.964 117.854 146.832 127.258 131.242 126.324 C 130.863 126.301 130.484 126.284 130.104 126.271 C 115.84 125.804 101.427 137.388 97.1866 139.946 C 96.9031 139.918 96.55 139.811 96.1346 139.636 C 91.6744 137.068 77.0111 125.223 62.6683 126.006 C 62.2338 126.03 61.8007 126.051 61.3694 126.069 C 45.7186 126.721 32.6732 117.397 29.2646 117.429 Z"
         style="fill:#008000;stroke-width:1.3"
         id="path9130" />
      <path
         d="M 37.5009 94.5105 C 37.0136 94.5153 36.7514 94.7458 36.7407 95.2774 C 36.7397 95.3346 36.7419 95.3948 36.7473 95.458 C 37.0883 99.6411 51.3907 116.21 65.576 117.125 C 66.6755 117.204 67.7944 117.243 68.9228 117.236 C 79.1398 117.168 90.8883 116.596 95.5371 116.089 C 95.7973 116.114 96.1765 116.141 96.6551 116.17 C 100.028 116.73 114.306 117.486 125.937 117.514 C 126.337 117.515 126.736 117.51 127.132 117.499 C 141.291 117.173 155.772 100.87 156.499 96.1919 C 156.581 95.4533 156.254 95.1518 155.57 95.1551 C 152.791 94.2868 141.081 103.55 127.075 102.738 C 126.739 102.718 126.404 102.702 126.067 102.687 C 113.623 102.175 101.022 112.729 97.1805 115.235 C 96.92 115.256 96.6132 115.211 96.2661 115.108 C 92.5382 112.963 79.6187 101.808 66.946 102.429 C 66.5614 102.447 66.1779 102.466 65.7958 102.485 C 52.0084 103.165 40.5004 94.4807 37.5009 94.5105 Z"
         style="fill:#008000;stroke-width:1.3"
         id="path9132" />
      <path
         d="M 45.7372 71.5922 C 45.3243 71.5964 45.0994 71.8015 45.0843 72.2732 C 45.0828 72.3228 45.0839 72.3752 45.0875 72.4302 C 45.3173 76.1633 57.3316 91.076 69.397 92.296 C 70.3558 92.4015 71.3284 92.4557 72.3068 92.4508 C 81.0787 92.4057 91.3091 91.884 95.4798 91.4144 C 95.7383 91.4208 96.0677 91.4288 96.4542 91.4381 C 99.0248 91.9574 111.716 92.685 121.944 92.7038 C 122.292 92.7045 122.638 92.6975 122.984 92.6833 C 134.905 92.2479 147.043 77.9203 148.005 73.3808 C 148.113 72.7289 147.924 72.3941 147.468 72.2957 C 145.618 70.72 135.33 79.842 122.907 79.1519 C 122.616 79.1356 122.323 79.1195 122.031 79.1035 C 111.406 78.5458 100.618 88.0695 97.1745 90.5235 C 96.9369 90.5943 96.6764 90.6123 96.3976 90.5806 C 93.4019 88.8569 82.2263 78.3939 71.2236 78.8509 C 70.889 78.8647 70.5551 78.8814 70.2222 78.9013 C 58.2982 79.6084 48.3277 71.5647 45.7372 71.5922 Z"
         style="fill:#008000;stroke-width:1.3"
         id="path9134" />
      <path
         d="M 53.9735 48.6739 C 53.6351 48.6776 53.4475 48.8572 53.4279 49.2689 C 53.426 49.3111 53.426 49.3556 53.4278 49.4024 C 53.5464 52.6854 63.2725 65.9417 73.218 67.4667 C 74.036 67.5986 74.8625 67.6683 75.6909 67.6659 C 83.0177 67.6433 91.73 67.1717 95.4226 66.7403 C 95.6793 66.7279 95.959 66.7164 96.2533 66.7057 C 98.0221 67.1847 109.126 67.8841 117.95 67.8935 C 118.246 67.8938 118.541 67.8849 118.836 67.8671 C 128.52 67.3229 138.313 54.9703 139.511 50.5698 C 139.646 50.0046 139.594 49.6364 139.366 49.4363 C 138.445 47.1533 129.579 56.1341 118.74 55.5658 C 118.492 55.5527 118.243 55.5375 117.994 55.5199 C 109.189 54.9165 100.213 63.4104 97.1684 65.8121 C 96.9539 65.9325 96.7397 66.0131 96.529 66.053 C 94.2656 64.7512 84.8338 54.9795 75.5013 55.2732 C 75.2166 55.2821 74.9323 55.2968 74.6486 55.3176 C 64.588 56.0519 56.1549 48.6487 53.9735 48.6739 Z"
         style="fill:#008000;stroke-width:1.3"
         id="path9136" />
      <path
         d="M 62.2098 25.7555 C 61.9458 25.7588 61.7956 25.9129 61.7715 26.2646 C 61.7691 26.2994 61.768 26.336 61.7681 26.3746 C 61.7754 29.2076 69.2134 40.8075 77.039 42.6374 C 77.7163 42.7957 78.3965 42.8809 79.075 42.8809 C 84.9567 42.8809 92.1508 42.4595 95.3653 42.0662 C 95.6203 42.035 95.8502 42.004 96.0524 41.9734 C 97.0193 42.4121 106.536 43.0832 113.957 43.0832 C 114.2 43.0832 114.444 43.0723 114.687 43.0509 C 122.134 42.3979 129.583 32.0203 131.017 27.7587 C 131.178 27.2802 131.263 26.8788 131.264 26.5769 C 131.272 23.5865 123.828 32.4262 114.573 31.9796 C 114.368 31.9698 114.163 31.9554 113.957 31.9362 C 106.972 31.2873 99.8082 38.7513 97.1623 41.1006 C 96.9708 41.2707 96.8029 41.414 96.6605 41.5254 C 95.1293 40.6455 87.4414 31.5651 79.779 31.6955 C 79.5442 31.6995 79.3095 31.7122 79.075 31.7339 C 70.8778 32.4955 63.9821 25.7327 62.2098 25.7555 Z"
         style="fill:#008000;stroke-width:1.3"
         id="path9138" />
    </g>
    <path
       inkscape:original-d="M 0,0"
       inkscape:path-effect="#path-effect9210"
       d="M 96.16129,199.77419 96.870966,8.5161288 Z"
       id="path9212"
       style="fill:#008000"
       class="UnoptimicedTransforms" />
    <path
       style="fill:#008000;fill-rule:nonzero;stroke:none;stroke-width:1.3"
       d="m 96.16129,199.77419 c 0,0 6.48996,0.0241 6.48996,0.0241 C 102.79318,161.54666 96.729031,46.767741 96.870966,8.5161288 96.729031,46.767741 89.81327,161.4985 89.671335,199.75011 c 0,0 6.489955,0.0241 6.489955,0.0241 z"
       id="path9206"
       inkscape:path-effect="#path-effect9208"
       inkscape:original-d="M 96.16129,199.77419 96.870966,8.5161288"
       inkscape:linked-fill="path9212"
       class="UnoptimicedTransforms" />
  </g>
</svg>
