<?xml version="1.0" encoding="UTF-8" standalone="no"?>
<!-- Created with Inkscape (http://www.inkscape.org/) -->

<svg
   width="210mm"
   height="297mm"
   viewBox="0 0 210 297"
   version="1.1"
   id="svg5"
   inkscape:version="1.2.1 (9c6d41e410, 2022-07-14)"
   sodipodi:docname="zad 5 spirale.svg"
   xmlns:inkscape="http://www.inkscape.org/namespaces/inkscape"
   xmlns:sodipodi="http://sodipodi.sourceforge.net/DTD/sodipodi-0.dtd"
   xmlns="http://www.w3.org/2000/svg"
   xmlns:svg="http://www.w3.org/2000/svg">
  <sodipodi:namedview
     id="namedview7"
     pagecolor="#ffffff"
     bordercolor="#000000"
     borderopacity="0.25"
     inkscape:showpageshadow="2"
     inkscape:pageopacity="0.0"
     inkscape:pagecheckerboard="0"
     inkscape:deskcolor="#d1d1d1"
     inkscape:document-units="mm"
     showgrid="false"
     inkscape:zoom="0.74564394"
     inkscape:cx="329.24562"
     inkscape:cy="561.9304"
     inkscape:window-width="1920"
     inkscape:window-height="1017"
     inkscape:window-x="-8"
     inkscape:window-y="-8"
     inkscape:window-maximized="1"
     inkscape:current-layer="layer1" />
  <defs
     id="defs2">
    <inkscape:path-effect
       effect="spiro"
       id="path-effect1152"
       is_visible="true"
       lpeversion="1" />
    <inkscape:path-effect
       effect="powerstroke"
       id="path-effect1092"
       is_visible="true"
       lpeversion="1"
       offset_points="0,2.6208565"
       not_jump="false"
       sort_points="true"
       interpolator_type="CubicBezierJohan"
       interpolator_beta="0.2"
       start_linecap_type="zerowidth"
       linejoin_type="extrp_arc"
       miter_limit="4"
       scale_width="1"
       end_linecap_type="zerowidth" />
    <inkscape:path-effect
       effect="spiro"
       id="path-effect1090"
       is_visible="true"
       lpeversion="1" />
    <inkscape:path-effect
       effect="powerstroke"
       id="path-effect1086"
       is_visible="true"
       lpeversion="1"
       offset_points="0,2.6208565"
       not_jump="false"
       sort_points="true"
       interpolator_type="CubicBezierJohan"
       interpolator_beta="0.2"
       start_linecap_type="zerowidth"
       linejoin_type="extrp_arc"
       miter_limit="4"
       scale_width="1"
       end_linecap_type="zerowidth" />
    <inkscape:path-effect
       effect="spiro"
       id="path-effect1084"
       is_visible="true"
       lpeversion="1" />
    <inkscape:path-effect
       effect="powerstroke"
       id="path-effect1080"
       is_visible="true"
       lpeversion="1"
       offset_points="0,2.6208565"
       not_jump="false"
       sort_points="true"
       interpolator_type="CubicBezierJohan"
       interpolator_beta="0.2"
       start_linecap_type="zerowidth"
       linejoin_type="extrp_arc"
       miter_limit="4"
       scale_width="1"
       end_linecap_type="zerowidth" />
    <inkscape:path-effect
       effect="spiro"
       id="path-effect1078"
       is_visible="true"
       lpeversion="1" />
    <inkscape:path-effect
       effect="powerstroke"
       id="path-effect978"
       is_visible="true"
       lpeversion="1"
       offset_points="0.065860678,2.6208565"
       not_jump="false"
       sort_points="true"
       interpolator_type="CubicBezierJohan"
       interpolator_beta="0.2"
       start_linecap_type="zerowidth"
       linejoin_type="extrp_arc"
       miter_limit="4"
       scale_width="1"
       end_linecap_type="zerowidth" />
    <inkscape:path-effect
       effect="spiro"
       id="path-effect976"
       is_visible="true"
       lpeversion="1" />
    <inkscape:path-effect
       effect="powerstroke"
       id="path-effect240"
       is_visible="true"
       lpeversion="1"
       offset_points="0,4.9921382"
       not_jump="false"
       sort_points="true"
       interpolator_type="CubicBezierJohan"
       interpolator_beta="0.2"
       start_linecap_type="zerowidth"
       linejoin_type="extrp_arc"
       miter_limit="4"
       scale_width="1"
       end_linecap_type="zerowidth" />
    <inkscape:path-effect
       effect="spiro"
       id="path-effect238"
       is_visible="true"
       lpeversion="1" />
    <inkscape:path-effect
       effect="fill_between_many"
       method="bsplinespiro"
       linkedpaths="#path236,0,1"
       id="path-effect242" />
  </defs>
  <g
     inkscape:label="Warstwa 1"
     inkscape:groupmode="layer"
     id="layer1">
    <path
       style="fill:#000000;fill-rule:nonzero;stroke:none;stroke-width:1.10000006;fill-opacity:1;stroke-dasharray:none"
       d="m 19.16129,133.77419 c 0,0 3.069765,3.93675 3.069765,3.93675 4.796652,-3.7403 11.792412,-7.26689 20.342734,-7.98724 4.024318,-0.33283 8.350112,0.003 12.614513,1.20561 3.929284,1.10806 7.781237,2.94852 11.146719,5.62409 3.274842,2.52287 5.869922,5.5227 9.401568,9.4107 1.56297,1.72083 3.28896,3.57399 5.161299,5.31009 1.828855,1.69577 3.866693,3.34663 6.170704,4.74636 4.667142,2.84287 9.970613,4.34727 15.257448,4.96994 5.1396,0.60503 10.27329,0.39986 15.25649,3.5e-4 9.0299,-0.5923 18.26901,-1.86582 26.90932,-5.22937 5.94081,-2.36745 11.46474,-5.69625 16.05197,-10.02098 4.71409,-4.44413 8.32971,-9.8708 10.30821,-15.77609 1.84067,-5.54548 2.17967,-11.34237 1.20224,-16.68123 -1.05511,-5.76317 -3.63163,-10.92873 -7.03488,-14.941412 -4.4059,-5.223999 -10.14643,-8.484585 -15.67057,-9.970518 -7.00306,-1.883747 -13.56607,-0.998013 -18.41334,0.693274 4.86458,-1.697327 11.43373,-2.453037 18.32634,-0.387176 5.43365,1.628581 10.9384,5.0397 15.00912,10.271233 3.12086,4.034409 5.32886,9.093089 6.04671,14.607709 0.66309,5.09385 0.0374,10.49269 -1.94388,15.51159 -2.09314,5.34996 -5.67873,10.17342 -10.20806,14.0219 -4.40819,3.74574 -9.64771,6.54468 -15.2382,8.43908 -8.09678,2.82222 -16.81348,3.73518 -25.60682,3.99643 -4.90316,0.0724 -9.56512,-0.0645 -14.05262,-0.88847 -4.598571,-0.84468 -8.784528,-2.39418 -12.207633,-4.7864 -1.683816,-1.18037 -3.227987,-2.59014 -4.699483,-4.13705 -1.516642,-1.59436 -2.952315,-3.33054 -4.374937,-5.09874 -3.061976,-3.80541 -6.060691,-7.71324 -9.933936,-11.03897 -4.32311,-3.62388 -9.247215,-6.10823 -14.205575,-7.62988 -5.377972,-1.65042 -10.847606,-2.1905 -15.968673,-1.86303 -10.793764,0.67643 -19.679529,4.99281 -25.786308,9.7547 0,0 3.069765,3.93675 3.069765,3.93675 z"
       id="path236"
       inkscape:path-effect="#path-effect238;#path-effect240"
       inkscape:original-d="m 19.16129,133.77419 c 7.451877,-2.95672 15.376608,-5.91371 23.064516,-8.87097 7.687908,-2.95725 17.97876,5.44113 26.967741,8.1613 8.988983,2.72016 13.247576,13.24757 19.870967,19.87096 6.623391,6.62339 18.924996,3.54865 28.387096,5.32258 9.4621,1.77393 17.50564,-3.075 26.25807,-4.6129 8.75242,-1.5379 17.26908,-16.08576 25.90322,-24.12903 8.63415,-8.04328 -3.31156,-20.58038 -4.96774,-30.870969 -1.65618,-10.290587 -22.47286,-6.386832 -33.70968,-9.580647"
       inkscape:linked-fill="path244" />
    <path
       style="fill:#000000;fill-opacity:1;fill-rule:nonzero;stroke:none;stroke-width:0;stroke-dasharray:none"
       d="m 41.516127,126.67742 c 0.153559,0.29621 -1.737391,2.36192 -1.593259,2.65247 3.034231,6.11653 5.794359,13.38532 7.575445,21.66092 0.393196,1.80375 0.755639,3.75167 1.212442,5.81273 0.420867,1.89891 0.94229,3.96575 1.693606,6.01629 0.717565,1.95874 1.695927,3.99411 3.01517,5.86192 1.258662,1.78203 2.86194,3.45914 4.886549,4.73856 1.414912,0.86832 3.069566,1.5605 4.882285,1.86956 1.704167,0.29065 3.557648,0.23718 5.347411,-0.31116 1.707067,-0.52287 3.346989,-1.5041 4.602481,-2.92872 1.210849,-1.37368 2.03943,-3.15332 2.204517,-5.0649 0.128412,-1.36369 -0.09049,-2.69263 -0.530574,-3.90926 -0.434502,-1.2012 -1.090919,-2.31177 -1.87376,-3.27343 -0.768372,-0.9434 -1.64595,-1.75005 -2.563498,-2.45869 -0.909396,-0.70234 -1.868907,-1.31659 -2.814023,-1.87491 -1.446065,-0.86975 -2.990039,-1.68739 -4.616458,-2.33042 -1.620882,-0.64084 -3.335527,-1.11305 -5.129144,-1.28781 -1.790643,-0.14967 -3.637522,0.005 -5.386083,0.56726 -1.751827,0.56333 -3.383375,1.53661 -4.647937,2.89373 -1.120376,1.21074 -1.898383,2.67155 -2.355813,4.17793 -0.46282,1.52437 -0.605025,3.10295 -0.5237,4.62027 0.05814,1.53814 0.343743,3.03061 0.758668,4.46053 0.419162,1.44452 0.975137,2.84127 1.575183,4.16996 1.132653,2.5596 2.501029,5.02815 4.144568,7.26341 1.668767,2.26956 3.613968,4.28873 5.872347,5.91917 2.337403,1.65869 4.934755,2.84739 7.624679,3.42401 2.81893,0.60429 5.697764,0.51904 8.308245,-0.25804 1.586917,-0.46874 3.055531,-1.18156 4.431435,-1.9601 1.398479,-0.7913 2.814174,-1.719 4.11337,-2.5281 1.393552,-0.86788 2.778572,-1.66917 4.212877,-2.29633 1.498549,-0.65524 3.004289,-1.09865 4.54877,-1.22621 1.433865,-0.12028 2.848074,0.0505 4.149054,0.43862 1.395301,0.41628 2.65769,1.08051 3.723118,1.91431 1.159789,0.90764 2.079722,2.00906 2.758792,3.16305 0.75984,1.29123 1.22109,2.65137 1.4255,3.95434 -0.20431,-1.30235 -0.65746,-2.66216 -1.40876,-3.9641 -0.67,-1.16107 -1.579753,-2.27728 -2.733192,-3.20661 -1.059876,-0.85394 -2.323167,-1.54574 -3.725051,-1.99202 -1.308285,-0.41649 -2.740757,-0.61964 -4.205567,-0.52823 -1.577981,0.10046 -3.120255,0.52133 -4.656592,1.15507 -1.469454,0.60616 -2.887594,1.38688 -4.307981,2.22729 -1.332193,0.78822 -2.746804,1.66939 -4.1521,2.42037 -1.377356,0.73605 -2.817454,1.38842 -4.351075,1.79943 -2.518229,0.6689 -5.267664,0.66313 -7.927032,0.004 -2.537707,-0.62924 -4.968241,-1.8398 -7.132902,-3.48758 -2.117279,-1.58315 -3.940222,-3.53811 -5.503101,-5.7414 -1.539911,-2.1709 -2.819664,-4.57217 -3.874223,-7.07134 -0.540511,-1.30944 -1.022399,-2.65113 -1.369132,-4.01329 -0.343021,-1.34758 -0.552365,-2.70969 -0.558076,-4.0782 0.01847,-1.35299 0.239873,-2.69345 0.710243,-3.93042 0.465132,-1.22297 1.173209,-2.33255 2.09066,-3.19456 1.023084,-0.97 2.329614,-1.649 3.72194,-2.00339 1.392504,-0.35457 2.873399,-0.39303 4.32461,-0.18145 1.459348,0.18755 2.886305,0.62135 4.281433,1.22258 1.402683,0.60449 2.765065,1.37469 4.085929,2.22437 0.858621,0.56272 1.666402,1.13793 2.399043,1.76029 0.736992,0.62605 1.379589,1.28456 1.909319,2.0011 0.52706,0.71368 0.933889,1.49649 1.178231,2.2876 0.246797,0.79905 0.320077,1.57893 0.215438,2.30569 -0.162673,1.02306 -0.686998,1.98721 -1.41972,2.71193 -0.759888,0.75208 -1.748421,1.26799 -2.780689,1.51316 -1.082722,0.25742 -2.225922,0.22923 -3.295289,-0.0183 -1.138113,-0.26325 -2.206508,-0.77161 -3.145033,-1.41621 -1.369597,-0.90218 -2.503926,-2.10768 -3.445908,-3.49094 -0.989918,-1.45365 -1.755769,-3.09053 -2.332479,-4.74165 -0.613226,-1.75526 -1.052672,-3.58074 -1.430383,-5.39367 -0.39692,-1.90513 -0.747827,-3.91009 -1.144747,-5.81521 -1.842614,-8.75389 -4.739257,-16.44432 -7.947648,-22.91193 -0.152405,-0.30722 -2.94887,-0.0269 -3.102429,-0.32307 z"
       id="path974"
       inkscape:path-effect="#path-effect976;#path-effect978"
       inkscape:original-d="m 41.516127,126.67742 c 2.838977,7.92499 5.677686,15.84973 8.516131,23.77419 2.838445,7.92447 6.387362,13.95725 9.580644,20.93549 3.193283,6.97823 9.226071,-3.07501 13.838711,-4.61291 4.612638,-1.5379 -4.49436,-6.62339 -6.741938,-9.93548 -2.247574,-3.31209 -12.064251,-0.47286 -18.096772,-0.70968 -6.032523,-0.23682 -0.472855,10.88198 -0.709678,16.32258 -0.236824,5.4406 16.795964,10.88199 25.193548,16.32258 8.397586,5.4406 11.591663,-5.20403 17.387096,-7.80645 5.795436,-2.60241 8.043275,6.38736 12.064521,9.58064" />
    <path
       style="fill:#000000;fill-opacity:1;fill-rule:nonzero;stroke:none;stroke-width:0;stroke-dasharray:none"
       d="m 48.612902,123.12903 c 0,0 0.05466,2.62029 0.05466,2.62029 5.95593,-0.12424 13.332774,-1.6901 20.369512,-6.11309 5.564634,-3.49769 10.801914,-8.76718 14.318831,-15.63475 C 85.873513,99.061341 87.53795,93.163552 87.313814,86.973901 87.106665,81.24925 85.218452,75.26938 81.355491,70.48551 c -1.052735,-1.276436 -2.29705,-2.506587 -3.725633,-3.514514 -1.405562,-0.991684 -3.007268,-1.780298 -4.784823,-2.1661 -1.757029,-0.339908 -3.640286,-0.265509 -5.378306,0.362788 -0.864658,0.312353 -1.67907,0.761557 -2.397004,1.326964 -0.718566,0.565906 -1.343164,1.250375 -1.824125,2.033868 -0.811849,1.346702 -1.147571,2.892797 -1.082814,4.353577 0.06673,1.501138 0.54784,2.913115 1.257134,4.100467 0.698769,1.247716 1.65563,2.281421 2.726135,3.109419 1.103829,0.853772 2.341409,1.499481 3.588458,1.95044 3.192253,1.171424 6.58489,1.196925 9.560831,0.720279 3.334629,-0.534125 6.479473,-1.730246 9.091199,-2.84671 6.958603,-2.912826 12.623737,-6.430034 17.000557,-9.657925 -4.37981,3.230099 -10.075507,6.694173 -17.063969,9.503363 -2.651467,1.042626 -5.79631,2.108196 -9.097735,2.500281 -2.948635,0.350161 -6.197028,0.165802 -9.153462,-1.07832 -1.143427,-0.488116 -2.245625,-1.149941 -3.197663,-1.980389 -0.923817,-0.805832 -1.698853,-1.764183 -2.228689,-2.862375 -0.480137,-1.085088 -0.710552,-2.277181 -0.613326,-3.437475 0.09498,-1.130775 0.503825,-2.208528 1.173756,-3.044572 0.381431,-0.487664 0.855817,-0.902804 1.388954,-1.232607 0.533855,-0.330247 1.121488,-0.571713 1.723904,-0.714893 1.2222,-0.291132 2.531592,-0.202624 3.735827,0.172019 1.236643,0.34083 2.376347,0.969761 3.42125,1.79421 1.066056,0.841139 2.020468,1.877878 2.845979,2.99202 3.145904,4.135621 4.628974,9.285709 4.674316,14.207123 0.04924,5.324016 -1.514633,10.425977 -3.836011,14.728502 -3.213877,5.9889 -7.899547,10.53401 -12.79584,13.51748 -6.193207,3.77373 -12.63846,5.07852 -17.806145,5.18631 0,0 0.05466,2.62029 0.05466,2.62029 z"
       id="path1076"
       inkscape:path-effect="#path-effect1078;#path-effect1080"
       inkscape:original-d="M 48.612902,123.12903 C 59.494886,116.38736 70.376606,109.64542 81.258064,102.90322 92.139519,96.161025 80.312091,82.086285 79.838709,71.677418 79.365325,61.268551 69.430371,70.021769 64.225806,69.193546 c -5.204566,-0.828219 3.785211,8.279837 5.677418,12.419357 1.892208,4.13952 12.301339,-1.182532 18.451613,-1.774196 6.150274,-0.591661 11.355108,-6.386829 17.032263,-9.580644" />
    <path
       style="fill:#000000;fill-opacity:1;fill-rule:nonzero;stroke:none;stroke-width:0;stroke-dasharray:none"
       d="m 83.741934,145.83871 c 0,0 0.05809,2.62021 0.05809,2.62021 0.7014,-0.0156 1.496467,-0.0302 2.368391,-0.0313 5.17563,0.10536 9.908076,0.89935 15.776668,1.58307 5.15503,0.60058 10.87794,1.05507 16.62831,0.0868 3.33011,-0.57912 6.98659,-1.70749 10.24767,-3.86916 1.54568,-1.02447 3.00673,-2.29698 4.25085,-3.80082 1.20176,-1.45263 2.21364,-3.13728 2.87904,-5.02258 0.84344,-2.37316 1.06985,-4.84241 0.91331,-7.27336 -0.15222,-2.36367 -0.66694,-4.70307 -1.33617,-6.91131 -0.89116,-2.89723 -2.13758,-5.97278 -4.12784,-8.67589 -0.97683,-1.32691 -2.14822,-2.56856 -3.49721,-3.61393 -1.32877,-1.02971 -2.84126,-1.87736 -4.51187,-2.41421 -1.68153,-0.5409 -3.37958,-0.72527 -4.99068,-0.80226 -1.56299,-0.0747 -3.03896,-0.0487 -4.60195,-0.12337 -1.43924,-0.0481 -2.81049,-0.1921 -4.07289,-0.58112 -0.61928,-0.19066 -1.21408,-0.44472 -1.75507,-0.76298 -0.53739,-0.31615 -1.01773,-0.69322 -1.41881,-1.13209 -0.55636,-0.62299 -0.96672,-1.39798 -1.19767,-2.25058 -0.23022,-0.84989 -0.27623,-1.75641 -0.12371,-2.62614 0.15331,-0.873276 0.50249,-1.723294 1.01315,-2.490994 0.51052,-0.767498 1.17492,-1.441035 1.9422,-1.962011 0.47282,-0.331911 0.98472,-0.605204 1.5152,-0.799449 0.53132,-0.194552 1.07781,-0.308629 1.62276,-0.326142 0.54185,-0.01776 1.09264,0.06757 1.60122,0.251638 0.51031,0.18469 0.96978,0.465545 1.33825,0.832676 0.28506,0.275931 0.52523,0.608764 0.71464,0.982658 0.191,0.377022 0.3274,0.790044 0.406,1.216354 0.16065,0.872853 0.0877,1.799977 -0.14772,2.70104 -0.26131,0.91047 -0.67767,1.77165 -1.17548,2.61488 -0.50538,0.85603 -1.0891,1.68427 -1.66653,2.51538 -1.352,1.93666 -2.57338,3.75532 -4.11217,5.34576 -0.42498,0.48285 -0.86051,0.92549 -1.3209,1.32167 -1.26738,0.9865 -2.7401,1.66506 -4.26313,2.02614 -1.57834,0.37418 -3.205242,0.40711 -4.742352,0.10204 -1.599897,-0.31753 -3.089533,-0.99735 -4.362714,-1.91551 -1.336268,-0.96366 -2.431268,-2.1861 -3.207223,-3.55085 -0.820055,-1.44232 -1.277634,-3.02913 -1.414801,-4.58919 -0.147018,-1.67209 0.07227,-3.30965 0.595846,-4.78058 0.568731,-1.597782 1.488152,-2.983732 2.56623,-4.090567 1.202287,-1.234355 2.605351,-2.1275 4.028424,-2.674871 -1.422448,0.54713 -2.82594,1.431691 -4.04109,2.662449 -1.086662,1.10062 -2.022452,2.481925 -2.612426,4.081655 -0.543289,1.473144 -0.786637,3.122874 -0.663101,4.812064 0.115577,1.58038 0.55213,3.19506 1.362114,4.67864 0.766544,1.40402 1.862808,2.67503 3.211792,3.68795 1.286051,0.96567 2.80572,1.69884 4.456526,2.06252 1.586642,0.34955 3.279005,0.35275 4.932025,-4.2e-4 1.59533,-0.34085 3.15809,-1.01512 4.52212,-2.02643 0.53262,-0.35765 1.04423,-0.76257 1.55013,-1.20693 1.65926,-1.59566 2.99415,-3.43472 4.40396,-5.2994 0.60145,-0.79181 1.25091,-1.63435 1.82213,-2.51277 0.56626,-0.8708 1.08188,-1.815 1.43135,-2.85657 0.36334,-1.01411 0.5733,-2.154065 0.46814,-3.319263 -0.0522,-0.576954 -0.18401,-1.160067 -0.40361,-1.718007 -0.21776,-0.553254 -0.5241,-1.087209 -0.92904,-1.563072 -0.54255,-0.625628 -1.22228,-1.106257 -1.96543,-1.437824 -0.73801,-0.329277 -1.54596,-0.514934 -2.35892,-0.547515 -0.80432,-0.03247 -1.5992,0.07759 -2.35763,0.294861 -0.75582,0.216528 -1.47824,0.540277 -2.14383,0.939525 -1.06544,0.656057 -2.00416,1.524837 -2.74694,2.540072 -0.74271,1.015141 -1.2964,2.186453 -1.57704,3.447855 -0.28189,1.267568 -0.2743,2.595598 0.008,3.860478 0.28276,1.26825 0.84581,2.4916 1.69218,3.53154 0.58706,0.73269 1.28171,1.34664 2.02918,1.85288 0.75096,0.50861 1.56009,0.91191 2.38067,1.22183 1.6446,0.62143 3.35101,0.88769 4.93161,1.03595 1.48604,0.11817 3.11932,0.14252 4.60537,0.26068 1.47168,0.11416 2.78275,0.31493 3.98797,0.74298 1.17318,0.4174 2.26331,1.06469 3.24752,1.87593 1.00076,0.82487 1.88512,1.81371 2.62799,2.88742 1.53508,2.21825 2.53443,4.82274 3.27789,7.50036 0.56786,2.01035 0.95658,4.00678 1.04463,5.9274 0.0898,1.95925 -0.13796,3.78759 -0.75781,5.43631 -0.49351,1.29984 -1.23878,2.49251 -2.15229,3.54812 -0.94684,1.09412 -2.06786,2.03362 -3.26696,2.79305 -2.56314,1.62363 -5.53304,2.51291 -8.42903,2.96627 -5.00788,0.81614 -10.12907,0.41666 -15.20098,-0.19714 -5.561613,-0.67307 -10.761418,-1.5503 -16.264972,-1.6814 -0.956396,-0.0416 -1.828216,-0.0484 -2.599351,-0.0313 0,0 0.05809,2.62021 0.05809,2.62021 z"
       id="path1082"
       inkscape:path-effect="#path-effect1084;#path-effect1086"
       inkscape:original-d="m 83.741934,145.83871 c 0.828222,2.6e-4 1.656178,2.6e-4 2.483871,0 0.827694,-2.7e-4 21.290585,1.18306 31.935485,1.77419 10.64489,0.59113 10.40887,-7.33307 15.6129,-11 5.20404,-3.66693 -0.23629,-8.51586 -0.35484,-12.77419 -0.11854,-4.25833 -7.09651,-8.98899 -10.64516,-13.48387 -3.54865,-4.49489 -11.59113,-2.83845 -17.3871,-4.25807 -5.795959,-1.41962 1.41963,-7.569626 2.12903,-11.354835 0.70942,-3.785211 4.96801,0.236824 7.45162,0.354838 2.48361,0.118015 -1.41909,7.333597 -2.12903,10.999997 -0.70994,3.66641 -2.83846,3.54866 -4.25807,5.32258 -0.29954,0.3743 -0.79915,0.80129 -1.43551,1.2643 -2.37956,1.73134 -8.090633,-21.582154 -10.98384,-19.715908"
       sodipodi:nodetypes="csssssssssssc" />
    <path
       style="fill:#000000;fill-opacity:1;fill-rule:nonzero;stroke:none;stroke-width:0;stroke-dasharray:none"
       d="m 137.67742,156.48387 c 0,0 -2.54071,-0.6432 -2.54071,-0.6432 -0.64231,2.53722 -0.74842,5.97097 0.6905,9.47105 1.1166,2.71605 3.15848,5.36377 6.07584,7.17071 2.5635,1.58777 5.72919,2.45563 8.98175,2.23221 3.02193,-0.20757 6.02872,-1.36387 8.44644,-3.36052 1.45128,-1.18384 2.60839,-2.58879 3.64022,-3.98255 1.02493,-1.38444 1.94622,-2.78032 2.92947,-4.03704 0.94066,-1.28278 1.96418,-2.4514 3.171,-3.34166 0.60364,-0.44566 1.25983,-0.82002 1.94436,-1.09257 0.6921,-0.27556 1.41001,-0.4459 2.13369,-0.48435 1.24172,-0.0834 2.50243,0.23053 3.56305,0.86223 1.14158,0.67993 2.02457,1.70878 2.5448,2.85331 0.59216,1.30276 0.70206,2.7073 0.47039,3.93205 -0.29875,1.57933 -1.1287,2.79054 -1.95403,3.54936 0.81618,-0.7504 1.72332,-1.91442 2.16833,-3.49894 0.34589,-1.23161 0.40014,-2.72306 -0.0768,-4.21491 -0.419,-1.31067 -1.25179,-2.60505 -2.48302,-3.58046 -1.14318,-0.90565 -2.6152,-1.51805 -4.21013,-1.63778 -0.93385,-0.0602 -1.87033,0.0483 -2.77972,0.2902 -0.89757,0.23872 -1.76497,0.60633 -2.57385,1.06532 -1.60464,0.91001 -2.96226,2.14778 -4.15948,3.42917 -1.16378,1.31806 -2.18493,2.68678 -3.21617,3.92115 -1.05523,1.2631 -2.08223,2.34538 -3.2585,3.19471 -1.94631,1.38073 -4.25947,2.06725 -6.46033,2.0649 -2.37154,-0.003 -4.59237,-0.78918 -6.30558,-2.00391 -1.95228,-1.38425 -3.2482,-3.29594 -3.91261,-5.15316 -0.85723,-2.39624 -0.71018,-4.69538 -0.28823,-6.36212 0,0 -2.54071,-0.6432 -2.54071,-0.6432 z"
       id="path1088"
       inkscape:path-effect="#path-effect1090;#path-effect1092"
       inkscape:original-d="m 137.67742,156.48387 c 6.86048,4.49489 13.72069,8.98951 20.58064,13.48387 6.85995,4.49436 9.93575,-8.27931 14.90323,-12.41936 4.96748,-4.14004 3.07553,8.04328 4.6129,12.06452" />
    <path
       style="fill:#000000;fill-opacity:1;stroke:#000000;stroke-width:0;stroke-dasharray:none"
       d="m 168.9365,133.20829 c -0.50807,-0.0605 -0.97064,-0.36005 -1.28689,-0.76227 -0.31626,-0.40222 -0.49509,-0.89992 -0.57473,-1.40535 -0.15929,-1.01085 0.0608,-2.03844 0.0977,-3.0611 0.0447,-1.24018 -0.18071,-2.47261 -0.26369,-3.71082 -0.083,-1.23822 -0.01,-2.53527 0.5807,-3.62669 0.64654,-1.1947 1.82091,-1.98904 2.87646,-2.84411 0.64438,-0.52199 1.26578,-1.08718 2.00287,-1.46717 0.36854,-0.18999 0.76492,-0.33173 1.17597,-0.38614 0.41105,-0.0544 0.83758,-0.0192 1.22354,0.13235 0.35496,0.13935 0.66842,0.37395 0.92458,0.65644 0.25615,0.28248 0.4567,0.61211 0.61728,0.95798 0.32114,0.69175 0.4838,1.44431 0.71317,2.17166 0.40047,1.26992 1.01214,2.4902 1.15505,3.81408 0.1605,1.48683 -0.30286,3.01069 -1.16764,4.23076 -0.54144,0.76389 -1.23525,1.417 -2.01953,1.92846 -0.98833,0.64453 -2.11592,1.06585 -3.05812,1.77612 -0.46533,0.35078 -0.87946,0.76789 -1.36085,1.09628 -0.24069,0.1642 -0.49856,0.30595 -0.77479,0.39865 -0.27623,0.0927 -0.57177,0.13534 -0.86109,0.10087 z"
       id="path1116"
       inkscape:transform-center-x="3.1935484"
       inkscape:transform-center-y="-0.35483875"
       inkscape:path-effect="#path-effect1152"
       inkscape:original-d="m 168.9365,133.20829 c -1.70952,-0.67896 -1.82654,-4.24391 -1.76391,-5.22872 0.0626,-0.98481 -0.67478,-5.09929 0.31701,-7.33751 0.54626,-1.23277 1.74579,-2.10946 2.87646,-2.84411 1.32121,-0.85845 2.91204,-2.23224 4.40238,-1.72096 1.38943,0.47666 1.66194,2.44222 2.25503,3.78608 0.53635,1.21529 1.52339,2.73211 1.15505,3.81408 -0.36833,1.08199 -0.41689,2.97511 -1.16764,4.23076 -0.47766,0.79889 -1.27531,1.36942 -2.01953,1.92846 -0.94253,0.70801 -2.02801,1.20296 -3.05812,1.77612 -0.98894,0.55025 -1.94493,2.01353 -2.99673,1.5958 z"
       sodipodi:nodetypes="sssssssssss" />
    <path
       style="fill:#000000;fill-opacity:1;stroke:#000000;stroke-width:0;stroke-dasharray:none"
       d="M 59.842435,199.07081 C 44.330531,191.35384 53.00604,180.57212 53.00604,180.57212 Z"
       id="path1122" />
    <path
       style="fill:#000000;fill-opacity:1;stroke:#000000;stroke-width:0;stroke-dasharray:none"
       d="m 134.83441,88.045576 c -7.81934,10.571146 1.71017,17.088514 4.74877,11.100256 3.03861,-5.988255 -1.39441,2.038168 -3.4802,-3.902525"
       id="path1126"
       sodipodi:nodetypes="csc" />
    <path
       style="fill:#000000;fill-opacity:1;stroke:#000000;stroke-width:0;stroke-dasharray:none"
       d="m 178.62303,168.21974 c 13.00796,-1.91943 10.90108,-13.27059 4.51391,-11.19782 -6.38718,2.07276 -6.79769,-5.41802 -1.0189,4.86492"
       id="path1126-9"
       sodipodi:nodetypes="csc" />
    <path
       style="fill:#000000;fill-opacity:1;stroke:#000000;stroke-width:0;stroke-dasharray:none"
       d="m 133.77419,131.64516 13.48387,3.19355 c 0,0 2.48388,2.12903 -3.54838,3.19355 -6.03226,1.06451 -11.35484,-5.67742 -9.93549,-6.3871 z"
       id="path1150" />
  </g>
</svg>
